<?xml version="1.0" encoding="utf-8" standalone="no"?>
<!DOCTYPE svg PUBLIC "-//W3C//DTD SVG 1.1//EN"
  "http://www.w3.org/Graphics/SVG/1.1/DTD/svg11.dtd">
<svg xmlns:xlink="http://www.w3.org/1999/xlink" width="864pt" height="576pt" viewBox="0 0 864 576" xmlns="http://www.w3.org/2000/svg" version="1.1">
 <metadata>
  <rdf:RDF xmlns:dc="http://purl.org/dc/elements/1.1/" xmlns:cc="http://creativecommons.org/ns#" xmlns:rdf="http://www.w3.org/1999/02/22-rdf-syntax-ns#">
   <cc:Work>
    <dc:type rdf:resource="http://purl.org/dc/dcmitype/StillImage"/>
    <dc:date>2025-11-03T18:49:58.090021</dc:date>
    <dc:format>image/svg+xml</dc:format>
    <dc:creator>
     <cc:Agent>
      <dc:title>Matplotlib v3.8.0, https://matplotlib.org/</dc:title>
     </cc:Agent>
    </dc:creator>
   </cc:Work>
  </rdf:RDF>
 </metadata>
 <defs>
  <style type="text/css">*{stroke-linejoin: round; stroke-linecap: butt}</style>
 </defs>
 <g id="figure_1">
  <g id="patch_1">
   <path d="M 0 576 
L 864 576 
L 864 0 
L 0 0 
z
" style="fill: #ffffff"/>
  </g>
  <g id="patch_2">
   <path d="M 82.1072 565.2 
L 636.5072 565.2 
L 636.5072 10.8 
L 82.1072 10.8 
z
" style="fill: #ffffff"/>
  </g>
  <g id="pane3d_1">
   <g id="patch_3">
    <path d="M 123.968223 428.502727 
L 307.049209 275.040614 
L 304.504208 53.720814 
L 112.661853 193.718627 
" style="fill: #f2f2f2; opacity: 0.5; stroke: #f2f2f2; stroke-linejoin: miter"/>
   </g>
  </g>
  <g id="pane3d_2">
   <g id="patch_4">
    <path d="M 307.049209 275.040614 
L 600.828868 360.430763 
L 611.312828 131.487856 
L 304.504208 53.720814 
" style="fill: #e6e6e6; opacity: 0.5; stroke: #e6e6e6; stroke-linejoin: miter"/>
   </g>
  </g>
  <g id="pane3d_3">
   <g id="patch_5">
    <path d="M 123.968223 428.502727 
L 435.38901 530.212756 
L 600.828868 360.430763 
L 307.049209 275.040614 
" style="fill: #ececec; opacity: 0.5; stroke: #ececec; stroke-linejoin: miter"/>
   </g>
  </g>
  <g id="grid3d_1"/>
  <g id="grid3d_2"/>
  <g id="grid3d_3"/>
  <g id="axis3d_1">
   <g id="line2d_1">
    <path d="M 123.968223 428.502727 
L 435.38901 530.212756 
" style="fill: none; stroke: #000000; stroke-width: 0.8; stroke-linecap: square"/>
   </g>
   <g id="text_1">
    <!-- 10 pwCF samples -->
    <g transform="translate(216.712828 502.114205) rotate(-341.912962) scale(0.1 -0.1)">
     <defs>
      <path id="DejaVuSans-31" d="M 794 531 
L 1825 531 
L 1825 4091 
L 703 3866 
L 703 4441 
L 1819 4666 
L 2450 4666 
L 2450 531 
L 3481 531 
L 3481 0 
L 794 0 
L 794 531 
z
" transform="scale(0.015625)"/>
      <path id="DejaVuSans-30" d="M 2034 4250 
Q 1547 4250 1301 3770 
Q 1056 3291 1056 2328 
Q 1056 1369 1301 889 
Q 1547 409 2034 409 
Q 2525 409 2770 889 
Q 3016 1369 3016 2328 
Q 3016 3291 2770 3770 
Q 2525 4250 2034 4250 
z
M 2034 4750 
Q 2819 4750 3233 4129 
Q 3647 3509 3647 2328 
Q 3647 1150 3233 529 
Q 2819 -91 2034 -91 
Q 1250 -91 836 529 
Q 422 1150 422 2328 
Q 422 3509 836 4129 
Q 1250 4750 2034 4750 
z
" transform="scale(0.015625)"/>
      <path id="DejaVuSans-20" transform="scale(0.015625)"/>
      <path id="DejaVuSans-70" d="M 1159 525 
L 1159 -1331 
L 581 -1331 
L 581 3500 
L 1159 3500 
L 1159 2969 
Q 1341 3281 1617 3432 
Q 1894 3584 2278 3584 
Q 2916 3584 3314 3078 
Q 3713 2572 3713 1747 
Q 3713 922 3314 415 
Q 2916 -91 2278 -91 
Q 1894 -91 1617 61 
Q 1341 213 1159 525 
z
M 3116 1747 
Q 3116 2381 2855 2742 
Q 2594 3103 2138 3103 
Q 1681 3103 1420 2742 
Q 1159 2381 1159 1747 
Q 1159 1113 1420 752 
Q 1681 391 2138 391 
Q 2594 391 2855 752 
Q 3116 1113 3116 1747 
z
" transform="scale(0.015625)"/>
      <path id="DejaVuSans-77" d="M 269 3500 
L 844 3500 
L 1563 769 
L 2278 3500 
L 2956 3500 
L 3675 769 
L 4391 3500 
L 4966 3500 
L 4050 0 
L 3372 0 
L 2619 2869 
L 1863 0 
L 1184 0 
L 269 3500 
z
" transform="scale(0.015625)"/>
      <path id="DejaVuSans-43" d="M 4122 4306 
L 4122 3641 
Q 3803 3938 3442 4084 
Q 3081 4231 2675 4231 
Q 1875 4231 1450 3742 
Q 1025 3253 1025 2328 
Q 1025 1406 1450 917 
Q 1875 428 2675 428 
Q 3081 428 3442 575 
Q 3803 722 4122 1019 
L 4122 359 
Q 3791 134 3420 21 
Q 3050 -91 2638 -91 
Q 1578 -91 968 557 
Q 359 1206 359 2328 
Q 359 3453 968 4101 
Q 1578 4750 2638 4750 
Q 3056 4750 3426 4639 
Q 3797 4528 4122 4306 
z
" transform="scale(0.015625)"/>
      <path id="DejaVuSans-46" d="M 628 4666 
L 3309 4666 
L 3309 4134 
L 1259 4134 
L 1259 2759 
L 3109 2759 
L 3109 2228 
L 1259 2228 
L 1259 0 
L 628 0 
L 628 4666 
z
" transform="scale(0.015625)"/>
      <path id="DejaVuSans-73" d="M 2834 3397 
L 2834 2853 
Q 2591 2978 2328 3040 
Q 2066 3103 1784 3103 
Q 1356 3103 1142 2972 
Q 928 2841 928 2578 
Q 928 2378 1081 2264 
Q 1234 2150 1697 2047 
L 1894 2003 
Q 2506 1872 2764 1633 
Q 3022 1394 3022 966 
Q 3022 478 2636 193 
Q 2250 -91 1575 -91 
Q 1294 -91 989 -36 
Q 684 19 347 128 
L 347 722 
Q 666 556 975 473 
Q 1284 391 1588 391 
Q 1994 391 2212 530 
Q 2431 669 2431 922 
Q 2431 1156 2273 1281 
Q 2116 1406 1581 1522 
L 1381 1569 
Q 847 1681 609 1914 
Q 372 2147 372 2553 
Q 372 3047 722 3315 
Q 1072 3584 1716 3584 
Q 2034 3584 2315 3537 
Q 2597 3491 2834 3397 
z
" transform="scale(0.015625)"/>
      <path id="DejaVuSans-61" d="M 2194 1759 
Q 1497 1759 1228 1600 
Q 959 1441 959 1056 
Q 959 750 1161 570 
Q 1363 391 1709 391 
Q 2188 391 2477 730 
Q 2766 1069 2766 1631 
L 2766 1759 
L 2194 1759 
z
M 3341 1997 
L 3341 0 
L 2766 0 
L 2766 531 
Q 2569 213 2275 61 
Q 1981 -91 1556 -91 
Q 1019 -91 701 211 
Q 384 513 384 1019 
Q 384 1609 779 1909 
Q 1175 2209 1959 2209 
L 2766 2209 
L 2766 2266 
Q 2766 2663 2505 2880 
Q 2244 3097 1772 3097 
Q 1472 3097 1187 3025 
Q 903 2953 641 2809 
L 641 3341 
Q 956 3463 1253 3523 
Q 1550 3584 1831 3584 
Q 2591 3584 2966 3190 
Q 3341 2797 3341 1997 
z
" transform="scale(0.015625)"/>
      <path id="DejaVuSans-6d" d="M 3328 2828 
Q 3544 3216 3844 3400 
Q 4144 3584 4550 3584 
Q 5097 3584 5394 3201 
Q 5691 2819 5691 2113 
L 5691 0 
L 5113 0 
L 5113 2094 
Q 5113 2597 4934 2840 
Q 4756 3084 4391 3084 
Q 3944 3084 3684 2787 
Q 3425 2491 3425 1978 
L 3425 0 
L 2847 0 
L 2847 2094 
Q 2847 2600 2669 2842 
Q 2491 3084 2119 3084 
Q 1678 3084 1418 2786 
Q 1159 2488 1159 1978 
L 1159 0 
L 581 0 
L 581 3500 
L 1159 3500 
L 1159 2956 
Q 1356 3278 1631 3431 
Q 1906 3584 2284 3584 
Q 2666 3584 2933 3390 
Q 3200 3197 3328 2828 
z
" transform="scale(0.015625)"/>
      <path id="DejaVuSans-6c" d="M 603 4863 
L 1178 4863 
L 1178 0 
L 603 0 
L 603 4863 
z
" transform="scale(0.015625)"/>
      <path id="DejaVuSans-65" d="M 3597 1894 
L 3597 1613 
L 953 1613 
Q 991 1019 1311 708 
Q 1631 397 2203 397 
Q 2534 397 2845 478 
Q 3156 559 3463 722 
L 3463 178 
Q 3153 47 2828 -22 
Q 2503 -91 2169 -91 
Q 1331 -91 842 396 
Q 353 884 353 1716 
Q 353 2575 817 3079 
Q 1281 3584 2069 3584 
Q 2775 3584 3186 3129 
Q 3597 2675 3597 1894 
z
M 3022 2063 
Q 3016 2534 2758 2815 
Q 2500 3097 2075 3097 
Q 1594 3097 1305 2825 
Q 1016 2553 972 2059 
L 3022 2063 
z
" transform="scale(0.015625)"/>
     </defs>
     <use xlink:href="#DejaVuSans-31"/>
     <use xlink:href="#DejaVuSans-30" x="63.623047"/>
     <use xlink:href="#DejaVuSans-20" x="127.246094"/>
     <use xlink:href="#DejaVuSans-70" x="159.033203"/>
     <use xlink:href="#DejaVuSans-77" x="222.509766"/>
     <use xlink:href="#DejaVuSans-43" x="304.296875"/>
     <use xlink:href="#DejaVuSans-46" x="374.121094"/>
     <use xlink:href="#DejaVuSans-20" x="431.640625"/>
     <use xlink:href="#DejaVuSans-73" x="463.427734"/>
     <use xlink:href="#DejaVuSans-61" x="515.527344"/>
     <use xlink:href="#DejaVuSans-6d" x="576.806641"/>
     <use xlink:href="#DejaVuSans-70" x="674.21875"/>
     <use xlink:href="#DejaVuSans-6c" x="737.695312"/>
     <use xlink:href="#DejaVuSans-65" x="765.478516"/>
     <use xlink:href="#DejaVuSans-73" x="827.001953"/>
    </g>
   </g>
  </g>
  <g id="axis3d_2">
   <g id="line2d_2">
    <path d="M 600.828868 360.430763 
L 435.38901 530.212756 
" style="fill: none; stroke: #000000; stroke-width: 0.8; stroke-linecap: square"/>
   </g>
   <g id="text_2">
    <!-- 54 class taxonomies -->
    <g transform="translate(515.144769 507.970737) rotate(-45.742112) scale(0.1 -0.1)">
     <defs>
      <path id="DejaVuSans-35" d="M 691 4666 
L 3169 4666 
L 3169 4134 
L 1269 4134 
L 1269 2991 
Q 1406 3038 1543 3061 
Q 1681 3084 1819 3084 
Q 2600 3084 3056 2656 
Q 3513 2228 3513 1497 
Q 3513 744 3044 326 
Q 2575 -91 1722 -91 
Q 1428 -91 1123 -41 
Q 819 9 494 109 
L 494 744 
Q 775 591 1075 516 
Q 1375 441 1709 441 
Q 2250 441 2565 725 
Q 2881 1009 2881 1497 
Q 2881 1984 2565 2268 
Q 2250 2553 1709 2553 
Q 1456 2553 1204 2497 
Q 953 2441 691 2322 
L 691 4666 
z
" transform="scale(0.015625)"/>
      <path id="DejaVuSans-34" d="M 2419 4116 
L 825 1625 
L 2419 1625 
L 2419 4116 
z
M 2253 4666 
L 3047 4666 
L 3047 1625 
L 3713 1625 
L 3713 1100 
L 3047 1100 
L 3047 0 
L 2419 0 
L 2419 1100 
L 313 1100 
L 313 1709 
L 2253 4666 
z
" transform="scale(0.015625)"/>
      <path id="DejaVuSans-63" d="M 3122 3366 
L 3122 2828 
Q 2878 2963 2633 3030 
Q 2388 3097 2138 3097 
Q 1578 3097 1268 2742 
Q 959 2388 959 1747 
Q 959 1106 1268 751 
Q 1578 397 2138 397 
Q 2388 397 2633 464 
Q 2878 531 3122 666 
L 3122 134 
Q 2881 22 2623 -34 
Q 2366 -91 2075 -91 
Q 1284 -91 818 406 
Q 353 903 353 1747 
Q 353 2603 823 3093 
Q 1294 3584 2113 3584 
Q 2378 3584 2631 3529 
Q 2884 3475 3122 3366 
z
" transform="scale(0.015625)"/>
      <path id="DejaVuSans-74" d="M 1172 4494 
L 1172 3500 
L 2356 3500 
L 2356 3053 
L 1172 3053 
L 1172 1153 
Q 1172 725 1289 603 
Q 1406 481 1766 481 
L 2356 481 
L 2356 0 
L 1766 0 
Q 1100 0 847 248 
Q 594 497 594 1153 
L 594 3053 
L 172 3053 
L 172 3500 
L 594 3500 
L 594 4494 
L 1172 4494 
z
" transform="scale(0.015625)"/>
      <path id="DejaVuSans-78" d="M 3513 3500 
L 2247 1797 
L 3578 0 
L 2900 0 
L 1881 1375 
L 863 0 
L 184 0 
L 1544 1831 
L 300 3500 
L 978 3500 
L 1906 2253 
L 2834 3500 
L 3513 3500 
z
" transform="scale(0.015625)"/>
      <path id="DejaVuSans-6f" d="M 1959 3097 
Q 1497 3097 1228 2736 
Q 959 2375 959 1747 
Q 959 1119 1226 758 
Q 1494 397 1959 397 
Q 2419 397 2687 759 
Q 2956 1122 2956 1747 
Q 2956 2369 2687 2733 
Q 2419 3097 1959 3097 
z
M 1959 3584 
Q 2709 3584 3137 3096 
Q 3566 2609 3566 1747 
Q 3566 888 3137 398 
Q 2709 -91 1959 -91 
Q 1206 -91 779 398 
Q 353 888 353 1747 
Q 353 2609 779 3096 
Q 1206 3584 1959 3584 
z
" transform="scale(0.015625)"/>
      <path id="DejaVuSans-6e" d="M 3513 2113 
L 3513 0 
L 2938 0 
L 2938 2094 
Q 2938 2591 2744 2837 
Q 2550 3084 2163 3084 
Q 1697 3084 1428 2787 
Q 1159 2491 1159 1978 
L 1159 0 
L 581 0 
L 581 3500 
L 1159 3500 
L 1159 2956 
Q 1366 3272 1645 3428 
Q 1925 3584 2291 3584 
Q 2894 3584 3203 3211 
Q 3513 2838 3513 2113 
z
" transform="scale(0.015625)"/>
      <path id="DejaVuSans-69" d="M 603 3500 
L 1178 3500 
L 1178 0 
L 603 0 
L 603 3500 
z
M 603 4863 
L 1178 4863 
L 1178 4134 
L 603 4134 
L 603 4863 
z
" transform="scale(0.015625)"/>
     </defs>
     <use xlink:href="#DejaVuSans-35"/>
     <use xlink:href="#DejaVuSans-34" x="63.623047"/>
     <use xlink:href="#DejaVuSans-20" x="127.246094"/>
     <use xlink:href="#DejaVuSans-63" x="159.033203"/>
     <use xlink:href="#DejaVuSans-6c" x="214.013672"/>
     <use xlink:href="#DejaVuSans-61" x="241.796875"/>
     <use xlink:href="#DejaVuSans-73" x="303.076172"/>
     <use xlink:href="#DejaVuSans-73" x="355.175781"/>
     <use xlink:href="#DejaVuSans-20" x="407.275391"/>
     <use xlink:href="#DejaVuSans-74" x="439.0625"/>
     <use xlink:href="#DejaVuSans-61" x="478.271484"/>
     <use xlink:href="#DejaVuSans-78" x="539.550781"/>
     <use xlink:href="#DejaVuSans-6f" x="595.605469"/>
     <use xlink:href="#DejaVuSans-6e" x="656.787109"/>
     <use xlink:href="#DejaVuSans-6f" x="720.166016"/>
     <use xlink:href="#DejaVuSans-6d" x="781.347656"/>
     <use xlink:href="#DejaVuSans-69" x="878.759766"/>
     <use xlink:href="#DejaVuSans-65" x="906.542969"/>
     <use xlink:href="#DejaVuSans-73" x="968.066406"/>
    </g>
   </g>
  </g>
  <g id="axis3d_3">
   <g id="line2d_3">
    <path d="M 600.828868 360.430763 
L 611.312828 131.487856 
" style="fill: none; stroke: #000000; stroke-width: 0.8; stroke-linecap: square"/>
   </g>
   <g id="text_3">
    <!-- Normalized MGI read depth -->
    <g transform="translate(646.090113 311.691166) rotate(-87.378092) scale(0.1 -0.1)">
     <defs>
      <path id="DejaVuSans-4e" d="M 628 4666 
L 1478 4666 
L 3547 763 
L 3547 4666 
L 4159 4666 
L 4159 0 
L 3309 0 
L 1241 3903 
L 1241 0 
L 628 0 
L 628 4666 
z
" transform="scale(0.015625)"/>
      <path id="DejaVuSans-72" d="M 2631 2963 
Q 2534 3019 2420 3045 
Q 2306 3072 2169 3072 
Q 1681 3072 1420 2755 
Q 1159 2438 1159 1844 
L 1159 0 
L 581 0 
L 581 3500 
L 1159 3500 
L 1159 2956 
Q 1341 3275 1631 3429 
Q 1922 3584 2338 3584 
Q 2397 3584 2469 3576 
Q 2541 3569 2628 3553 
L 2631 2963 
z
" transform="scale(0.015625)"/>
      <path id="DejaVuSans-7a" d="M 353 3500 
L 3084 3500 
L 3084 2975 
L 922 459 
L 3084 459 
L 3084 0 
L 275 0 
L 275 525 
L 2438 3041 
L 353 3041 
L 353 3500 
z
" transform="scale(0.015625)"/>
      <path id="DejaVuSans-64" d="M 2906 2969 
L 2906 4863 
L 3481 4863 
L 3481 0 
L 2906 0 
L 2906 525 
Q 2725 213 2448 61 
Q 2172 -91 1784 -91 
Q 1150 -91 751 415 
Q 353 922 353 1747 
Q 353 2572 751 3078 
Q 1150 3584 1784 3584 
Q 2172 3584 2448 3432 
Q 2725 3281 2906 2969 
z
M 947 1747 
Q 947 1113 1208 752 
Q 1469 391 1925 391 
Q 2381 391 2643 752 
Q 2906 1113 2906 1747 
Q 2906 2381 2643 2742 
Q 2381 3103 1925 3103 
Q 1469 3103 1208 2742 
Q 947 2381 947 1747 
z
" transform="scale(0.015625)"/>
      <path id="DejaVuSans-4d" d="M 628 4666 
L 1569 4666 
L 2759 1491 
L 3956 4666 
L 4897 4666 
L 4897 0 
L 4281 0 
L 4281 4097 
L 3078 897 
L 2444 897 
L 1241 4097 
L 1241 0 
L 628 0 
L 628 4666 
z
" transform="scale(0.015625)"/>
      <path id="DejaVuSans-47" d="M 3809 666 
L 3809 1919 
L 2778 1919 
L 2778 2438 
L 4434 2438 
L 4434 434 
Q 4069 175 3628 42 
Q 3188 -91 2688 -91 
Q 1594 -91 976 548 
Q 359 1188 359 2328 
Q 359 3472 976 4111 
Q 1594 4750 2688 4750 
Q 3144 4750 3555 4637 
Q 3966 4525 4313 4306 
L 4313 3634 
Q 3963 3931 3569 4081 
Q 3175 4231 2741 4231 
Q 1884 4231 1454 3753 
Q 1025 3275 1025 2328 
Q 1025 1384 1454 906 
Q 1884 428 2741 428 
Q 3075 428 3337 486 
Q 3600 544 3809 666 
z
" transform="scale(0.015625)"/>
      <path id="DejaVuSans-49" d="M 628 4666 
L 1259 4666 
L 1259 0 
L 628 0 
L 628 4666 
z
" transform="scale(0.015625)"/>
      <path id="DejaVuSans-68" d="M 3513 2113 
L 3513 0 
L 2938 0 
L 2938 2094 
Q 2938 2591 2744 2837 
Q 2550 3084 2163 3084 
Q 1697 3084 1428 2787 
Q 1159 2491 1159 1978 
L 1159 0 
L 581 0 
L 581 4863 
L 1159 4863 
L 1159 2956 
Q 1366 3272 1645 3428 
Q 1925 3584 2291 3584 
Q 2894 3584 3203 3211 
Q 3513 2838 3513 2113 
z
" transform="scale(0.015625)"/>
     </defs>
     <use xlink:href="#DejaVuSans-4e"/>
     <use xlink:href="#DejaVuSans-6f" x="74.804688"/>
     <use xlink:href="#DejaVuSans-72" x="135.986328"/>
     <use xlink:href="#DejaVuSans-6d" x="175.349609"/>
     <use xlink:href="#DejaVuSans-61" x="272.761719"/>
     <use xlink:href="#DejaVuSans-6c" x="334.041016"/>
     <use xlink:href="#DejaVuSans-69" x="361.824219"/>
     <use xlink:href="#DejaVuSans-7a" x="389.607422"/>
     <use xlink:href="#DejaVuSans-65" x="442.097656"/>
     <use xlink:href="#DejaVuSans-64" x="503.621094"/>
     <use xlink:href="#DejaVuSans-20" x="567.097656"/>
     <use xlink:href="#DejaVuSans-4d" x="598.884766"/>
     <use xlink:href="#DejaVuSans-47" x="685.164062"/>
     <use xlink:href="#DejaVuSans-49" x="762.654297"/>
     <use xlink:href="#DejaVuSans-20" x="792.146484"/>
     <use xlink:href="#DejaVuSans-72" x="823.933594"/>
     <use xlink:href="#DejaVuSans-65" x="862.796875"/>
     <use xlink:href="#DejaVuSans-61" x="924.320312"/>
     <use xlink:href="#DejaVuSans-64" x="985.599609"/>
     <use xlink:href="#DejaVuSans-20" x="1049.076172"/>
     <use xlink:href="#DejaVuSans-64" x="1080.863281"/>
     <use xlink:href="#DejaVuSans-65" x="1144.339844"/>
     <use xlink:href="#DejaVuSans-70" x="1205.863281"/>
     <use xlink:href="#DejaVuSans-74" x="1269.339844"/>
     <use xlink:href="#DejaVuSans-68" x="1308.548828"/>
    </g>
   </g>
  </g>
  <g id="axes_1">
   <g id="Poly3DCollection_1">
    <path d="M 300.159053 296.461087 
L 327.835914 304.600688 
L 330.609238 299.28816 
L 333.315636 284.312492 
L 305.77011 290.154678 
L 302.969434 293.420895 
z
" clip-path="url(#pa1641a498d)" style="fill: #3478af"/>
    <path d="M 338.85459 274.526899 
L 366.800088 298.728087 
L 369.540533 296.072532 
L 341.551094 256.094492 
z
" clip-path="url(#pa1641a498d)" style="fill: #683650"/>
    <path d="M 294.316165 288.180082 
L 322.112398 296.335171 
L 325.011451 304.155219 
L 327.835914 304.600688 
L 300.159053 296.461087 
L 297.324394 298.220789 
z
" clip-path="url(#pa1641a498d)" style="fill: #122a3d"/>
    <path d="M 327.835914 304.600688 
L 355.772531 312.770025 
L 358.532908 305.398675 
L 361.301818 308.23228 
L 333.315636 284.312492 
L 330.609238 299.28816 
z
" clip-path="url(#pa1641a498d)" style="fill: #c46697"/>
    <path d="M 309.627117 122.32297 
L 338.85459 274.526899 
L 341.551094 256.094492 
L 314.102034 277.427658 
z
" clip-path="url(#pa1641a498d)" style="fill: #6e3955"/>
    <path d="M 288.797182 305.366856 
L 316.586274 314.514879 
L 319.389938 309.817243 
L 322.112398 296.335171 
L 294.316165 288.180082 
L 291.659794 303.829649 
z
" clip-path="url(#pa1641a498d)" style="fill: #26577f"/>
    <path d="M 283.089352 311.167299 
L 310.907485 318.812303 
L 313.755017 317.053885 
L 316.586274 314.514879 
L 288.797182 305.366856 
L 285.952109 308.594024 
z
" clip-path="url(#pa1641a498d)" style="fill: #235075"/>
    <path d="M 366.800088 298.728087 
L 394.939507 303.452968 
L 398.019514 240.078988 
L 369.540533 296.072532 
z
" clip-path="url(#pa1641a498d)" style="fill: #dd74ab"/>
    <path d="M 305.77011 290.154678 
L 333.315636 284.312492 
L 335.375131 158.980984 
L 338.85459 274.526899 
L 309.627117 122.32297 
L 308.247581 258.717743 
z
" clip-path="url(#pa1641a498d)" style="fill: #f17eba"/>
    <path d="M 322.112398 296.335171 
L 350.050113 267.045875 
L 352.991045 313.132731 
L 355.772531 312.770025 
L 327.835914 304.600688 
L 325.011451 304.155219 
z
" clip-path="url(#pa1641a498d)" style="fill: #512a3e"/>
    <path d="M 355.772531 312.770025 
L 383.97634 320.072982 
L 386.733183 313.990128 
L 389.450328 316.095942 
L 361.301818 308.23228 
L 358.532908 305.398675 
z
" clip-path="url(#pa1641a498d)" style="fill: #d871a7"/>
    <path d="M 277.337503 316.156237 
L 305.210232 324.33695 
L 308.066109 321.875084 
L 310.907485 318.812303 
L 283.089352 311.167299 
L 280.217527 313.668096 
z
" clip-path="url(#pa1641a498d)" style="fill: #357ab3"/>
    <path d="M 316.586274 314.514879 
L 344.623638 322.80268 
L 347.420494 319.791906 
L 350.050113 267.045875 
L 322.112398 296.335171 
L 319.389938 309.817243 
z
" clip-path="url(#pa1641a498d)" style="fill: #aaaa22"/>
    <path d="M 310.907485 318.812303 
L 339.003479 327.937301 
L 341.813912 324.646317 
L 344.623638 322.80268 
L 316.586274 314.514879 
L 313.755017 317.053885 
z
" clip-path="url(#pa1641a498d)" style="fill: #a85882"/>
    <path d="M 333.315636 284.312492 
L 361.301818 308.23228 
L 363.964268 135.555669 
L 366.800088 298.728087 
L 338.85459 274.526899 
L 335.375131 158.980984 
z
" clip-path="url(#pa1641a498d)" style="fill: #db72a9"/>
    <path d="M 271.552011 321.062894 
L 299.476872 329.453059 
L 302.348079 326.938526 
L 305.210232 324.33695 
L 277.337503 316.156237 
L 274.448999 318.619685 
z
" clip-path="url(#pa1641a498d)" style="fill: #3375ab"/>
    <path d="M 383.97634 320.072982 
L 412.438597 329.686766 
L 415.224414 319.734622 
L 417.861327 324.822283 
L 389.450328 316.095942 
L 386.733183 313.990128 
z
" clip-path="url(#pa1641a498d)" style="fill: #d670a6"/>
    <path d="M 350.050113 267.045875 
L 378.55581 286.203295 
L 381.228508 321.606823 
L 383.97634 320.072982 
L 355.772531 312.770025 
L 352.991045 313.132731 
z
" clip-path="url(#pa1641a498d)" style="fill: #4f293d"/>
    <path d="M 305.210232 324.33695 
L 333.35097 332.880811 
L 336.181142 330.401474 
L 339.003479 327.937301 
L 310.907485 318.812303 
L 308.066109 321.875084 
z
" clip-path="url(#pa1641a498d)" style="fill: #97971e"/>
    <path d="M 394.939507 303.452968 
L 423.361474 310.164609 
L 426.508214 267.962067 
L 398.019514 240.078988 
z
" clip-path="url(#pa1641a498d)" style="fill: #dc73aa"/>
    <path d="M 361.301818 308.23228 
L 389.450328 316.095942 
L 392.731253 201.126924 
L 394.939507 303.452968 
L 366.800088 298.728087 
L 363.964268 135.555669 
z
" clip-path="url(#pa1641a498d)" style="fill: #db73aa"/>
    <path d="M 265.734501 326.002826 
L 293.709577 334.435447 
L 296.596447 331.882614 
L 299.476872 329.453059 
L 271.552011 321.062894 
L 268.647402 323.535453 
z
" clip-path="url(#pa1641a498d)" style="fill: #3374a9"/>
    <path d="M 339.003479 327.937301 
L 367.358291 336.239819 
L 370.147251 332.694094 
L 372.927099 331.231354 
L 344.623638 322.80268 
L 341.813912 324.646317 
z
" clip-path="url(#pa1641a498d)" style="fill: #df75ad"/>
    <path d="M 344.623638 322.80268 
L 372.927099 331.231354 
L 375.701886 327.588611 
L 378.55581 286.203295 
L 350.050113 267.045875 
L 347.420494 319.791906 
z
" clip-path="url(#pa1641a498d)" style="fill: #a2557e"/>
    <path d="M 299.476872 329.453059 
L 327.66742 337.934562 
L 330.513056 335.39129 
L 333.35097 332.880811 
L 305.210232 324.33695 
L 302.348079 326.938526 
z
" clip-path="url(#pa1641a498d)" style="fill: #b5b524"/>
    <path d="M 423.361474 310.164609 
L 452.164268 311.262405 
L 454.942897 302.248773 
L 426.508214 267.962067 
z
" clip-path="url(#pa1641a498d)" style="fill: #f27ebb"/>
    <path d="M 378.55581 286.203295 
L 407.167873 311.255718 
L 409.723333 331.23003 
L 412.438597 329.686766 
L 383.97634 320.072982 
L 381.228508 321.606823 
z
" clip-path="url(#pa1641a498d)" style="fill: #4f293d"/>
    <path d="M 412.438597 329.686766 
L 441.177421 338.045975 
L 443.892299 333.777819 
L 446.572542 331.381876 
L 417.861327 324.822283 
L 415.224414 319.734622 
z
" clip-path="url(#pa1641a498d)" style="fill: #d971a8"/>
    <path d="M 259.884226 330.952163 
L 287.908875 339.37185 
L 290.813751 336.93072 
L 293.709577 334.435447 
L 265.734501 326.002826 
L 262.813679 328.486106 
z
" clip-path="url(#pa1641a498d)" style="fill: #18364f"/>
    <path d="M 333.35097 332.880811 
L 361.758379 341.33781 
L 364.562268 338.872579 
L 367.358291 336.239819 
L 339.003479 327.937301 
L 336.181142 330.401474 
z
" clip-path="url(#pa1641a498d)" style="fill: #914c70"/>
    <path d="M 389.450328 316.095942 
L 417.861327 324.822283 
L 422.198796 165.586856 
L 423.361474 310.164609 
L 394.939507 303.452968 
L 392.731253 201.126924 
z
" clip-path="url(#pa1641a498d)" style="fill: #dc73aa"/>
    <path d="M 293.709577 334.435447 
L 321.951489 342.944595 
L 324.813467 340.436925 
L 327.66742 337.934562 
L 299.476872 329.453059 
L 296.596447 331.882614 
z
" clip-path="url(#pa1641a498d)" style="fill: #9a9a1f"/>
    <path d="M 372.927099 331.231354 
L 401.50088 339.586722 
L 404.246295 337.172225 
L 407.167873 311.255718 
L 378.55581 286.203295 
L 375.701886 327.588611 
z
" clip-path="url(#pa1641a498d)" style="fill: #a1547c"/>
    <path d="M 254.000484 335.894415 
L 282.076904 344.423878 
L 284.997759 341.943787 
L 287.908875 339.37185 
L 259.884226 330.952163 
L 256.9471 333.44927 
z
" clip-path="url(#pa1641a498d)" style="fill: #12293c"/>
    <path d="M 367.358291 336.239819 
L 395.984691 344.776323 
L 398.748621 341.855214 
L 401.50088 339.586722 
L 372.927099 331.231354 
L 370.147251 332.694094 
z
" clip-path="url(#pa1641a498d)" style="fill: #884691"/>
    <path d="M 327.66742 337.934562 
L 356.127149 346.451317 
L 358.946676 343.878035 
L 361.758379 341.33781 
L 333.35097 332.880811 
L 330.513056 335.39129 
z
" clip-path="url(#pa1641a498d)" style="fill: #f9f932"/>
    <path d="M 407.167873 311.255718 
L 436.105374 318.737069 
L 438.500731 339.179662 
L 441.177421 338.045975 
L 412.438597 329.686766 
L 409.723333 331.23003 
z
" clip-path="url(#pa1641a498d)" style="fill: #4f293d"/>
    <path d="M 441.177421 338.045975 
L 470.197182 346.242768 
L 472.907759 341.303823 
L 475.524905 340.544243 
L 446.572542 331.381876 
L 443.892299 333.777819 
z
" clip-path="url(#pa1641a498d)" style="fill: #ec7bb7"/>
    <path d="M 287.908875 339.37185 
L 316.203492 347.994597 
L 319.081535 345.466869 
L 321.951489 342.944595 
L 293.709577 334.435447 
L 290.813751 336.93072 
z
" clip-path="url(#pa1641a498d)" style="fill: #525210"/>
    <path d="M 248.084904 340.917422 
L 276.211952 349.493316 
L 279.147889 346.916598 
L 282.076904 344.423878 
L 254.000484 335.894415 
L 251.047442 338.429631 
z
" clip-path="url(#pa1641a498d)" style="fill: #3376ac"/>
    <path d="M 361.758379 341.33781 
L 390.437978 349.950326 
L 393.214615 347.473922 
L 395.984691 344.776323 
L 367.358291 336.239819 
L 364.562268 338.872579 
z
" clip-path="url(#pa1641a498d)" style="fill: #80801a"/>
    <path d="M 401.50088 339.586722 
L 430.348397 348.11544 
L 433.079251 344.645044 
L 436.105374 318.737069 
L 407.167873 311.255718 
L 404.246295 337.172225 
z
" clip-path="url(#pa1641a498d)" style="fill: #a4567f"/>
    <path d="M 321.951489 342.944595 
L 350.464171 351.54153 
L 353.299613 348.983111 
L 356.127149 346.451317 
L 327.66742 337.934562 
L 324.813467 340.436925 
z
" clip-path="url(#pa1641a498d)" style="fill: #d8d82b"/>
    <path d="M 282.076904 344.423878 
L 310.422778 353.04684 
L 313.317219 350.517675 
L 316.203492 347.994597 
L 287.908875 339.37185 
L 284.997759 341.943787 
z
" clip-path="url(#pa1641a498d)" style="fill: #81811a"/>
    <path d="M 395.984691 344.776323 
L 424.886786 353.303121 
L 427.624406 350.453512 
L 430.348397 348.11544 
L 401.50088 339.586722 
L 398.748621 341.855214 
z
" clip-path="url(#pa1641a498d)" style="fill: #e779b3"/>
    <path d="M 452.164268 311.262405 
L 483.34609 221.279033 
L 484.001129 308.359341 
L 454.942897 302.248773 
z
" clip-path="url(#pa1641a498d)" style="fill: #a4567f"/>
    <path d="M 417.861327 324.822283 
L 446.572542 331.381876 
L 452.062575 153.277848 
L 452.164268 311.262405 
L 423.361474 310.164609 
L 422.198796 165.586856 
z
" clip-path="url(#pa1641a498d)" style="fill: #dc73aa"/>
    <path d="M 242.136369 345.979246 
L 270.313986 354.595454 
L 273.266816 352.024033 
L 276.211952 349.493316 
L 248.084904 340.917422 
L 245.114353 343.425849 
z
" clip-path="url(#pa1641a498d)" style="fill: #df191b"/>
    <path d="M 356.127149 346.451317 
L 384.86038 355.09759 
L 387.653141 352.509277 
L 390.437978 349.950326 
L 361.758379 341.33781 
L 358.946676 343.878035 
z
" clip-path="url(#pa1641a498d)" style="fill: #c5c527"/>
    <path d="M 436.105374 318.737069 
L 465.307354 327.611017 
L 467.637354 343.267241 
L 470.197182 346.242768 
L 441.177421 338.045975 
L 438.500731 339.179662 
z
" clip-path="url(#pa1641a498d)" style="fill: #532b40"/>
    <path d="M 316.203492 347.994597 
L 344.768876 356.579117 
L 347.620638 354.077888 
L 350.464171 351.54153 
L 321.951489 342.944595 
L 319.081535 345.466869 
z
" clip-path="url(#pa1641a498d)" style="fill: #f9f932"/>
    <path d="M 470.197182 346.242768 
L 499.678365 347.635123 
L 502.323547 344.727756 
L 504.730399 350.412929 
L 475.524905 340.544243 
L 472.907759 341.303823 
z
" clip-path="url(#pa1641a498d)" style="fill: #dd73ab"/>
    <path d="M 276.211952 349.493316 
L 304.609643 358.155943 
L 307.520045 355.574499 
L 310.422778 353.04684 
L 282.076904 344.423878 
L 279.147889 346.916598 
z
" clip-path="url(#pa1641a498d)" style="fill: #f27ebb"/>
    <path d="M 390.437978 349.950326 
L 419.394808 358.489588 
L 422.14259 356.083678 
L 424.886786 353.303121 
L 395.984691 344.776323 
L 393.214615 347.473922 
z
" clip-path="url(#pa1641a498d)" style="fill: #914c70"/>
    <path d="M 236.153514 351.036125 
L 264.382289 359.707978 
L 267.352045 357.133362 
L 270.313986 354.595454 
L 242.136369 345.979246 
L 239.149134 348.503367 
z
" clip-path="url(#pa1641a498d)" style="fill: #2f6b9d"/>
    <path d="M 350.464171 351.54153 
L 379.251457 360.216441 
L 382.059933 357.636977 
L 384.86038 355.09759 
L 356.127149 346.451317 
L 353.299613 348.983111 
z
" clip-path="url(#pa1641a498d)" style="fill: #3579b1"/>
    <path d="M 430.348397 348.11544 
L 459.475293 356.639178 
L 462.238341 350.202923 
L 465.307354 327.611017 
L 436.105374 318.737069 
L 433.079251 344.645044 
z
" clip-path="url(#pa1641a498d)" style="fill: #b05c88"/>
    <path d="M 310.422778 353.04684 
L 339.041636 361.733413 
L 341.90938 359.168911 
L 344.768876 356.579117 
L 316.203492 347.994597 
L 313.317219 350.517675 
z
" clip-path="url(#pa1641a498d)" style="fill: #b1b123"/>
    <path d="M 424.886786 353.303121 
L 454.066281 362.046426 
L 456.783951 358.804524 
L 459.475293 356.639178 
L 430.348397 348.11544 
L 427.624406 350.453512 
z
" clip-path="url(#pa1641a498d)" style="fill: #e075ad"/>
    <path d="M 446.572542 331.381876 
L 475.524905 340.544243 
L 479.042732 297.85584 
L 483.34609 221.279033 
L 452.164268 311.262405 
L 452.062575 153.277848 
z
" clip-path="url(#pa1641a498d)" style="fill: #e678b2"/>
    <path d="M 270.313986 354.595454 
L 298.763555 363.29588 
L 301.688286 360.52976 
L 304.609643 358.155943 
L 276.211952 349.493316 
L 273.266816 352.024033 
z
" clip-path="url(#pa1641a498d)" style="fill: #e4e42e"/>
    <path d="M 475.524905 340.544243 
L 504.730399 350.412929 
L 509.05893 285.489547 
L 510.006034 343.594387 
L 483.34609 221.279033 
L 479.042732 297.85584 
z
" clip-path="url(#pa1641a498d)" style="fill: #de74ac"/>
    <path d="M 384.86038 355.09759 
L 413.870915 363.804166 
L 416.636472 361.169268 
L 419.394808 358.489588 
L 390.437978 349.950326 
L 387.653141 352.509277 
z
" clip-path="url(#pa1641a498d)" style="fill: #fafa32"/>
    <path d="M 510.006034 343.594387 
L 539.580221 349.007855 
L 542.258766 343.456484 
L 515.157934 251.402808 
z
" clip-path="url(#pa1641a498d)" style="fill: #f27ebb"/>
    <path d="M 230.137069 356.130733 
L 258.416891 364.849026 
L 261.403631 362.26574 
L 264.382289 359.707978 
L 236.153514 351.036125 
L 233.149595 353.582116 
z
" clip-path="url(#pa1641a498d)" style="fill: #d6181a"/>
    <path d="M 344.768876 356.579117 
L 373.610838 365.241793 
L 376.43512 362.75744 
L 379.251457 360.216441 
L 350.464171 351.54153 
L 347.620638 354.077888 
z
" clip-path="url(#pa1641a498d)" style="fill: #16334b"/>
    <path d="M 499.678365 347.635123 
L 529.050616 364.100332 
L 531.736537 358.943964 
L 534.25939 358.625792 
L 504.730399 350.412929 
L 502.323547 344.727756 
z
" clip-path="url(#pa1641a498d)" style="fill: #582e44"/>
    <path d="M 304.609643 358.155943 
L 333.281813 366.903891 
L 336.165906 364.331303 
L 339.041636 361.733413 
L 310.422778 353.04684 
L 307.520045 355.574499 
z
" clip-path="url(#pa1641a498d)" style="fill: #777718"/>
    <path d="M 465.307354 327.611017 
L 495.720995 299.140557 
L 497.065119 349.01475 
L 499.678365 347.635123 
L 470.197182 346.242768 
L 467.637354 343.267241 
z
" clip-path="url(#pa1641a498d)" style="fill: #592f45"/>
    <path d="M 483.34609 221.279033 
L 510.006034 343.594387 
L 515.157934 251.402808 
L 484.001129 308.359341 
z
" clip-path="url(#pa1641a498d)" style="fill: #974f75"/>
    <path d="M 419.394808 358.489588 
L 448.632369 367.155204 
L 451.351178 364.719016 
L 454.066281 362.046426 
L 424.886786 353.303121 
L 422.14259 356.083678 
z
" clip-path="url(#pa1641a498d)" style="fill: #7f4363"/>
    <path d="M 539.580221 349.007855 
L 569.70858 348.641569 
L 572.275943 345.644871 
L 542.258766 343.456484 
z
" clip-path="url(#pa1641a498d)" style="fill: #dd73ab"/>
    <path d="M 264.382289 359.707978 
L 292.883909 368.44406 
L 295.828049 365.876092 
L 298.763555 363.29588 
L 270.313986 354.595454 
L 267.352045 357.133362 
z
" clip-path="url(#pa1641a498d)" style="fill: #fefe33"/>
    <path d="M 379.251457 360.216441 
L 408.31733 368.981072 
L 411.098135 366.380859 
L 413.870915 363.804166 
L 384.86038 355.09759 
L 382.059933 357.636977 
z
" clip-path="url(#pa1641a498d)" style="fill: #ed7cb8"/>
    <path d="M 224.086142 361.240492 
L 252.417183 370.00468 
L 255.421178 367.417266 
L 258.416891 364.849026 
L 230.137069 356.130733 
L 227.115973 358.685041 
z
" clip-path="url(#pa1641a498d)" style="fill: #295f8a"/>
    <path d="M 339.041636 361.733413 
L 367.937773 370.491074 
L 370.778286 367.904941 
L 373.610838 365.241793 
L 344.768876 356.579117 
L 341.90938 359.168911 
z
" clip-path="url(#pa1641a498d)" style="fill: #7f4188"/>
    <path d="M 454.066281 362.046426 
L 483.530403 370.76788 
L 486.205528 368.255697 
L 488.874005 365.707404 
L 459.475293 356.639178 
L 456.783951 358.804524 
z
" clip-path="url(#pa1641a498d)" style="fill: #9b5178"/>
    <path d="M 459.475293 356.639178 
L 488.874005 365.707404 
L 491.533531 363.221278 
L 495.720995 299.140557 
L 465.307354 327.611017 
L 462.238341 350.202923 
z
" clip-path="url(#pa1641a498d)" style="fill: #a4a421"/>
    <path d="M 298.763555 363.29588 
L 327.489057 372.087456 
L 330.389476 369.480542 
L 333.281813 366.903891 
L 304.609643 358.155943 
L 301.688286 360.52976 
z
" clip-path="url(#pa1641a498d)" style="fill: #fbfb32"/>
    <path d="M 413.870915 363.804166 
L 443.162815 372.596647 
L 445.900169 369.952633 
L 448.632369 367.155204 
L 419.394808 358.489588 
L 416.636472 361.169268 
z
" clip-path="url(#pa1641a498d)" style="fill: #2a618d"/>
    <path d="M 529.050616 364.100332 
L 558.919919 372.656954 
L 561.494601 370.00865 
L 564.054055 367.573604 
L 534.25939 358.625792 
L 531.736537 358.943964 
z
" clip-path="url(#pa1641a498d)" style="fill: #f17eba"/>
    <path d="M 258.416891 364.849026 
L 286.971159 373.652654 
L 289.931844 371.051467 
L 292.883909 368.44406 
L 264.382289 359.707978 
L 261.403631 362.26574 
z
" clip-path="url(#pa1641a498d)" style="fill: #f6f631"/>
    <path d="M 504.730399 350.412929 
L 534.25939 358.625792 
L 542.880913 174.582659 
L 539.580221 349.007855 
L 510.006034 343.594387 
L 509.05893 285.489547 
z
" clip-path="url(#pa1641a498d)" style="fill: #da72a9"/>
    <path d="M 373.610838 365.241793 
L 402.733161 374.032039 
L 405.529105 371.523885 
L 408.31733 368.981072 
L 379.251457 360.216441 
L 376.43512 362.75744 
z
" clip-path="url(#pa1641a498d)" style="fill: #5e5e13"/>
    <path d="M 218.001324 366.397653 
L 246.383674 375.211228 
L 249.404933 372.613136 
L 252.417183 370.00468 
L 224.086142 361.240492 
L 221.048179 363.819994 
z
" clip-path="url(#pa1641a498d)" style="fill: #9c1213"/>
    <path d="M 333.281813 366.903891 
L 362.232427 375.732269 
L 365.089163 373.121561 
L 367.937773 370.491074 
L 339.041636 361.733413 
L 336.165906 364.331303 
z
" clip-path="url(#pa1641a498d)" style="fill: #26577f"/>
    <path d="M 448.632369 367.155204 
L 478.148537 376.19959 
L 480.841807 373.54443 
L 483.530403 370.76788 
L 454.066281 362.046426 
L 451.351178 364.719016 
z
" clip-path="url(#pa1641a498d)" style="fill: #5f3249"/>
    <path d="M 495.720995 299.140557 
L 525.146438 326.277252 
L 526.478017 365.485762 
L 529.050616 364.100332 
L 499.678365 347.635123 
L 497.065119 349.01475 
z
" clip-path="url(#pa1641a498d)" style="fill: #502a3e"/>
    <path d="M 292.883909 368.44406 
L 321.663206 377.303942 
L 324.580316 374.695252 
L 327.489057 372.087456 
L 298.763555 363.29588 
L 295.828049 365.876092 
z
" clip-path="url(#pa1641a498d)" style="fill: #572d43"/>
    <path d="M 408.31733 368.981072 
L 437.666084 377.81298 
L 440.418639 375.182718 
L 443.162815 372.596647 
L 413.870915 363.804166 
L 411.098135 366.380859 
z
" clip-path="url(#pa1641a498d)" style="fill: #f0f030"/>
    <path d="M 252.417183 370.00468 
L 281.023987 378.854222 
L 284.001889 376.253475 
L 286.971159 373.652654 
L 258.416891 364.849026 
L 255.421178 367.417266 
z
" clip-path="url(#pa1641a498d)" style="fill: #616113"/>
    <path d="M 367.937773 370.491074 
L 397.115407 379.330086 
L 399.927968 376.725029 
L 402.733161 374.032039 
L 373.610838 365.241793 
L 370.778286 367.904941 
z
" clip-path="url(#pa1641a498d)" style="fill: #ad5b86"/>
    <path d="M 483.530403 370.76788 
L 513.276434 379.771453 
L 515.931848 376.880543 
L 518.567528 374.415184 
L 488.874005 365.707404 
L 486.205528 368.255697 
z
" clip-path="url(#pa1641a498d)" style="fill: #c7689a"/>
    <path d="M 211.88137 371.568896 
L 240.315411 380.439319 
L 243.353941 377.823988 
L 246.383674 375.211228 
L 218.001324 366.397653 
L 214.945522 368.973476 
z
" clip-path="url(#pa1641a498d)" style="fill: #17344c"/>
    <path d="M 327.489057 372.087456 
L 356.494399 380.966417 
L 359.36752 378.347402 
L 362.232427 375.732269 
L 333.281813 366.903891 
L 330.389476 369.480542 
z
" clip-path="url(#pa1641a498d)" style="fill: #1b3e5a"/>
    <path d="M 488.874005 365.707404 
L 518.567528 374.415184 
L 521.247254 370.24925 
L 525.146438 326.277252 
L 495.720995 299.140557 
L 491.533531 363.221278 
z
" clip-path="url(#pa1641a498d)" style="fill: #a3557e"/>
    <path d="M 443.162815 372.596647 
L 472.740747 381.448478 
L 475.45001 378.749858 
L 478.148537 376.19959 
L 448.632369 367.155204 
L 445.900169 369.952633 
z
" clip-path="url(#pa1641a498d)" style="fill: #d6d62b"/>
    <path d="M 525.146438 326.277252 
L 554.050251 369.758527 
L 556.341437 375.218572 
L 558.919919 372.656954 
L 529.050616 364.100332 
L 526.478017 365.485762 
z
" clip-path="url(#pa1641a498d)" style="fill: #4f293d"/>
    <path d="M 286.971159 373.652654 
L 315.803886 382.543767 
L 318.73771 379.916822 
L 321.663206 377.303942 
L 292.883909 368.44406 
L 289.931844 371.051467 
z
" clip-path="url(#pa1641a498d)" style="fill: #aa5984"/>
    <path d="M 402.733161 374.032039 
L 432.137947 383.049449 
L 434.905895 380.433501 
L 437.666084 377.81298 
L 408.31733 368.981072 
L 405.529105 371.523885 
z
" clip-path="url(#pa1641a498d)" style="fill: #12283b"/>
    <path d="M 246.383674 375.211228 
L 275.043231 384.118913 
L 278.03805 381.491947 
L 281.023987 378.854222 
L 252.417183 370.00468 
L 249.404933 372.613136 
z
" clip-path="url(#pa1641a498d)" style="fill: #8e8e1c"/>
    <path d="M 362.232427 375.732269 
L 391.465646 384.641167 
L 394.294451 382.001919 
L 397.115407 379.330086 
L 367.937773 370.491074 
L 365.089163 373.121561 
z
" clip-path="url(#pa1641a498d)" style="fill: #bd6392"/>
    <path d="M 478.148537 376.19959 
L 507.958397 385.043772 
L 510.619335 382.470667 
L 513.276434 379.771453 
L 483.530403 370.76788 
L 480.841807 373.54443 
z
" clip-path="url(#pa1641a498d)" style="fill: #a55680"/>
    <path d="M 205.726697 376.77892 
L 234.212388 385.701593 
L 237.268245 383.065519 
L 240.315411 380.439319 
L 211.88137 371.568896 
L 208.808568 374.174786 
z
" clip-path="url(#pa1641a498d)" style="fill: #d2d22a"/>
    <path d="M 321.663206 377.303942 
L 350.723377 386.223625 
L 353.613033 383.592877 
L 356.494399 380.966417 
L 327.489057 372.087456 
L 324.580316 374.695252 
z
" clip-path="url(#pa1641a498d)" style="fill: #bb1517"/>
    <path d="M 437.666084 377.81298 
L 467.301576 386.74382 
L 470.025175 384.086487 
L 472.740747 381.448478 
L 443.162815 372.596647 
L 440.418639 375.182718 
z
" clip-path="url(#pa1641a498d)" style="fill: #3272a6"/>
    <path d="M 518.567528 374.415184 
L 548.558148 383.03686 
L 551.14476 380.844791 
L 554.050251 369.758527 
L 525.146438 326.277252 
L 521.247254 370.24925 
z
" clip-path="url(#pa1641a498d)" style="fill: #a0547c"/>
    <path d="M 281.023987 378.854222 
L 309.910749 387.803864 
L 312.861534 385.168393 
L 315.803886 382.543767 
L 286.971159 373.652654 
L 284.001889 376.253475 
z
" clip-path="url(#pa1641a498d)" style="fill: #595912"/>
    <path d="M 397.115407 379.330086 
L 426.578304 388.288957 
L 429.361759 385.695393 
L 432.137947 383.049449 
L 402.733161 374.032039 
L 399.927968 376.725029 
z
" clip-path="url(#pa1641a498d)" style="fill: #1c415f"/>
    <path d="M 513.276434 379.771453 
L 543.31633 388.734531 
L 545.932443 386.121664 
L 548.558148 383.03686 
L 518.567528 374.415184 
L 515.931848 376.880543 
z
" clip-path="url(#pa1641a498d)" style="fill: #8e4a6e"/>
    <path d="M 240.315411 380.439319 
L 269.027747 389.396711 
L 272.039727 386.749456 
L 275.043231 384.118913 
L 246.383674 375.211228 
L 243.353941 377.823988 
z
" clip-path="url(#pa1641a498d)" style="fill: #e7e72e"/>
    <path d="M 356.494399 380.966417 
L 385.783682 389.928046 
L 388.628778 387.273621 
L 391.465646 384.641167 
L 362.232427 375.732269 
L 359.36752 378.347402 
z
" clip-path="url(#pa1641a498d)" style="fill: #eded2f"/>
    <path d="M 472.740747 381.448478 
L 502.607343 390.436856 
L 505.286228 387.753404 
L 507.958397 385.043772 
L 478.148537 376.19959 
L 475.45001 378.749858 
z
" clip-path="url(#pa1641a498d)" style="fill: #fbfb32"/>
    <path d="M 199.536638 382.015742 
L 228.073817 390.979914 
L 231.147548 388.337991 
L 234.212388 385.701593 
L 205.726697 376.77892 
L 202.635999 379.390513 
z
" clip-path="url(#pa1641a498d)" style="fill: #3171a6"/>
    <path d="M 315.803886 382.543767 
L 344.919122 391.520659 
L 347.825423 388.868261 
L 350.723377 386.223625 
L 321.663206 377.303942 
L 318.73771 379.916822 
z
" clip-path="url(#pa1641a498d)" style="fill: #cc1719"/>
    <path d="M 432.137947 383.049449 
L 461.832195 392.011659 
L 464.570445 389.393908 
L 467.301576 386.74382 
L 437.666084 377.81298 
L 434.905895 380.433501 
z
" clip-path="url(#pa1641a498d)" style="fill: #592f45"/>
    <path d="M 534.25939 358.625792 
L 564.054055 367.573604 
L 575.228508 144.806914 
L 569.70858 348.641569 
L 539.580221 349.007855 
L 542.880913 174.582659 
z
" clip-path="url(#pa1641a498d)" style="fill: #db72a9"/>
    <path d="M 275.043231 384.118913 
L 303.983591 393.094328 
L 306.951616 390.460104 
L 309.910749 387.803864 
L 281.023987 378.854222 
L 278.03805 381.491947 
z
" clip-path="url(#pa1641a498d)" style="fill: #9a9a1f"/>
    <path d="M 391.465646 384.641167 
L 420.985721 393.632151 
L 423.785956 390.963354 
L 426.578304 388.288957 
L 397.115407 379.330086 
L 394.294451 382.001919 
z
" clip-path="url(#pa1641a498d)" style="fill: #2c6593"/>
    <path d="M 507.958397 385.043772 
L 538.057005 394.11208 
L 540.687397 391.508291 
L 543.31633 388.734531 
L 513.276434 379.771453 
L 510.619335 382.470667 
z
" clip-path="url(#pa1641a498d)" style="fill: #6b3853"/>
    <path d="M 234.212388 385.701593 
L 262.977566 394.70698 
L 266.007051 392.049766 
L 269.027747 389.396711 
L 240.315411 380.439319 
L 237.268245 383.065519 
z
" clip-path="url(#pa1641a498d)" style="fill: #2b628f"/>
    <path d="M 350.723377 386.223625 
L 380.068957 395.228157 
L 382.930421 392.581477 
L 385.783682 389.928046 
L 356.494399 380.966417 
L 353.613033 383.592877 
z
" clip-path="url(#pa1641a498d)" style="fill: #565611"/>
    <path d="M 467.301576 386.74382 
L 497.228429 395.750865 
L 499.921829 393.087604 
L 502.607343 390.436856 
L 472.740747 381.448478 
L 470.025175 384.086487 
z
" clip-path="url(#pa1641a498d)" style="fill: #cf6ca0"/>
    <path d="M 193.311085 387.285758 
L 221.900296 396.307991 
L 224.991594 393.643227 
L 228.073817 390.979914 
L 199.536638 382.015742 
L 196.428381 384.648505 
z
" clip-path="url(#pa1641a498d)" style="fill: #e21a1c"/>
    <path d="M 309.910749 387.803864 
L 339.081243 396.832936 
L 342.004408 394.175236 
L 344.919122 391.520659 
L 315.803886 382.543767 
L 312.861534 385.168393 
z
" clip-path="url(#pa1641a498d)" style="fill: #132b3f"/>
    <path d="M 426.578304 388.288957 
L 456.330748 397.331724 
L 459.084802 394.703138 
L 461.832195 392.011659 
L 432.137947 383.049449 
L 429.361759 385.695393 
z
" clip-path="url(#pa1641a498d)" style="fill: #331a36"/>
    <path d="M 269.027747 389.396711 
L 298.02243 398.43854 
L 301.007483 395.775776 
L 303.983591 393.094328 
L 275.043231 384.118913 
L 272.039727 386.749456 
z
" clip-path="url(#pa1641a498d)" style="fill: #636314"/>
    <path d="M 385.783682 389.928046 
L 415.361153 398.975506 
L 418.180086 396.044345 
L 420.985721 393.632151 
L 391.465646 384.641167 
L 388.628778 387.273621 
z
" clip-path="url(#pa1641a498d)" style="fill: #e2e22d"/>
    <path d="M 502.607343 390.436856 
L 532.768359 399.490764 
L 535.417394 396.770438 
L 538.057005 394.11208 
L 507.958397 385.043772 
L 505.286228 387.753404 
z
" clip-path="url(#pa1641a498d)" style="fill: #d46fa4"/>
    <path d="M 228.073817 390.979914 
L 256.892393 400.049914 
L 259.939318 397.371757 
L 262.977566 394.70698 
L 234.212388 385.701593 
L 231.147548 388.337991 
z
" clip-path="url(#pa1641a498d)" style="fill: #626214"/>
    <path d="M 344.919122 391.520659 
L 374.321061 400.585948 
L 377.199152 397.90751 
L 380.068957 395.228157 
L 350.723377 386.223625 
L 347.825423 388.868261 
z
" clip-path="url(#pa1641a498d)" style="fill: #cb1719"/>
    <path d="M 461.832195 392.011659 
L 491.817945 401.111875 
L 494.52679 398.43964 
L 497.228429 395.750865 
L 467.301576 386.74382 
L 464.570445 389.393908 
z
" clip-path="url(#pa1641a498d)" style="fill: #522b3f"/>
    <path d="M 187.049524 392.58308 
L 215.690682 401.655735 
L 218.799728 398.96928 
L 221.900296 396.307991 
L 193.311085 387.285758 
L 190.184812 389.930605 
z
" clip-path="url(#pa1641a498d)" style="fill: #ca1719"/>
    <path d="M 303.983591 393.094328 
L 333.209539 402.182517 
L 336.149694 399.512648 
L 339.081243 396.832936 
L 309.910749 387.803864 
L 306.951616 390.460104 
z
" clip-path="url(#pa1641a498d)" style="fill: #132c40"/>
    <path d="M 420.985721 393.632151 
L 450.796762 402.720241 
L 453.567997 400.007783 
L 456.330748 397.331724 
L 426.578304 388.288957 
L 423.785956 390.963354 
z
" clip-path="url(#pa1641a498d)" style="fill: #ed7cb7"/>
    <path d="M 262.977566 394.70698 
L 292.026611 403.807118 
L 295.028908 401.122248 
L 298.02243 398.43854 
L 269.027747 389.396711 
L 266.007051 392.049766 
z
" clip-path="url(#pa1641a498d)" style="fill: #737317"/>
    <path d="M 380.068957 395.228157 
L 409.704027 404.341736 
L 412.53672 401.651257 
L 415.361153 398.975506 
L 385.783682 389.928046 
L 382.930421 392.581477 
z
" clip-path="url(#pa1641a498d)" style="fill: #153046"/>
    <path d="M 497.228429 395.750865 
L 527.449754 404.879748 
L 530.113212 402.171851 
L 532.768359 399.490764 
L 502.607343 390.436856 
L 499.921829 393.087604 
z
" clip-path="url(#pa1641a498d)" style="fill: #5a5a12"/>
    <path d="M 221.900296 396.307991 
L 250.771838 405.42179 
L 253.83654 402.731387 
L 256.892393 400.049914 
L 228.073817 390.979914 
L 224.991594 393.643227 
z
" clip-path="url(#pa1641a498d)" style="fill: #a4a421"/>
    <path d="M 339.081243 396.832936 
L 368.539814 405.952653 
L 371.434632 403.265407 
L 374.321061 400.585948 
L 344.919122 391.520659 
L 342.004408 394.175236 
z
" clip-path="url(#pa1641a498d)" style="fill: #626214"/>
    <path d="M 456.330748 397.331724 
L 486.377586 406.439059 
L 489.101157 403.795112 
L 491.817945 401.111875 
L 461.832195 392.011659 
L 459.084802 394.703138 
z
" clip-path="url(#pa1641a498d)" style="fill: #63344c"/>
    <path d="M 180.751123 397.894051 
L 209.444986 407.035089 
L 212.572386 404.34216 
L 215.690682 401.655735 
L 187.049524 392.58308 
L 183.905182 395.243214 
z
" clip-path="url(#pa1641a498d)" style="fill: #122a3d"/>
    <path d="M 298.02243 398.43854 
L 327.303799 407.577633 
L 330.260977 404.879622 
L 333.209539 402.182517 
L 303.983591 393.094328 
L 301.007483 395.775776 
z
" clip-path="url(#pa1641a498d)" style="fill: #204a6d"/>
    <path d="M 415.361153 398.975506 
L 445.23119 408.105973 
L 448.01804 405.407719 
L 450.796762 402.720241 
L 420.985721 393.632151 
L 418.180086 396.044345 
z
" clip-path="url(#pa1641a498d)" style="fill: #367cb5"/>
    <path d="M 256.892393 400.049914 
L 285.995757 409.19698 
L 289.015591 406.499789 
L 292.026611 403.807118 
L 262.977566 394.70698 
L 259.939318 397.371757 
z
" clip-path="url(#pa1641a498d)" style="fill: #98981e"/>
    <path d="M 374.321061 400.585948 
L 404.014058 409.727583 
L 406.86312 407.038289 
L 409.704027 404.341736 
L 380.068957 395.228157 
L 377.199152 397.90751 
z
" clip-path="url(#pa1641a498d)" style="fill: #981113"/>
    <path d="M 491.817945 401.111875 
L 522.105851 410.116695 
L 524.780385 407.537453 
L 527.449754 404.879748 
L 497.228429 395.750865 
L 494.52679 398.43964 
z
" clip-path="url(#pa1641a498d)" style="fill: #8f4a9a"/>
    <path d="M 215.690682 401.655735 
L 244.615547 410.821355 
L 247.698179 408.118055 
L 250.771838 405.42179 
L 221.900296 396.307991 
L 218.799728 398.96928 
z
" clip-path="url(#pa1641a498d)" style="fill: #132c40"/>
    <path d="M 333.209539 402.182517 
L 362.724865 411.350643 
L 365.636572 408.655442 
L 368.539814 405.952653 
L 339.081243 396.832936 
L 336.149694 399.512648 
z
" clip-path="url(#pa1641a498d)" style="fill: #153046"/>
    <path d="M 450.796762 402.720241 
L 480.903246 411.893373 
L 483.644386 409.162261 
L 486.377586 406.439059 
L 456.330748 397.331724 
L 453.567997 400.007783 
z
" clip-path="url(#pa1641a498d)" style="fill: #f7f731"/>
    <path d="M 174.417434 403.269911 
L 203.162951 412.448157 
L 206.308655 409.74134 
L 209.444986 407.035089 
L 180.751123 397.894051 
L 177.589176 400.586596 
z
" clip-path="url(#pa1641a498d)" style="fill: #961112"/>
    <path d="M 292.026611 403.807118 
L 321.363551 412.993384 
L 324.337985 410.279994 
L 327.303799 407.577633 
L 298.02243 398.43854 
L 295.028908 401.122248 
z
" clip-path="url(#pa1641a498d)" style="fill: #be1617"/>
    <path d="M 409.704027 404.341736 
L 439.632994 413.533995 
L 442.436127 410.818568 
L 445.23119 408.105973 
L 415.361153 398.975506 
L 412.53672 401.651257 
z
" clip-path="url(#pa1641a498d)" style="fill: #f4f431"/>
    <path d="M 250.771838 405.42179 
L 279.92981 414.624948 
L 282.967229 411.90867 
L 285.995757 409.19698 
L 256.892393 400.049914 
L 253.83654 402.731387 
z
" clip-path="url(#pa1641a498d)" style="fill: #245379"/>
    <path d="M 368.539814 405.952653 
L 398.290737 415.162358 
L 401.156562 412.441594 
L 404.014058 409.727583 
L 374.321061 400.585948 
L 371.434632 403.265407 
z
" clip-path="url(#pa1641a498d)" style="fill: #275983"/>
    <path d="M 486.377586 406.439059 
L 516.723057 415.631949 
L 519.416724 412.924388 
L 522.105851 410.116695 
L 491.817945 401.111875 
L 489.101157 403.795112 
z
" clip-path="url(#pa1641a498d)" style="fill: #6a3772"/>
    <path d="M 209.444986 407.035089 
L 238.423417 416.257591 
L 241.524041 413.53729 
L 244.615547 410.821355 
L 215.690682 401.655735 
L 212.572386 404.34216 
z
" clip-path="url(#pa1641a498d)" style="fill: #636314"/>
    <path d="M 327.303799 407.577633 
L 356.87596 416.800518 
L 359.804686 414.079828 
L 362.724865 411.350643 
L 333.209539 402.182517 
L 330.260977 404.879622 
z
" clip-path="url(#pa1641a498d)" style="fill: #a4a421"/>
    <path d="M 445.23119 408.105973 
L 475.397708 417.346876 
L 478.154597 414.611265 
L 480.903246 411.893373 
L 450.796762 402.720241 
L 448.01804 405.407719 
z
" clip-path="url(#pa1641a498d)" style="fill: #bfbf26"/>
    <path d="M 168.046271 408.659957 
L 196.844208 417.893396 
L 200.008268 415.169158 
L 203.162951 412.448157 
L 174.417434 403.269911 
L 171.236479 405.96102 
z
" clip-path="url(#pa1641a498d)" style="fill: #cc1719"/>
    <path d="M 285.995757 409.19698 
L 315.388552 418.439733 
L 318.380369 415.707964 
L 321.363551 412.993384 
L 292.026611 403.807118 
L 289.015591 406.499789 
z
" clip-path="url(#pa1641a498d)" style="fill: #2b6290"/>
    <path d="M 404.014058 409.727583 
L 434.00216 418.986862 
L 436.82174 416.252663 
L 439.632994 413.533995 
L 409.704027 404.341736 
L 406.86312 407.038289 
z
" clip-path="url(#pa1641a498d)" style="fill: #542c41"/>
    <path d="M 244.615547 410.821355 
L 273.828301 420.081356 
L 276.883336 417.339194 
L 279.92981 414.624948 
L 250.771838 405.42179 
L 247.698179 408.118055 
z
" clip-path="url(#pa1641a498d)" style="fill: #d7d72b"/>
    <path d="M 362.724865 411.350643 
L 392.533944 420.624275 
L 395.416518 417.894568 
L 398.290737 415.162358 
L 368.539814 405.952653 
L 365.636572 408.655442 
z
" clip-path="url(#pa1641a498d)" style="fill: #5b5b12"/>
    <path d="M 480.903246 411.893373 
L 511.30983 421.147433 
L 514.01914 418.428456 
L 516.723057 415.631949 
L 486.377586 406.439059 
L 483.644386 409.162261 
z
" clip-path="url(#pa1641a498d)" style="fill: #235074"/>
    <path d="M 203.162951 412.448157 
L 232.194921 421.722223 
L 235.31376 418.987284 
L 238.423417 416.257591 
L 209.444986 407.035089 
L 206.308655 409.74134 
z
" clip-path="url(#pa1641a498d)" style="fill: #767618"/>
    <path d="M 321.363551 412.993384 
L 350.992773 422.271637 
L 353.938659 419.528201 
L 356.87596 416.800518 
L 327.303799 407.577633 
L 324.337985 410.279994 
z
" clip-path="url(#pa1641a498d)" style="fill: #3272a6"/>
    <path d="M 439.632994 413.533995 
L 469.860257 422.815993 
L 472.633138 420.072538 
L 475.397708 417.346876 
L 445.23119 408.105973 
L 442.436127 410.818568 
z
" clip-path="url(#pa1641a498d)" style="fill: #e7e72e"/>
    <path d="M 161.637933 414.081454 
L 190.488296 423.367152 
L 193.670954 420.627709 
L 196.844208 417.893396 
L 168.046271 408.659957 
L 164.846769 411.366757 
z
" clip-path="url(#pa1641a498d)" style="fill: #ce1719"/>
    <path d="M 279.92981 414.624948 
L 309.378489 423.916736 
L 312.387935 421.175479 
L 315.388552 418.439733 
L 285.995757 409.19698 
L 282.967229 411.90867 
z
" clip-path="url(#pa1641a498d)" style="fill: #b11416"/>
    <path d="M 398.290737 415.162358 
L 428.338562 424.449851 
L 431.174472 421.717647 
L 434.00216 418.986862 
L 404.014058 409.727583 
L 401.156562 412.441594 
z
" clip-path="url(#pa1641a498d)" style="fill: #245278"/>
    <path d="M 238.423417 416.257591 
L 267.690973 425.569797 
L 270.764008 422.814895 
L 273.828301 420.081356 
L 244.615547 410.821355 
L 241.524041 413.53729 
z
" clip-path="url(#pa1641a498d)" style="fill: #3376ac"/>
    <path d="M 356.87596 416.800518 
L 386.743366 426.114172 
L 389.642915 423.361989 
L 392.533944 420.624275 
L 362.724865 411.350643 
L 359.804686 414.079828 
z
" clip-path="url(#pa1641a498d)" style="fill: #2f6b9c"/>
    <path d="M 475.397708 417.346876 
L 505.865597 426.670554 
L 508.5913 423.919086 
L 511.30983 421.147433 
L 480.903246 411.893373 
L 478.154597 414.611265 
z
" clip-path="url(#pa1641a498d)" style="fill: #5e3065"/>
    <path d="M 196.844208 417.893396 
L 225.929822 427.218886 
L 229.067023 424.468557 
L 232.194921 421.722223 
L 203.162951 412.448157 
L 200.008268 415.169158 
z
" clip-path="url(#pa1641a498d)" style="fill: #1f4869"/>
    <path d="M 315.388552 418.439733 
L 345.074999 427.771996 
L 348.038201 425.010502 
L 350.992773 422.271637 
L 321.363551 412.993384 
L 318.380369 415.707964 
z
" clip-path="url(#pa1641a498d)" style="fill: #306fa2"/>
    <path d="M 434.00216 418.986862 
L 464.290148 428.322179 
L 467.079371 425.56096 
L 469.860257 422.815993 
L 439.632994 413.533995 
L 436.82174 416.252663 
z
" clip-path="url(#pa1641a498d)" style="fill: #eeee30"/>
    <path d="M 155.192094 419.534676 
L 184.095201 428.878623 
L 187.296244 426.11333 
L 190.488296 423.367152 
L 161.637933 414.081454 
L 158.419721 416.804081 
z
" clip-path="url(#pa1641a498d)" style="fill: #ca1719"/>
    <path d="M 273.828301 420.081356 
L 303.333126 429.430711 
L 306.360254 426.670358 
L 309.378489 423.916736 
L 279.92981 414.624948 
L 276.883336 417.339194 
z
" clip-path="url(#pa1641a498d)" style="fill: #cf1819"/>
    <path d="M 392.533944 420.624275 
L 422.641351 429.966892 
L 425.493958 427.219969 
L 428.338562 424.449851 
L 398.290737 415.162358 
L 395.416518 417.894568 
z
" clip-path="url(#pa1641a498d)" style="fill: #1d4260"/>
    <path d="M 232.194921 421.722223 
L 261.517507 431.090554 
L 264.608777 428.326118 
L 267.690973 425.569797 
L 238.423417 416.257591 
L 235.31376 418.987284 
z
" clip-path="url(#pa1641a498d)" style="fill: #142e44"/>
    <path d="M 350.992773 422.271637 
L 380.918661 431.642846 
L 383.835288 428.8762 
L 386.743366 426.114172 
L 356.87596 416.800518 
L 353.938659 419.528201 
z
" clip-path="url(#pa1641a498d)" style="fill: #2f6c9e"/>
    <path d="M 469.860257 422.815993 
L 500.390102 432.197804 
L 503.131925 429.428287 
L 505.865597 426.670554 
L 475.397708 417.346876 
L 472.633138 420.072538 
z
" clip-path="url(#pa1641a498d)" style="fill: #132b3e"/>
    <path d="M 190.488296 423.367152 
L 219.627934 432.752642 
L 222.783277 429.973443 
L 225.929822 427.218886 
L 196.844208 417.893396 
L 193.670954 420.627709 
z
" clip-path="url(#pa1641a498d)" style="fill: #2f6c9e"/>
    <path d="M 309.378489 423.916736 
L 339.122354 433.307701 
L 342.103056 430.535776 
L 345.074999 427.771996 
L 315.388552 418.439733 
L 312.387935 421.175479 
z
" clip-path="url(#pa1641a498d)" style="fill: #595912"/>
    <path d="M 428.338562 424.449851 
L 458.687256 433.857553 
L 461.492811 431.08661 
L 464.290148 428.322179 
L 434.00216 418.986862 
L 431.174472 421.717647 
z
" clip-path="url(#pa1641a498d)" style="fill: #545411"/>
    <path d="M 267.690973 425.569797 
L 297.252045 434.973106 
L 300.29706 432.197539 
L 303.333126 429.430711 
L 273.828301 420.081356 
L 270.764008 422.814895 
z
" clip-path="url(#pa1641a498d)" style="fill: #cf1819"/>
    <path d="M 386.743366 426.114172 
L 416.910412 435.527484 
L 419.780084 432.744501 
L 422.641351 429.966892 
L 392.533944 420.624275 
L 389.642915 423.361989 
z
" clip-path="url(#pa1641a498d)" style="fill: #2d6797"/>
    <path d="M 225.929822 427.218886 
L 255.307585 436.643914 
L 258.417051 433.859799 
L 261.517507 431.090554 
L 232.194921 421.722223 
L 229.067023 424.468557 
z
" clip-path="url(#pa1641a498d)" style="fill: #844566"/>
    <path d="M 345.074999 427.771996 
L 375.059568 437.198304 
L 377.99346 434.405348 
L 380.918661 431.642846 
L 350.992773 422.271637 
L 348.038201 425.010502 
z
" clip-path="url(#pa1641a498d)" style="fill: #306ea1"/>
    <path d="M 464.290148 428.322179 
L 494.882253 437.757714 
L 497.640311 434.970912 
L 500.390102 432.197804 
L 469.860257 422.815993 
L 467.079371 425.56096 
z
" clip-path="url(#pa1641a498d)" style="fill: #214b6d"/>
    <path d="M 184.095201 428.878623 
L 213.288696 438.315467 
L 216.462973 435.529312 
L 219.627934 432.752642 
L 190.488296 423.367152 
L 187.296244 426.11333 
z
" clip-path="url(#pa1641a498d)" style="fill: #c01618"/>
    <path d="M 303.333126 429.430711 
L 333.134505 438.874181 
L 336.13283 436.083911 
L 339.122354 433.307701 
L 309.378489 423.916736 
L 306.360254 426.670358 
z
" clip-path="url(#pa1641a498d)" style="fill: #377db7"/>
    <path d="M 422.641351 429.966892 
L 453.051224 439.425667 
L 455.873328 436.6416 
L 458.687256 433.857553 
L 428.338562 424.449851 
L 425.493958 427.219969 
z
" clip-path="url(#pa1641a498d)" style="fill: #707016"/>
    <path d="M 261.517507 431.090554 
L 291.134998 440.54989 
L 294.198048 437.757956 
L 297.252045 434.973106 
L 267.690973 425.569797 
L 264.608777 428.326118 
z
" clip-path="url(#pa1641a498d)" style="fill: #cf1819"/>
    <path d="M 380.918661 431.642846 
L 411.145688 441.108774 
L 414.032331 438.311623 
L 416.910412 435.527484 
L 386.743366 426.114172 
L 383.835288 428.8762 
z
" clip-path="url(#pa1641a498d)" style="fill: #f2f230"/>
    <path d="M 219.627934 432.752642 
L 249.060803 442.226815 
L 252.188698 439.426213 
L 255.307585 436.643914 
L 225.929822 427.218886 
L 222.783277 429.973443 
z
" clip-path="url(#pa1641a498d)" style="fill: #f4f431"/>
    <path d="M 339.122354 433.307701 
L 369.165758 442.790204 
L 372.117021 439.99012 
L 375.059568 437.198304 
L 345.074999 427.771996 
L 342.103056 430.535776 
z
" clip-path="url(#pa1641a498d)" style="fill: #d8191a"/>
    <path d="M 458.687256 433.857553 
L 489.341852 443.346903 
L 492.116175 440.547256 
L 494.882253 437.757714 
L 464.290148 428.322179 
L 461.492811 431.08661 
z
" clip-path="url(#pa1641a498d)" style="fill: #132d41"/>
    <path d="M 297.252045 434.973106 
L 327.111149 444.47367 
L 330.127271 441.667829 
L 333.134505 438.874181 
L 303.333126 429.430711 
L 300.29706 432.197539 
z
" clip-path="url(#pa1641a498d)" style="fill: #2b6391"/>
    <path d="M 416.910412 435.527484 
L 447.381626 445.035038 
L 450.220621 442.226201 
L 453.051224 439.425667 
L 422.641351 429.966892 
L 419.780084 432.744501 
z
" clip-path="url(#pa1641a498d)" style="fill: #abab22"/>
    <path d="M 255.307585 436.643914 
L 284.981623 446.158326 
L 288.062886 443.351037 
L 291.134998 440.54989 
L 261.517507 431.090554 
L 258.417051 433.859799 
z
" clip-path="url(#pa1641a498d)" style="fill: #ca1719"/>
    <path d="M 375.059568 437.198304 
L 405.346763 446.720459 
L 408.250653 443.894679 
L 411.145688 441.108774 
L 380.918661 431.642846 
L 377.99346 434.405348 
z
" clip-path="url(#pa1641a498d)" style="fill: #306ea1"/>
    <path d="M 213.288696 438.315467 
L 242.777069 447.849603 
L 245.923634 445.035718 
L 249.060803 442.226815 
L 219.627934 432.752642 
L 216.462973 435.529312 
z
" clip-path="url(#pa1641a498d)" style="fill: #17354e"/>
    <path d="M 333.134505 438.874181 
L 363.236928 448.411208 
L 366.205741 445.597419 
L 369.165758 442.790204 
L 339.122354 433.307701 
L 336.13283 436.083911 
z
" clip-path="url(#pa1641a498d)" style="fill: #af1415"/>
    <path d="M 453.051224 439.425667 
L 483.769067 448.945414 
L 486.559207 446.158534 
L 489.341852 443.346903 
L 458.687256 433.857553 
L 455.873328 436.6416 
z
" clip-path="url(#pa1641a498d)" style="fill: #153147"/>
    <path d="M 291.134998 440.54989 
L 321.051968 450.106463 
L 324.086057 447.285885 
L 327.111149 444.47367 
L 297.252045 434.973106 
L 294.198048 437.757956 
z
" clip-path="url(#pa1641a498d)" style="fill: #1c405d"/>
    <path d="M 411.145688 441.108774 
L 441.67841 450.671175 
L 444.534278 447.847275 
L 447.381626 445.035038 
L 416.910412 435.527484 
L 414.032331 438.311623 
z
" clip-path="url(#pa1641a498d)" style="fill: #dede2c"/>
    <path d="M 249.060803 442.226815 
L 278.791632 451.801092 
L 281.891253 448.977073 
L 284.981623 446.158326 
L 255.307585 436.643914 
L 252.188698 439.426213 
z
" clip-path="url(#pa1641a498d)" style="fill: #132b3e"/>
    <path d="M 369.165758 442.790204 
L 399.513288 452.368349 
L 402.434365 449.53962 
L 405.346763 446.720459 
L 375.059568 437.198304 
L 372.117021 439.99012 
z
" clip-path="url(#pa1641a498d)" style="fill: #e01a1b"/>
    <path d="M 327.111149 444.47367 
L 357.272748 454.061 
L 360.259279 451.233961 
L 363.236928 448.411208 
L 333.134505 438.874181 
L 330.127271 441.667829 
z
" clip-path="url(#pa1641a498d)" style="fill: #cc1719"/>
    <path d="M 447.381626 445.035038 
L 478.161687 454.636326 
L 480.969185 451.802291 
L 483.769067 448.945414 
L 453.051224 439.425667 
L 450.220621 442.226201 
z
" clip-path="url(#pa1641a498d)" style="fill: #961112"/>
    <path d="M 284.981623 446.158326 
L 314.956622 455.770896 
L 318.008844 452.935441 
L 321.051968 450.106463 
L 291.134998 440.54989 
L 288.062886 443.351037 
z
" clip-path="url(#pa1641a498d)" style="fill: #152f45"/>
    <path d="M 405.346763 446.720459 
L 435.941162 456.340943 
L 438.814106 453.498537 
L 441.67841 450.671175 
L 411.145688 441.108774 
L 408.250653 443.894679 
z
" clip-path="url(#pa1641a498d)" style="fill: #d1d12a"/>
    <path d="M 242.777069 447.849603 
L 272.564719 457.47951 
L 275.68282 454.63636 
L 278.791632 451.801092 
L 249.060803 442.226815 
L 245.923634 445.035718 
z
" clip-path="url(#pa1641a498d)" style="fill: #a91315"/>
    <path d="M 363.236928 448.411208 
L 393.644999 458.045649 
L 396.583526 455.20159 
L 399.513288 452.368349 
L 369.165758 442.790204 
L 366.205741 445.597419 
z
" clip-path="url(#pa1641a498d)" style="fill: #2b6290"/>
    <path d="M 321.051968 450.106463 
L 351.272943 459.758167 
L 354.27733 456.909466 
L 357.272748 454.061 
L 327.111149 444.47367 
L 324.086057 447.285885 
z
" clip-path="url(#pa1641a498d)" style="fill: #d0181a"/>
    <path d="M 441.67841 450.671175 
L 472.52151 460.329814 
L 475.345808 457.478821 
L 478.161687 454.636326 
L 447.381626 445.035038 
L 444.534278 447.847275 
z
" clip-path="url(#pa1641a498d)" style="fill: #af1415"/>
    <path d="M 278.791632 451.801092 
L 308.824848 461.473154 
L 311.895324 458.618748 
L 314.956622 455.770896 
L 284.981623 446.158326 
L 281.891253 448.977073 
z
" clip-path="url(#pa1641a498d)" style="fill: #183650"/>
    <path d="M 399.513288 452.368349 
L 430.169577 462.044644 
L 433.059681 459.188533 
L 435.941162 456.340943 
L 405.346763 446.720459 
L 402.434365 449.53962 
z
" clip-path="url(#pa1641a498d)" style="fill: #9d9d1f"/>
    <path d="M 357.272748 454.061 
L 387.741534 463.761114 
L 390.697673 460.900484 
L 393.644999 458.045649 
L 363.236928 448.411208 
L 360.259279 451.233961 
z
" clip-path="url(#pa1641a498d)" style="fill: #12293d"/>
    <path d="M 314.956622 455.770896 
L 345.237148 465.481783 
L 348.259559 462.614804 
L 351.272943 459.758167 
L 321.051968 450.106463 
L 318.008844 452.935441 
z
" clip-path="url(#pa1641a498d)" style="fill: #285b85"/>
    <path d="M 435.941162 456.340943 
L 466.847506 466.05745 
L 469.688756 463.189345 
L 472.52151 460.329814 
L 441.67841 450.671175 
L 438.814106 453.498537 
z
" clip-path="url(#pa1641a498d)" style="fill: #af1415"/>
    <path d="M 272.564719 457.47951 
L 302.656255 467.207659 
L 305.745172 464.336111 
L 308.824848 461.473154 
L 278.791632 451.801092 
L 275.68282 454.63636 
z
" clip-path="url(#pa1641a498d)" style="fill: #9a1213"/>
    <path d="M 393.644999 458.045649 
L 424.363384 467.779271 
L 427.270812 464.909315 
L 430.169577 462.044644 
L 399.513288 452.368349 
L 396.583526 455.20159 
z
" clip-path="url(#pa1641a498d)" style="fill: #575711"/>
    <path d="M 351.272943 459.758167 
L 381.802609 469.508421 
L 384.776525 466.630676 
L 387.741534 463.761114 
L 357.272748 454.061 
L 354.27733 456.909466 
z
" clip-path="url(#pa1641a498d)" style="fill: #26567e"/>
    <path d="M 308.824848 461.473154 
L 339.165044 471.238041 
L 342.205654 468.355591 
L 345.237148 465.481783 
L 314.956622 455.770896 
L 311.895324 458.618748 
z
" clip-path="url(#pa1641a498d)" style="fill: #de191b"/>
    <path d="M 430.169577 462.044644 
L 461.13965 471.804718 
L 463.997724 468.934169 
L 466.847506 466.05745 
L 435.941162 456.340943 
L 433.059681 459.188533 
z
" clip-path="url(#pa1641a498d)" style="fill: #af1415"/>
    <path d="M 387.741534 463.761114 
L 418.522156 473.555073 
L 421.447141 470.664491 
L 424.363384 467.779271 
L 393.644999 458.045649 
L 390.697673 460.900484 
z
" clip-path="url(#pa1641a498d)" style="fill: #85851b"/>
    <path d="M 345.237148 465.481783 
L 375.827891 475.290937 
L 378.819742 472.396228 
L 381.802609 469.508421 
L 351.272943 459.758167 
L 348.259559 462.614804 
z
" clip-path="url(#pa1641a498d)" style="fill: #26567e"/>
    <path d="M 302.656255 467.207659 
L 333.056352 477.035561 
L 336.115294 474.132141 
L 339.165044 471.238041 
L 308.824848 461.473154 
L 305.745172 464.336111 
z
" clip-path="url(#pa1641a498d)" style="fill: #cc1719"/>
    <path d="M 424.363384 467.779271 
L 455.396809 477.61547 
L 458.272457 474.710822 
L 461.13965 471.804718 
L 430.169577 462.044644 
L 427.270812 464.909315 
z
" clip-path="url(#pa1641a498d)" style="fill: #214c6f"/>
    <path d="M 381.802609 469.508421 
L 412.64572 479.359096 
L 415.588352 476.45437 
L 418.522156 473.555073 
L 387.741534 463.761114 
L 384.776525 466.630676 
z
" clip-path="url(#pa1641a498d)" style="fill: #626214"/>
    <path d="M 339.165044 471.238041 
L 369.817055 481.111218 
L 372.82701 478.194822 
L 375.827891 475.290937 
L 345.237148 465.481783 
L 342.205654 468.355591 
z
" clip-path="url(#pa1641a498d)" style="fill: #1e4666"/>
    <path d="M 418.522156 473.555073 
L 449.619492 483.446478 
L 452.512491 480.527962 
L 455.396809 477.61547 
L 424.363384 467.779271 
L 421.447141 470.664491 
z
" clip-path="url(#pa1641a498d)" style="fill: #971113"/>
    <path d="M 375.827891 475.290937 
L 406.733627 485.20495 
L 409.694128 482.279269 
L 412.64572 479.359096 
L 381.802609 469.508421 
L 378.819742 472.396228 
z
" clip-path="url(#pa1641a498d)" style="fill: #17344c"/>
    <path d="M 333.056352 477.035561 
L 363.76978 486.96423 
L 366.797994 484.031778 
L 369.817055 481.111218 
L 339.165044 471.238041 
L 336.115294 474.132141 
z
" clip-path="url(#pa1641a498d)" style="fill: #ca1719"/>
    <path d="M 412.64572 479.359096 
L 443.80706 489.315679 
L 446.717694 486.375702 
L 449.619492 483.446478 
L 418.522156 473.555073 
L 415.588352 476.45437 
z
" clip-path="url(#pa1641a498d)" style="fill: #1a3b56"/>
    <path d="M 369.817055 481.111218 
L 400.785643 491.082976 
L 403.764157 488.137838 
L 406.733627 485.20495 
L 375.827891 475.290937 
L 372.82701 478.194822 
z
" clip-path="url(#pa1641a498d)" style="fill: #3273a8"/>
    <path d="M 406.733627 485.20495 
L 437.959267 495.218746 
L 440.887607 492.262726 
L 443.80706 489.315679 
L 412.64572 479.359096 
L 409.694128 482.279269 
z
" clip-path="url(#pa1641a498d)" style="fill: #971113"/>
    <path d="M 363.76978 486.96423 
L 394.801428 496.99348 
L 397.798078 494.035402 
L 400.785643 491.082976 
L 369.817055 481.111218 
L 366.797994 484.031778 
z
" clip-path="url(#pa1641a498d)" style="fill: #7c7c19"/>
    <path d="M 400.785643 491.082976 
L 432.07576 501.157865 
L 435.021998 498.183778 
L 437.959267 495.218746 
L 406.733627 485.20495 
L 403.764157 488.137838 
z
" clip-path="url(#pa1641a498d)" style="fill: #af1415"/>
    <path d="M 394.801428 496.99348 
L 426.15621 507.133368 
L 429.120511 504.141048 
L 432.07576 501.157865 
L 400.785643 491.082976 
L 397.798078 494.035402 
z
" clip-path="url(#pa1641a498d)" style="fill: #122a3e"/>
   </g>
  </g>
  <g id="axes_2">
   <g id="patch_6">
    <path d="M 675.6139 565.2 
L 703.3339 565.2 
L 703.3339 10.8 
L 675.6139 10.8 
z
" style="fill: #ffffff"/>
   </g>
   <g id="QuadMesh_1">
    <path d="M 675.6139 565.2 
L 703.3339 565.2 
L 703.3339 495.9 
L 675.6139 495.9 
L 675.6139 565.2 
" clip-path="url(#p6f08a332ed)" style="fill: #e41a1c"/>
    <path d="M 675.6139 495.9 
L 703.3339 495.9 
L 703.3339 426.6 
L 675.6139 426.6 
L 675.6139 495.9 
" clip-path="url(#p6f08a332ed)" style="fill: #377eb8"/>
    <path d="M 675.6139 426.6 
L 703.3339 426.6 
L 703.3339 357.3 
L 675.6139 357.3 
L 675.6139 426.6 
" clip-path="url(#p6f08a332ed)" style="fill: #4daf4a"/>
    <path d="M 675.6139 357.3 
L 703.3339 357.3 
L 703.3339 288 
L 675.6139 288 
L 675.6139 357.3 
" clip-path="url(#p6f08a332ed)" style="fill: #984ea3"/>
    <path d="M 675.6139 288 
L 703.3339 288 
L 703.3339 218.7 
L 675.6139 218.7 
L 675.6139 288 
" clip-path="url(#p6f08a332ed)" style="fill: #ff7f00"/>
    <path d="M 675.6139 218.7 
L 703.3339 218.7 
L 703.3339 149.4 
L 675.6139 149.4 
L 675.6139 218.7 
" clip-path="url(#p6f08a332ed)" style="fill: #ffff33"/>
    <path d="M 675.6139 149.4 
L 703.3339 149.4 
L 703.3339 80.1 
L 675.6139 80.1 
L 675.6139 149.4 
" clip-path="url(#p6f08a332ed)" style="fill: #a65628"/>
    <path d="M 675.6139 80.1 
L 703.3339 80.1 
L 703.3339 10.8 
L 675.6139 10.8 
L 675.6139 80.1 
" clip-path="url(#p6f08a332ed)" style="fill: #f781bf"/>
   </g>
   <g id="matplotlib.axis_1"/>
   <g id="matplotlib.axis_2">
    <g id="ytick_1">
     <g id="line2d_4">
      <defs>
       <path id="m7a91a03e06" d="M 0 0 
L 3.5 0 
" style="stroke: #000000; stroke-width: 0.8"/>
      </defs>
      <g>
       <use xlink:href="#m7a91a03e06" x="703.3339" y="530.55" style="stroke: #000000; stroke-width: 0.8"/>
      </g>
     </g>
     <g id="text_4">
      <!-- Not seen in this sample -->
      <g transform="translate(710.3339 534.349219) scale(0.1 -0.1)">
       <use xlink:href="#DejaVuSans-4e"/>
       <use xlink:href="#DejaVuSans-6f" x="74.804688"/>
       <use xlink:href="#DejaVuSans-74" x="135.986328"/>
       <use xlink:href="#DejaVuSans-20" x="175.195312"/>
       <use xlink:href="#DejaVuSans-73" x="206.982422"/>
       <use xlink:href="#DejaVuSans-65" x="259.082031"/>
       <use xlink:href="#DejaVuSans-65" x="320.605469"/>
       <use xlink:href="#DejaVuSans-6e" x="382.128906"/>
       <use xlink:href="#DejaVuSans-20" x="445.507812"/>
       <use xlink:href="#DejaVuSans-69" x="477.294922"/>
       <use xlink:href="#DejaVuSans-6e" x="505.078125"/>
       <use xlink:href="#DejaVuSans-20" x="568.457031"/>
       <use xlink:href="#DejaVuSans-74" x="600.244141"/>
       <use xlink:href="#DejaVuSans-68" x="639.453125"/>
       <use xlink:href="#DejaVuSans-69" x="702.832031"/>
       <use xlink:href="#DejaVuSans-73" x="730.615234"/>
       <use xlink:href="#DejaVuSans-20" x="782.714844"/>
       <use xlink:href="#DejaVuSans-73" x="814.501953"/>
       <use xlink:href="#DejaVuSans-61" x="866.601562"/>
       <use xlink:href="#DejaVuSans-6d" x="927.880859"/>
       <use xlink:href="#DejaVuSans-70" x="1025.292969"/>
       <use xlink:href="#DejaVuSans-6c" x="1088.769531"/>
       <use xlink:href="#DejaVuSans-65" x="1116.552734"/>
      </g>
     </g>
    </g>
    <g id="ytick_2">
     <g id="line2d_5">
      <g>
       <use xlink:href="#m7a91a03e06" x="703.3339" y="461.25" style="stroke: #000000; stroke-width: 0.8"/>
      </g>
     </g>
     <g id="text_5">
      <!-- MGI Only -->
      <g transform="translate(710.3339 465.049219) scale(0.1 -0.1)">
       <defs>
        <path id="DejaVuSans-4f" d="M 2522 4238 
Q 1834 4238 1429 3725 
Q 1025 3213 1025 2328 
Q 1025 1447 1429 934 
Q 1834 422 2522 422 
Q 3209 422 3611 934 
Q 4013 1447 4013 2328 
Q 4013 3213 3611 3725 
Q 3209 4238 2522 4238 
z
M 2522 4750 
Q 3503 4750 4090 4092 
Q 4678 3434 4678 2328 
Q 4678 1225 4090 567 
Q 3503 -91 2522 -91 
Q 1538 -91 948 565 
Q 359 1222 359 2328 
Q 359 3434 948 4092 
Q 1538 4750 2522 4750 
z
" transform="scale(0.015625)"/>
        <path id="DejaVuSans-79" d="M 2059 -325 
Q 1816 -950 1584 -1140 
Q 1353 -1331 966 -1331 
L 506 -1331 
L 506 -850 
L 844 -850 
Q 1081 -850 1212 -737 
Q 1344 -625 1503 -206 
L 1606 56 
L 191 3500 
L 800 3500 
L 1894 763 
L 2988 3500 
L 3597 3500 
L 2059 -325 
z
" transform="scale(0.015625)"/>
       </defs>
       <use xlink:href="#DejaVuSans-4d"/>
       <use xlink:href="#DejaVuSans-47" x="86.279297"/>
       <use xlink:href="#DejaVuSans-49" x="163.769531"/>
       <use xlink:href="#DejaVuSans-20" x="193.261719"/>
       <use xlink:href="#DejaVuSans-4f" x="225.048828"/>
       <use xlink:href="#DejaVuSans-6e" x="303.759766"/>
       <use xlink:href="#DejaVuSans-6c" x="367.138672"/>
       <use xlink:href="#DejaVuSans-79" x="394.921875"/>
      </g>
     </g>
    </g>
    <g id="ytick_3">
     <g id="line2d_6">
      <g>
       <use xlink:href="#m7a91a03e06" x="703.3339" y="391.95" style="stroke: #000000; stroke-width: 0.8"/>
      </g>
     </g>
     <g id="text_6">
      <!-- MinION Only -->
      <g transform="translate(710.3339 395.749219) scale(0.1 -0.1)">
       <use xlink:href="#DejaVuSans-4d"/>
       <use xlink:href="#DejaVuSans-69" x="86.279297"/>
       <use xlink:href="#DejaVuSans-6e" x="114.0625"/>
       <use xlink:href="#DejaVuSans-49" x="177.441406"/>
       <use xlink:href="#DejaVuSans-4f" x="206.933594"/>
       <use xlink:href="#DejaVuSans-4e" x="285.644531"/>
       <use xlink:href="#DejaVuSans-20" x="360.449219"/>
       <use xlink:href="#DejaVuSans-4f" x="392.236328"/>
       <use xlink:href="#DejaVuSans-6e" x="470.947266"/>
       <use xlink:href="#DejaVuSans-6c" x="534.326172"/>
       <use xlink:href="#DejaVuSans-79" x="562.109375"/>
      </g>
     </g>
    </g>
    <g id="ytick_4">
     <g id="line2d_7">
      <g>
       <use xlink:href="#m7a91a03e06" x="703.3339" y="322.65" style="stroke: #000000; stroke-width: 0.8"/>
      </g>
     </g>
     <g id="text_7">
      <!-- MGI + MinION -->
      <g transform="translate(710.3339 326.449219) scale(0.1 -0.1)">
       <defs>
        <path id="DejaVuSans-2b" d="M 2944 4013 
L 2944 2272 
L 4684 2272 
L 4684 1741 
L 2944 1741 
L 2944 0 
L 2419 0 
L 2419 1741 
L 678 1741 
L 678 2272 
L 2419 2272 
L 2419 4013 
L 2944 4013 
z
" transform="scale(0.015625)"/>
       </defs>
       <use xlink:href="#DejaVuSans-4d"/>
       <use xlink:href="#DejaVuSans-47" x="86.279297"/>
       <use xlink:href="#DejaVuSans-49" x="163.769531"/>
       <use xlink:href="#DejaVuSans-20" x="193.261719"/>
       <use xlink:href="#DejaVuSans-2b" x="225.048828"/>
       <use xlink:href="#DejaVuSans-20" x="308.837891"/>
       <use xlink:href="#DejaVuSans-4d" x="340.625"/>
       <use xlink:href="#DejaVuSans-69" x="426.904297"/>
       <use xlink:href="#DejaVuSans-6e" x="454.6875"/>
       <use xlink:href="#DejaVuSans-49" x="518.066406"/>
       <use xlink:href="#DejaVuSans-4f" x="547.558594"/>
       <use xlink:href="#DejaVuSans-4e" x="626.269531"/>
      </g>
     </g>
    </g>
    <g id="ytick_5">
     <g id="line2d_8">
      <g>
       <use xlink:href="#m7a91a03e06" x="703.3339" y="253.35" style="stroke: #000000; stroke-width: 0.8"/>
      </g>
     </g>
     <g id="text_8">
      <!-- Promethion Only -->
      <g transform="translate(710.3339 257.149219) scale(0.1 -0.1)">
       <defs>
        <path id="DejaVuSans-50" d="M 1259 4147 
L 1259 2394 
L 2053 2394 
Q 2494 2394 2734 2622 
Q 2975 2850 2975 3272 
Q 2975 3691 2734 3919 
Q 2494 4147 2053 4147 
L 1259 4147 
z
M 628 4666 
L 2053 4666 
Q 2838 4666 3239 4311 
Q 3641 3956 3641 3272 
Q 3641 2581 3239 2228 
Q 2838 1875 2053 1875 
L 1259 1875 
L 1259 0 
L 628 0 
L 628 4666 
z
" transform="scale(0.015625)"/>
       </defs>
       <use xlink:href="#DejaVuSans-50"/>
       <use xlink:href="#DejaVuSans-72" x="58.552734"/>
       <use xlink:href="#DejaVuSans-6f" x="97.416016"/>
       <use xlink:href="#DejaVuSans-6d" x="158.597656"/>
       <use xlink:href="#DejaVuSans-65" x="256.009766"/>
       <use xlink:href="#DejaVuSans-74" x="317.533203"/>
       <use xlink:href="#DejaVuSans-68" x="356.742188"/>
       <use xlink:href="#DejaVuSans-69" x="420.121094"/>
       <use xlink:href="#DejaVuSans-6f" x="447.904297"/>
       <use xlink:href="#DejaVuSans-6e" x="509.085938"/>
       <use xlink:href="#DejaVuSans-20" x="572.464844"/>
       <use xlink:href="#DejaVuSans-4f" x="604.251953"/>
       <use xlink:href="#DejaVuSans-6e" x="682.962891"/>
       <use xlink:href="#DejaVuSans-6c" x="746.341797"/>
       <use xlink:href="#DejaVuSans-79" x="774.125"/>
      </g>
     </g>
    </g>
    <g id="ytick_6">
     <g id="line2d_9">
      <g>
       <use xlink:href="#m7a91a03e06" x="703.3339" y="184.05" style="stroke: #000000; stroke-width: 0.8"/>
      </g>
     </g>
     <g id="text_9">
      <!-- MGI + Promethion -->
      <g transform="translate(710.3339 187.849219) scale(0.1 -0.1)">
       <use xlink:href="#DejaVuSans-4d"/>
       <use xlink:href="#DejaVuSans-47" x="86.279297"/>
       <use xlink:href="#DejaVuSans-49" x="163.769531"/>
       <use xlink:href="#DejaVuSans-20" x="193.261719"/>
       <use xlink:href="#DejaVuSans-2b" x="225.048828"/>
       <use xlink:href="#DejaVuSans-20" x="308.837891"/>
       <use xlink:href="#DejaVuSans-50" x="340.625"/>
       <use xlink:href="#DejaVuSans-72" x="399.177734"/>
       <use xlink:href="#DejaVuSans-6f" x="438.041016"/>
       <use xlink:href="#DejaVuSans-6d" x="499.222656"/>
       <use xlink:href="#DejaVuSans-65" x="596.634766"/>
       <use xlink:href="#DejaVuSans-74" x="658.158203"/>
       <use xlink:href="#DejaVuSans-68" x="697.367188"/>
       <use xlink:href="#DejaVuSans-69" x="760.746094"/>
       <use xlink:href="#DejaVuSans-6f" x="788.529297"/>
       <use xlink:href="#DejaVuSans-6e" x="849.710938"/>
      </g>
     </g>
    </g>
    <g id="ytick_7">
     <g id="line2d_10">
      <g>
       <use xlink:href="#m7a91a03e06" x="703.3339" y="114.75" style="stroke: #000000; stroke-width: 0.8"/>
      </g>
     </g>
     <g id="text_10">
      <!-- MinION + Promethion -->
      <g transform="translate(710.3339 118.549219) scale(0.1 -0.1)">
       <use xlink:href="#DejaVuSans-4d"/>
       <use xlink:href="#DejaVuSans-69" x="86.279297"/>
       <use xlink:href="#DejaVuSans-6e" x="114.0625"/>
       <use xlink:href="#DejaVuSans-49" x="177.441406"/>
       <use xlink:href="#DejaVuSans-4f" x="206.933594"/>
       <use xlink:href="#DejaVuSans-4e" x="285.644531"/>
       <use xlink:href="#DejaVuSans-20" x="360.449219"/>
       <use xlink:href="#DejaVuSans-2b" x="392.236328"/>
       <use xlink:href="#DejaVuSans-20" x="476.025391"/>
       <use xlink:href="#DejaVuSans-50" x="507.8125"/>
       <use xlink:href="#DejaVuSans-72" x="566.365234"/>
       <use xlink:href="#DejaVuSans-6f" x="605.228516"/>
       <use xlink:href="#DejaVuSans-6d" x="666.410156"/>
       <use xlink:href="#DejaVuSans-65" x="763.822266"/>
       <use xlink:href="#DejaVuSans-74" x="825.345703"/>
       <use xlink:href="#DejaVuSans-68" x="864.554688"/>
       <use xlink:href="#DejaVuSans-69" x="927.933594"/>
       <use xlink:href="#DejaVuSans-6f" x="955.716797"/>
       <use xlink:href="#DejaVuSans-6e" x="1016.898438"/>
      </g>
     </g>
    </g>
    <g id="ytick_8">
     <g id="line2d_11">
      <g>
       <use xlink:href="#m7a91a03e06" x="703.3339" y="45.45" style="stroke: #000000; stroke-width: 0.8"/>
      </g>
     </g>
     <g id="text_11">
      <!-- All -->
      <g transform="translate(710.3339 49.249219) scale(0.1 -0.1)">
       <defs>
        <path id="DejaVuSans-41" d="M 2188 4044 
L 1331 1722 
L 3047 1722 
L 2188 4044 
z
M 1831 4666 
L 2547 4666 
L 4325 0 
L 3669 0 
L 3244 1197 
L 1141 1197 
L 716 0 
L 50 0 
L 1831 4666 
z
" transform="scale(0.015625)"/>
       </defs>
       <use xlink:href="#DejaVuSans-41"/>
       <use xlink:href="#DejaVuSans-6c" x="68.408203"/>
       <use xlink:href="#DejaVuSans-6c" x="96.191406"/>
      </g>
     </g>
    </g>
    <g id="text_12">
     <!-- How the taxa were detected -->
     <g transform="translate(839.737025 358.950781) rotate(-90) scale(0.1 -0.1)">
      <defs>
       <path id="DejaVuSans-48" d="M 628 4666 
L 1259 4666 
L 1259 2753 
L 3553 2753 
L 3553 4666 
L 4184 4666 
L 4184 0 
L 3553 0 
L 3553 2222 
L 1259 2222 
L 1259 0 
L 628 0 
L 628 4666 
z
" transform="scale(0.015625)"/>
      </defs>
      <use xlink:href="#DejaVuSans-48"/>
      <use xlink:href="#DejaVuSans-6f" x="75.195312"/>
      <use xlink:href="#DejaVuSans-77" x="136.376953"/>
      <use xlink:href="#DejaVuSans-20" x="218.164062"/>
      <use xlink:href="#DejaVuSans-74" x="249.951172"/>
      <use xlink:href="#DejaVuSans-68" x="289.160156"/>
      <use xlink:href="#DejaVuSans-65" x="352.539062"/>
      <use xlink:href="#DejaVuSans-20" x="414.0625"/>
      <use xlink:href="#DejaVuSans-74" x="445.849609"/>
      <use xlink:href="#DejaVuSans-61" x="485.058594"/>
      <use xlink:href="#DejaVuSans-78" x="546.337891"/>
      <use xlink:href="#DejaVuSans-61" x="605.517578"/>
      <use xlink:href="#DejaVuSans-20" x="666.796875"/>
      <use xlink:href="#DejaVuSans-77" x="698.583984"/>
      <use xlink:href="#DejaVuSans-65" x="780.371094"/>
      <use xlink:href="#DejaVuSans-72" x="841.894531"/>
      <use xlink:href="#DejaVuSans-65" x="880.757812"/>
      <use xlink:href="#DejaVuSans-20" x="942.28125"/>
      <use xlink:href="#DejaVuSans-64" x="974.068359"/>
      <use xlink:href="#DejaVuSans-65" x="1037.544922"/>
      <use xlink:href="#DejaVuSans-74" x="1099.068359"/>
      <use xlink:href="#DejaVuSans-65" x="1138.277344"/>
      <use xlink:href="#DejaVuSans-63" x="1199.800781"/>
      <use xlink:href="#DejaVuSans-74" x="1254.78125"/>
      <use xlink:href="#DejaVuSans-65" x="1293.990234"/>
      <use xlink:href="#DejaVuSans-64" x="1355.513672"/>
     </g>
    </g>
   </g>
   <g id="LineCollection_1"/>
   <g id="patch_7">
    <path d="M 675.6139 565.2 
L 689.4739 565.2 
L 703.3339 565.2 
L 703.3339 10.8 
L 689.4739 10.8 
L 675.6139 10.8 
L 675.6139 565.2 
z
" style="fill: none; stroke: #000000; stroke-width: 0.8; stroke-linejoin: miter; stroke-linecap: square"/>
   </g>
  </g>
 </g>
 <defs>
  <clipPath id="pa1641a498d">
   <rect x="82.1072" y="10.8" width="554.4" height="554.4"/>
  </clipPath>
  <clipPath id="p6f08a332ed">
   <rect x="675.6139" y="10.8" width="27.72" height="554.4"/>
  </clipPath>
 </defs>
</svg>
