<?xml version="1.0" encoding="utf-8" standalone="no"?>
<!DOCTYPE svg PUBLIC "-//W3C//DTD SVG 1.1//EN"
  "http://www.w3.org/Graphics/SVG/1.1/DTD/svg11.dtd">
<svg xmlns:xlink="http://www.w3.org/1999/xlink" width="864pt" height="576pt" viewBox="0 0 864 576" xmlns="http://www.w3.org/2000/svg" version="1.1">
 <metadata>
  <rdf:RDF xmlns:dc="http://purl.org/dc/elements/1.1/" xmlns:cc="http://creativecommons.org/ns#" xmlns:rdf="http://www.w3.org/1999/02/22-rdf-syntax-ns#">
   <cc:Work>
    <dc:type rdf:resource="http://purl.org/dc/dcmitype/StillImage"/>
    <dc:date>2025-12-03T16:01:16.481379</dc:date>
    <dc:format>image/svg+xml</dc:format>
    <dc:creator>
     <cc:Agent>
      <dc:title>Matplotlib v3.8.0, https://matplotlib.org/</dc:title>
     </cc:Agent>
    </dc:creator>
   </cc:Work>
  </rdf:RDF>
 </metadata>
 <defs>
  <style type="text/css">*{stroke-linejoin: round; stroke-linecap: butt}</style>
 </defs>
 <g id="figure_1">
  <g id="patch_1">
   <path d="M 0 576 
L 864 576 
L 864 0 
L 0 0 
z
" style="fill: #ffffff"/>
  </g>
  <g id="patch_2">
   <path d="M 82.1072 565.2 
L 636.5072 565.2 
L 636.5072 10.8 
L 82.1072 10.8 
z
" style="fill: #ffffff"/>
  </g>
  <g id="pane3d_1">
   <g id="patch_3">
    <path d="M 123.968223 428.502727 
L 307.049209 275.040614 
L 304.504208 53.720814 
L 112.661853 193.718627 
" style="fill: #f2f2f2; opacity: 0.5; stroke: #f2f2f2; stroke-linejoin: miter"/>
   </g>
  </g>
  <g id="pane3d_2">
   <g id="patch_4">
    <path d="M 307.049209 275.040614 
L 600.828868 360.430763 
L 611.312828 131.487856 
L 304.504208 53.720814 
" style="fill: #e6e6e6; opacity: 0.5; stroke: #e6e6e6; stroke-linejoin: miter"/>
   </g>
  </g>
  <g id="pane3d_3">
   <g id="patch_5">
    <path d="M 123.968223 428.502727 
L 435.38901 530.212756 
L 600.828868 360.430763 
L 307.049209 275.040614 
" style="fill: #ececec; opacity: 0.5; stroke: #ececec; stroke-linejoin: miter"/>
   </g>
  </g>
  <g id="grid3d_1"/>
  <g id="grid3d_2"/>
  <g id="grid3d_3"/>
  <g id="axis3d_1">
   <g id="line2d_1">
    <path d="M 123.968223 428.502727 
L 435.38901 530.212756 
" style="fill: none; stroke: #000000; stroke-width: 0.8; stroke-linecap: square"/>
   </g>
   <g id="text_1">
    <!-- 10 pwCF samples -->
    <g transform="translate(216.712828 502.114205) rotate(-341.912962) scale(0.1 -0.1)">
     <defs>
      <path id="DejaVuSans-31" d="M 794 531 
L 1825 531 
L 1825 4091 
L 703 3866 
L 703 4441 
L 1819 4666 
L 2450 4666 
L 2450 531 
L 3481 531 
L 3481 0 
L 794 0 
L 794 531 
z
" transform="scale(0.015625)"/>
      <path id="DejaVuSans-30" d="M 2034 4250 
Q 1547 4250 1301 3770 
Q 1056 3291 1056 2328 
Q 1056 1369 1301 889 
Q 1547 409 2034 409 
Q 2525 409 2770 889 
Q 3016 1369 3016 2328 
Q 3016 3291 2770 3770 
Q 2525 4250 2034 4250 
z
M 2034 4750 
Q 2819 4750 3233 4129 
Q 3647 3509 3647 2328 
Q 3647 1150 3233 529 
Q 2819 -91 2034 -91 
Q 1250 -91 836 529 
Q 422 1150 422 2328 
Q 422 3509 836 4129 
Q 1250 4750 2034 4750 
z
" transform="scale(0.015625)"/>
      <path id="DejaVuSans-20" transform="scale(0.015625)"/>
      <path id="DejaVuSans-70" d="M 1159 525 
L 1159 -1331 
L 581 -1331 
L 581 3500 
L 1159 3500 
L 1159 2969 
Q 1341 3281 1617 3432 
Q 1894 3584 2278 3584 
Q 2916 3584 3314 3078 
Q 3713 2572 3713 1747 
Q 3713 922 3314 415 
Q 2916 -91 2278 -91 
Q 1894 -91 1617 61 
Q 1341 213 1159 525 
z
M 3116 1747 
Q 3116 2381 2855 2742 
Q 2594 3103 2138 3103 
Q 1681 3103 1420 2742 
Q 1159 2381 1159 1747 
Q 1159 1113 1420 752 
Q 1681 391 2138 391 
Q 2594 391 2855 752 
Q 3116 1113 3116 1747 
z
" transform="scale(0.015625)"/>
      <path id="DejaVuSans-77" d="M 269 3500 
L 844 3500 
L 1563 769 
L 2278 3500 
L 2956 3500 
L 3675 769 
L 4391 3500 
L 4966 3500 
L 4050 0 
L 3372 0 
L 2619 2869 
L 1863 0 
L 1184 0 
L 269 3500 
z
" transform="scale(0.015625)"/>
      <path id="DejaVuSans-43" d="M 4122 4306 
L 4122 3641 
Q 3803 3938 3442 4084 
Q 3081 4231 2675 4231 
Q 1875 4231 1450 3742 
Q 1025 3253 1025 2328 
Q 1025 1406 1450 917 
Q 1875 428 2675 428 
Q 3081 428 3442 575 
Q 3803 722 4122 1019 
L 4122 359 
Q 3791 134 3420 21 
Q 3050 -91 2638 -91 
Q 1578 -91 968 557 
Q 359 1206 359 2328 
Q 359 3453 968 4101 
Q 1578 4750 2638 4750 
Q 3056 4750 3426 4639 
Q 3797 4528 4122 4306 
z
" transform="scale(0.015625)"/>
      <path id="DejaVuSans-46" d="M 628 4666 
L 3309 4666 
L 3309 4134 
L 1259 4134 
L 1259 2759 
L 3109 2759 
L 3109 2228 
L 1259 2228 
L 1259 0 
L 628 0 
L 628 4666 
z
" transform="scale(0.015625)"/>
      <path id="DejaVuSans-73" d="M 2834 3397 
L 2834 2853 
Q 2591 2978 2328 3040 
Q 2066 3103 1784 3103 
Q 1356 3103 1142 2972 
Q 928 2841 928 2578 
Q 928 2378 1081 2264 
Q 1234 2150 1697 2047 
L 1894 2003 
Q 2506 1872 2764 1633 
Q 3022 1394 3022 966 
Q 3022 478 2636 193 
Q 2250 -91 1575 -91 
Q 1294 -91 989 -36 
Q 684 19 347 128 
L 347 722 
Q 666 556 975 473 
Q 1284 391 1588 391 
Q 1994 391 2212 530 
Q 2431 669 2431 922 
Q 2431 1156 2273 1281 
Q 2116 1406 1581 1522 
L 1381 1569 
Q 847 1681 609 1914 
Q 372 2147 372 2553 
Q 372 3047 722 3315 
Q 1072 3584 1716 3584 
Q 2034 3584 2315 3537 
Q 2597 3491 2834 3397 
z
" transform="scale(0.015625)"/>
      <path id="DejaVuSans-61" d="M 2194 1759 
Q 1497 1759 1228 1600 
Q 959 1441 959 1056 
Q 959 750 1161 570 
Q 1363 391 1709 391 
Q 2188 391 2477 730 
Q 2766 1069 2766 1631 
L 2766 1759 
L 2194 1759 
z
M 3341 1997 
L 3341 0 
L 2766 0 
L 2766 531 
Q 2569 213 2275 61 
Q 1981 -91 1556 -91 
Q 1019 -91 701 211 
Q 384 513 384 1019 
Q 384 1609 779 1909 
Q 1175 2209 1959 2209 
L 2766 2209 
L 2766 2266 
Q 2766 2663 2505 2880 
Q 2244 3097 1772 3097 
Q 1472 3097 1187 3025 
Q 903 2953 641 2809 
L 641 3341 
Q 956 3463 1253 3523 
Q 1550 3584 1831 3584 
Q 2591 3584 2966 3190 
Q 3341 2797 3341 1997 
z
" transform="scale(0.015625)"/>
      <path id="DejaVuSans-6d" d="M 3328 2828 
Q 3544 3216 3844 3400 
Q 4144 3584 4550 3584 
Q 5097 3584 5394 3201 
Q 5691 2819 5691 2113 
L 5691 0 
L 5113 0 
L 5113 2094 
Q 5113 2597 4934 2840 
Q 4756 3084 4391 3084 
Q 3944 3084 3684 2787 
Q 3425 2491 3425 1978 
L 3425 0 
L 2847 0 
L 2847 2094 
Q 2847 2600 2669 2842 
Q 2491 3084 2119 3084 
Q 1678 3084 1418 2786 
Q 1159 2488 1159 1978 
L 1159 0 
L 581 0 
L 581 3500 
L 1159 3500 
L 1159 2956 
Q 1356 3278 1631 3431 
Q 1906 3584 2284 3584 
Q 2666 3584 2933 3390 
Q 3200 3197 3328 2828 
z
" transform="scale(0.015625)"/>
      <path id="DejaVuSans-6c" d="M 603 4863 
L 1178 4863 
L 1178 0 
L 603 0 
L 603 4863 
z
" transform="scale(0.015625)"/>
      <path id="DejaVuSans-65" d="M 3597 1894 
L 3597 1613 
L 953 1613 
Q 991 1019 1311 708 
Q 1631 397 2203 397 
Q 2534 397 2845 478 
Q 3156 559 3463 722 
L 3463 178 
Q 3153 47 2828 -22 
Q 2503 -91 2169 -91 
Q 1331 -91 842 396 
Q 353 884 353 1716 
Q 353 2575 817 3079 
Q 1281 3584 2069 3584 
Q 2775 3584 3186 3129 
Q 3597 2675 3597 1894 
z
M 3022 2063 
Q 3016 2534 2758 2815 
Q 2500 3097 2075 3097 
Q 1594 3097 1305 2825 
Q 1016 2553 972 2059 
L 3022 2063 
z
" transform="scale(0.015625)"/>
     </defs>
     <use xlink:href="#DejaVuSans-31"/>
     <use xlink:href="#DejaVuSans-30" x="63.623047"/>
     <use xlink:href="#DejaVuSans-20" x="127.246094"/>
     <use xlink:href="#DejaVuSans-70" x="159.033203"/>
     <use xlink:href="#DejaVuSans-77" x="222.509766"/>
     <use xlink:href="#DejaVuSans-43" x="304.296875"/>
     <use xlink:href="#DejaVuSans-46" x="374.121094"/>
     <use xlink:href="#DejaVuSans-20" x="431.640625"/>
     <use xlink:href="#DejaVuSans-73" x="463.427734"/>
     <use xlink:href="#DejaVuSans-61" x="515.527344"/>
     <use xlink:href="#DejaVuSans-6d" x="576.806641"/>
     <use xlink:href="#DejaVuSans-70" x="674.21875"/>
     <use xlink:href="#DejaVuSans-6c" x="737.695312"/>
     <use xlink:href="#DejaVuSans-65" x="765.478516"/>
     <use xlink:href="#DejaVuSans-73" x="827.001953"/>
    </g>
   </g>
  </g>
  <g id="axis3d_2">
   <g id="line2d_2">
    <path d="M 600.828868 360.430763 
L 435.38901 530.212756 
" style="fill: none; stroke: #000000; stroke-width: 0.8; stroke-linecap: square"/>
   </g>
   <g id="text_2">
    <!-- 39 phylum taxonomies -->
    <g transform="translate(510.734982 512.496263) rotate(-45.742112) scale(0.1 -0.1)">
     <defs>
      <path id="DejaVuSans-33" d="M 2597 2516 
Q 3050 2419 3304 2112 
Q 3559 1806 3559 1356 
Q 3559 666 3084 287 
Q 2609 -91 1734 -91 
Q 1441 -91 1130 -33 
Q 819 25 488 141 
L 488 750 
Q 750 597 1062 519 
Q 1375 441 1716 441 
Q 2309 441 2620 675 
Q 2931 909 2931 1356 
Q 2931 1769 2642 2001 
Q 2353 2234 1838 2234 
L 1294 2234 
L 1294 2753 
L 1863 2753 
Q 2328 2753 2575 2939 
Q 2822 3125 2822 3475 
Q 2822 3834 2567 4026 
Q 2313 4219 1838 4219 
Q 1578 4219 1281 4162 
Q 984 4106 628 3988 
L 628 4550 
Q 988 4650 1302 4700 
Q 1616 4750 1894 4750 
Q 2613 4750 3031 4423 
Q 3450 4097 3450 3541 
Q 3450 3153 3228 2886 
Q 3006 2619 2597 2516 
z
" transform="scale(0.015625)"/>
      <path id="DejaVuSans-39" d="M 703 97 
L 703 672 
Q 941 559 1184 500 
Q 1428 441 1663 441 
Q 2288 441 2617 861 
Q 2947 1281 2994 2138 
Q 2813 1869 2534 1725 
Q 2256 1581 1919 1581 
Q 1219 1581 811 2004 
Q 403 2428 403 3163 
Q 403 3881 828 4315 
Q 1253 4750 1959 4750 
Q 2769 4750 3195 4129 
Q 3622 3509 3622 2328 
Q 3622 1225 3098 567 
Q 2575 -91 1691 -91 
Q 1453 -91 1209 -44 
Q 966 3 703 97 
z
M 1959 2075 
Q 2384 2075 2632 2365 
Q 2881 2656 2881 3163 
Q 2881 3666 2632 3958 
Q 2384 4250 1959 4250 
Q 1534 4250 1286 3958 
Q 1038 3666 1038 3163 
Q 1038 2656 1286 2365 
Q 1534 2075 1959 2075 
z
" transform="scale(0.015625)"/>
      <path id="DejaVuSans-68" d="M 3513 2113 
L 3513 0 
L 2938 0 
L 2938 2094 
Q 2938 2591 2744 2837 
Q 2550 3084 2163 3084 
Q 1697 3084 1428 2787 
Q 1159 2491 1159 1978 
L 1159 0 
L 581 0 
L 581 4863 
L 1159 4863 
L 1159 2956 
Q 1366 3272 1645 3428 
Q 1925 3584 2291 3584 
Q 2894 3584 3203 3211 
Q 3513 2838 3513 2113 
z
" transform="scale(0.015625)"/>
      <path id="DejaVuSans-79" d="M 2059 -325 
Q 1816 -950 1584 -1140 
Q 1353 -1331 966 -1331 
L 506 -1331 
L 506 -850 
L 844 -850 
Q 1081 -850 1212 -737 
Q 1344 -625 1503 -206 
L 1606 56 
L 191 3500 
L 800 3500 
L 1894 763 
L 2988 3500 
L 3597 3500 
L 2059 -325 
z
" transform="scale(0.015625)"/>
      <path id="DejaVuSans-75" d="M 544 1381 
L 544 3500 
L 1119 3500 
L 1119 1403 
Q 1119 906 1312 657 
Q 1506 409 1894 409 
Q 2359 409 2629 706 
Q 2900 1003 2900 1516 
L 2900 3500 
L 3475 3500 
L 3475 0 
L 2900 0 
L 2900 538 
Q 2691 219 2414 64 
Q 2138 -91 1772 -91 
Q 1169 -91 856 284 
Q 544 659 544 1381 
z
M 1991 3584 
L 1991 3584 
z
" transform="scale(0.015625)"/>
      <path id="DejaVuSans-74" d="M 1172 4494 
L 1172 3500 
L 2356 3500 
L 2356 3053 
L 1172 3053 
L 1172 1153 
Q 1172 725 1289 603 
Q 1406 481 1766 481 
L 2356 481 
L 2356 0 
L 1766 0 
Q 1100 0 847 248 
Q 594 497 594 1153 
L 594 3053 
L 172 3053 
L 172 3500 
L 594 3500 
L 594 4494 
L 1172 4494 
z
" transform="scale(0.015625)"/>
      <path id="DejaVuSans-78" d="M 3513 3500 
L 2247 1797 
L 3578 0 
L 2900 0 
L 1881 1375 
L 863 0 
L 184 0 
L 1544 1831 
L 300 3500 
L 978 3500 
L 1906 2253 
L 2834 3500 
L 3513 3500 
z
" transform="scale(0.015625)"/>
      <path id="DejaVuSans-6f" d="M 1959 3097 
Q 1497 3097 1228 2736 
Q 959 2375 959 1747 
Q 959 1119 1226 758 
Q 1494 397 1959 397 
Q 2419 397 2687 759 
Q 2956 1122 2956 1747 
Q 2956 2369 2687 2733 
Q 2419 3097 1959 3097 
z
M 1959 3584 
Q 2709 3584 3137 3096 
Q 3566 2609 3566 1747 
Q 3566 888 3137 398 
Q 2709 -91 1959 -91 
Q 1206 -91 779 398 
Q 353 888 353 1747 
Q 353 2609 779 3096 
Q 1206 3584 1959 3584 
z
" transform="scale(0.015625)"/>
      <path id="DejaVuSans-6e" d="M 3513 2113 
L 3513 0 
L 2938 0 
L 2938 2094 
Q 2938 2591 2744 2837 
Q 2550 3084 2163 3084 
Q 1697 3084 1428 2787 
Q 1159 2491 1159 1978 
L 1159 0 
L 581 0 
L 581 3500 
L 1159 3500 
L 1159 2956 
Q 1366 3272 1645 3428 
Q 1925 3584 2291 3584 
Q 2894 3584 3203 3211 
Q 3513 2838 3513 2113 
z
" transform="scale(0.015625)"/>
      <path id="DejaVuSans-69" d="M 603 3500 
L 1178 3500 
L 1178 0 
L 603 0 
L 603 3500 
z
M 603 4863 
L 1178 4863 
L 1178 4134 
L 603 4134 
L 603 4863 
z
" transform="scale(0.015625)"/>
     </defs>
     <use xlink:href="#DejaVuSans-33"/>
     <use xlink:href="#DejaVuSans-39" x="63.623047"/>
     <use xlink:href="#DejaVuSans-20" x="127.246094"/>
     <use xlink:href="#DejaVuSans-70" x="159.033203"/>
     <use xlink:href="#DejaVuSans-68" x="222.509766"/>
     <use xlink:href="#DejaVuSans-79" x="285.888672"/>
     <use xlink:href="#DejaVuSans-6c" x="345.068359"/>
     <use xlink:href="#DejaVuSans-75" x="372.851562"/>
     <use xlink:href="#DejaVuSans-6d" x="436.230469"/>
     <use xlink:href="#DejaVuSans-20" x="533.642578"/>
     <use xlink:href="#DejaVuSans-74" x="565.429688"/>
     <use xlink:href="#DejaVuSans-61" x="604.638672"/>
     <use xlink:href="#DejaVuSans-78" x="665.917969"/>
     <use xlink:href="#DejaVuSans-6f" x="721.972656"/>
     <use xlink:href="#DejaVuSans-6e" x="783.154297"/>
     <use xlink:href="#DejaVuSans-6f" x="846.533203"/>
     <use xlink:href="#DejaVuSans-6d" x="907.714844"/>
     <use xlink:href="#DejaVuSans-69" x="1005.126953"/>
     <use xlink:href="#DejaVuSans-65" x="1032.910156"/>
     <use xlink:href="#DejaVuSans-73" x="1094.433594"/>
    </g>
   </g>
  </g>
  <g id="axis3d_3">
   <g id="line2d_3">
    <path d="M 600.828868 360.430763 
L 611.312828 131.487856 
" style="fill: none; stroke: #000000; stroke-width: 0.8; stroke-linecap: square"/>
   </g>
   <g id="text_3">
    <!-- Normalized MGI read depth -->
    <g transform="translate(646.090113 311.691166) rotate(-87.378092) scale(0.1 -0.1)">
     <defs>
      <path id="DejaVuSans-4e" d="M 628 4666 
L 1478 4666 
L 3547 763 
L 3547 4666 
L 4159 4666 
L 4159 0 
L 3309 0 
L 1241 3903 
L 1241 0 
L 628 0 
L 628 4666 
z
" transform="scale(0.015625)"/>
      <path id="DejaVuSans-72" d="M 2631 2963 
Q 2534 3019 2420 3045 
Q 2306 3072 2169 3072 
Q 1681 3072 1420 2755 
Q 1159 2438 1159 1844 
L 1159 0 
L 581 0 
L 581 3500 
L 1159 3500 
L 1159 2956 
Q 1341 3275 1631 3429 
Q 1922 3584 2338 3584 
Q 2397 3584 2469 3576 
Q 2541 3569 2628 3553 
L 2631 2963 
z
" transform="scale(0.015625)"/>
      <path id="DejaVuSans-7a" d="M 353 3500 
L 3084 3500 
L 3084 2975 
L 922 459 
L 3084 459 
L 3084 0 
L 275 0 
L 275 525 
L 2438 3041 
L 353 3041 
L 353 3500 
z
" transform="scale(0.015625)"/>
      <path id="DejaVuSans-64" d="M 2906 2969 
L 2906 4863 
L 3481 4863 
L 3481 0 
L 2906 0 
L 2906 525 
Q 2725 213 2448 61 
Q 2172 -91 1784 -91 
Q 1150 -91 751 415 
Q 353 922 353 1747 
Q 353 2572 751 3078 
Q 1150 3584 1784 3584 
Q 2172 3584 2448 3432 
Q 2725 3281 2906 2969 
z
M 947 1747 
Q 947 1113 1208 752 
Q 1469 391 1925 391 
Q 2381 391 2643 752 
Q 2906 1113 2906 1747 
Q 2906 2381 2643 2742 
Q 2381 3103 1925 3103 
Q 1469 3103 1208 2742 
Q 947 2381 947 1747 
z
" transform="scale(0.015625)"/>
      <path id="DejaVuSans-4d" d="M 628 4666 
L 1569 4666 
L 2759 1491 
L 3956 4666 
L 4897 4666 
L 4897 0 
L 4281 0 
L 4281 4097 
L 3078 897 
L 2444 897 
L 1241 4097 
L 1241 0 
L 628 0 
L 628 4666 
z
" transform="scale(0.015625)"/>
      <path id="DejaVuSans-47" d="M 3809 666 
L 3809 1919 
L 2778 1919 
L 2778 2438 
L 4434 2438 
L 4434 434 
Q 4069 175 3628 42 
Q 3188 -91 2688 -91 
Q 1594 -91 976 548 
Q 359 1188 359 2328 
Q 359 3472 976 4111 
Q 1594 4750 2688 4750 
Q 3144 4750 3555 4637 
Q 3966 4525 4313 4306 
L 4313 3634 
Q 3963 3931 3569 4081 
Q 3175 4231 2741 4231 
Q 1884 4231 1454 3753 
Q 1025 3275 1025 2328 
Q 1025 1384 1454 906 
Q 1884 428 2741 428 
Q 3075 428 3337 486 
Q 3600 544 3809 666 
z
" transform="scale(0.015625)"/>
      <path id="DejaVuSans-49" d="M 628 4666 
L 1259 4666 
L 1259 0 
L 628 0 
L 628 4666 
z
" transform="scale(0.015625)"/>
     </defs>
     <use xlink:href="#DejaVuSans-4e"/>
     <use xlink:href="#DejaVuSans-6f" x="74.804688"/>
     <use xlink:href="#DejaVuSans-72" x="135.986328"/>
     <use xlink:href="#DejaVuSans-6d" x="175.349609"/>
     <use xlink:href="#DejaVuSans-61" x="272.761719"/>
     <use xlink:href="#DejaVuSans-6c" x="334.041016"/>
     <use xlink:href="#DejaVuSans-69" x="361.824219"/>
     <use xlink:href="#DejaVuSans-7a" x="389.607422"/>
     <use xlink:href="#DejaVuSans-65" x="442.097656"/>
     <use xlink:href="#DejaVuSans-64" x="503.621094"/>
     <use xlink:href="#DejaVuSans-20" x="567.097656"/>
     <use xlink:href="#DejaVuSans-4d" x="598.884766"/>
     <use xlink:href="#DejaVuSans-47" x="685.164062"/>
     <use xlink:href="#DejaVuSans-49" x="762.654297"/>
     <use xlink:href="#DejaVuSans-20" x="792.146484"/>
     <use xlink:href="#DejaVuSans-72" x="823.933594"/>
     <use xlink:href="#DejaVuSans-65" x="862.796875"/>
     <use xlink:href="#DejaVuSans-61" x="924.320312"/>
     <use xlink:href="#DejaVuSans-64" x="985.599609"/>
     <use xlink:href="#DejaVuSans-20" x="1049.076172"/>
     <use xlink:href="#DejaVuSans-64" x="1080.863281"/>
     <use xlink:href="#DejaVuSans-65" x="1144.339844"/>
     <use xlink:href="#DejaVuSans-70" x="1205.863281"/>
     <use xlink:href="#DejaVuSans-74" x="1269.339844"/>
     <use xlink:href="#DejaVuSans-68" x="1308.548828"/>
    </g>
   </g>
  </g>
  <g id="axes_1">
   <g id="Poly3DCollection_1">
    <path d="M 298.526187 298.026508 
L 326.198656 303.914108 
L 330.020838 289.296018 
L 302.292131 281.097412 
z
" clip-path="url(#p152efe74a7)" style="fill: #d55fd5"/>
    <path d="M 294.578963 301.56887 
L 322.301676 309.618478 
L 326.198656 303.914108 
L 298.526187 298.026508 
z
" clip-path="url(#p152efe74a7)" style="fill: #e5e52e"/>
    <path d="M 290.613915 304.920332 
L 318.372821 313.165636 
L 322.301676 309.618478 
L 294.578963 301.56887 
z
" clip-path="url(#p152efe74a7)" style="fill: #2f6d9f"/>
    <path d="M 310.200505 280.20532 
L 337.656911 257.488353 
L 341.00555 143.412907 
L 313.828507 250.469893 
z
" clip-path="url(#p152efe74a7)" style="fill: #d861d8"/>
    <path d="M 333.715258 254.211194 
L 361.876691 302.139842 
L 365.716209 299.1737 
L 337.656911 257.488353 
z
" clip-path="url(#p152efe74a7)" style="fill: #5f2b5f"/>
    <path d="M 286.633935 308.303378 
L 314.427027 316.525897 
L 318.372821 313.165636 
L 290.613915 304.920332 
z
" clip-path="url(#p152efe74a7)" style="fill: #245379"/>
    <path d="M 322.301676 309.618478 
L 350.287715 318.016775 
L 354.165629 313.8874 
L 326.198656 303.914108 
z
" clip-path="url(#p152efe74a7)" style="fill: #d7d72b"/>
    <path d="M 282.635805 311.523524 
L 310.463751 319.700029 
L 314.427027 316.525897 
L 286.633935 308.303378 
z
" clip-path="url(#p152efe74a7)" style="fill: #1e4564"/>
    <path d="M 326.198656 303.914108 
L 354.165629 313.8874 
L 357.943633 259.10671 
L 330.020838 289.296018 
z
" clip-path="url(#p152efe74a7)" style="fill: #c95ac9"/>
    <path d="M 330.020838 289.296018 
L 357.943633 259.10671 
L 361.876691 302.139842 
L 333.715258 254.211194 
z
" clip-path="url(#p152efe74a7)" style="fill: #8e408e"/>
    <path d="M 318.372821 313.165636 
L 346.393187 321.475817 
L 350.287715 318.016775 
L 322.301676 309.618478 
z
" clip-path="url(#p152efe74a7)" style="fill: #dfdf2d"/>
    <path d="M 278.627673 315.086861 
L 306.489762 323.313388 
L 310.463751 319.700029 
L 282.635805 311.523524 
z
" clip-path="url(#p152efe74a7)" style="fill: #357ab2"/>
    <path d="M 361.876691 302.139842 
L 390.066903 306.302863 
L 394.195676 241.335976 
L 365.716209 299.1737 
z
" clip-path="url(#p152efe74a7)" style="fill: #cf5dcf"/>
    <path d="M 304.088411 94.819781 
L 333.715258 254.211194 
L 337.656911 257.488353 
L 310.200505 280.20532 
z
" clip-path="url(#p152efe74a7)" style="fill: #5e2a5e"/>
    <path d="M 314.427027 316.525897 
L 342.483328 324.883862 
L 346.393187 321.475817 
L 318.372821 313.165636 
z
" clip-path="url(#p152efe74a7)" style="fill: #535311"/>
    <path d="M 302.292131 281.097412 
L 330.020838 289.296018 
L 333.715258 254.211194 
L 304.088411 94.819781 
z
" clip-path="url(#p152efe74a7)" style="fill: #316fa2"/>
    <path d="M 350.287715 318.016775 
L 378.537344 326.325479 
L 382.384667 321.579208 
L 354.165629 313.8874 
z
" clip-path="url(#p152efe74a7)" style="fill: #cd5ccd"/>
    <path d="M 274.601051 318.480165 
L 302.499364 326.837498 
L 306.489762 323.313388 
L 278.627673 315.086861 
z
" clip-path="url(#p152efe74a7)" style="fill: #3170a3"/>
    <path d="M 310.463751 319.700029 
L 338.547399 326.328126 
L 342.483328 324.883862 
L 314.427027 316.525897 
z
" clip-path="url(#p152efe74a7)" style="fill: #904190"/>
    <path d="M 357.943633 259.10671 
L 386.36737 277.490023 
L 390.066903 306.302863 
L 361.876691 302.139842 
z
" clip-path="url(#p152efe74a7)" style="fill: #522552"/>
    <path d="M 346.393187 321.475817 
L 374.678924 329.859387 
L 378.537344 326.325479 
L 350.287715 318.016775 
z
" clip-path="url(#p152efe74a7)" style="fill: #e4e42e"/>
    <path d="M 270.559699 321.932921 
L 298.492832 330.318 
L 302.499364 326.837498 
L 274.601051 318.480165 
z
" clip-path="url(#p152efe74a7)" style="fill: #d4181a"/>
    <path d="M 354.165629 313.8874 
L 382.384667 321.579208 
L 386.36737 277.490023 
L 357.943633 259.10671 
z
" clip-path="url(#p152efe74a7)" style="fill: #cc5bcc"/>
    <path d="M 306.489762 323.313388 
L 334.618079 331.77128 
L 338.547399 326.328126 
L 310.463751 319.700029 
z
" clip-path="url(#p152efe74a7)" style="fill: #e0e02d"/>
    <path d="M 342.483328 324.883862 
L 370.80572 333.267138 
L 374.678924 329.859387 
L 346.393187 321.475817 
z
" clip-path="url(#p152efe74a7)" style="fill: #863c86"/>
    <path d="M 266.501835 325.352646 
L 294.46947 333.721476 
L 298.492832 330.318 
L 270.559699 321.932921 
z
" clip-path="url(#p152efe74a7)" style="fill: #235074"/>
    <path d="M 378.537344 326.325479 
L 407.055087 334.803048 
L 410.862853 331.138731 
L 382.384667 321.579208 
z
" clip-path="url(#p152efe74a7)" style="fill: #d3d32a"/>
    <path d="M 302.499364 326.837498 
L 330.66263 335.260856 
L 334.618079 331.77128 
L 306.489762 323.313388 
z
" clip-path="url(#p152efe74a7)" style="fill: #e165e1"/>
    <path d="M 386.36737 277.490023 
L 414.885618 302.823284 
L 418.535637 313.819481 
L 390.066903 306.302863 
z
" clip-path="url(#p152efe74a7)" style="fill: #4a214a"/>
    <path d="M 337.656911 257.488353 
L 365.716209 299.1737 
L 369.635597 116.621432 
L 341.00555 143.412907 
z
" clip-path="url(#p152efe74a7)" style="fill: #c056c0"/>
    <path d="M 390.066903 306.302863 
L 418.535637 313.819481 
L 422.744837 269.529912 
L 394.195676 241.335976 
z
" clip-path="url(#p152efe74a7)" style="fill: #cc5bcc"/>
    <path d="M 338.547399 326.328126 
L 366.917321 336.781575 
L 370.80572 333.267138 
L 342.483328 324.883862 
z
" clip-path="url(#p152efe74a7)" style="fill: #612b61"/>
    <path d="M 262.427752 328.763903 
L 290.431645 337.227743 
L 294.46947 333.721476 
L 266.501835 325.352646 
z
" clip-path="url(#p152efe74a7)" style="fill: #2d6797"/>
    <path d="M 382.384667 321.579208 
L 410.862853 331.138731 
L 414.885618 302.823284 
L 386.36737 277.490023 
z
" clip-path="url(#p152efe74a7)" style="fill: #c95ac9"/>
    <path d="M 374.678924 329.859387 
L 403.233937 338.313821 
L 407.055087 334.803048 
L 378.537344 326.325479 
z
" clip-path="url(#p152efe74a7)" style="fill: #f5f531"/>
    <path d="M 298.492832 330.318 
L 326.691897 338.780959 
L 330.66263 335.260856 
L 302.499364 326.837498 
z
" clip-path="url(#p152efe74a7)" style="fill: #eeee30"/>
    <path d="M 334.618079 331.77128 
L 363.013774 340.297238 
L 366.917321 336.781575 
L 338.547399 326.328126 
z
" clip-path="url(#p152efe74a7)" style="fill: #843b84"/>
    <path d="M 258.339266 332.25966 
L 286.376998 340.678743 
L 290.431645 337.227743 
L 262.427752 328.763903 
z
" clip-path="url(#p152efe74a7)" style="fill: #285c87"/>
    <path d="M 370.80572 333.267138 
L 399.398147 341.796643 
L 403.233937 338.313821 
L 374.678924 329.859387 
z
" clip-path="url(#p152efe74a7)" style="fill: #575711"/>
    <path d="M 294.46947 333.721476 
L 322.705065 342.242729 
L 326.691897 338.780959 
L 298.492832 330.318 
z
" clip-path="url(#p152efe74a7)" style="fill: #575711"/>
    <path d="M 418.535637 313.819481 
L 447.435728 311.690545 
L 451.235693 304.514168 
L 422.744837 269.529912 
z
" clip-path="url(#p152efe74a7)" style="fill: #da62da"/>
    <path d="M 407.055087 334.803048 
L 435.846648 343.200727 
L 439.631033 338.547792 
L 410.862853 331.138731 
z
" clip-path="url(#p152efe74a7)" style="fill: #d05dd0"/>
    <path d="M 414.885618 302.823284 
L 443.757689 310.081282 
L 447.435728 311.690545 
L 418.535637 313.819481 
z
" clip-path="url(#p152efe74a7)" style="fill: #6d316d"/>
    <path d="M 330.66263 335.260856 
L 359.094961 343.814158 
L 363.013774 340.297238 
L 334.618079 331.77128 
z
" clip-path="url(#p152efe74a7)" style="fill: #753575"/>
    <path d="M 254.233593 335.709358 
L 282.307947 344.236904 
L 286.376998 340.678743 
L 258.339266 332.25966 
z
" clip-path="url(#p152efe74a7)" style="fill: #2f6d9f"/>
    <path d="M 410.862853 331.138731 
L 439.631033 338.547792 
L 443.757689 310.081282 
L 414.885618 302.823284 
z
" clip-path="url(#p152efe74a7)" style="fill: #cd5ccd"/>
    <path d="M 366.917321 336.781575 
L 395.546983 345.350098 
L 399.398147 341.796643 
L 370.80572 333.267138 
z
" clip-path="url(#p152efe74a7)" style="fill: #26567e"/>
    <path d="M 290.431645 337.227743 
L 318.703128 345.780031 
L 322.705065 342.242729 
L 294.46947 333.721476 
z
" clip-path="url(#p152efe74a7)" style="fill: #bbbb25"/>
    <path d="M 365.716209 299.1737 
L 394.195676 241.335976 
L 398.352562 184.276959 
L 369.635597 116.621432 
z
" clip-path="url(#p152efe74a7)" style="fill: #e165e1"/>
    <path d="M 403.233937 338.313821 
L 432.062092 346.851579 
L 435.846648 343.200727 
L 407.055087 334.803048 
z
" clip-path="url(#p152efe74a7)" style="fill: #cf5dcf"/>
    <path d="M 326.691897 338.780959 
L 355.160736 347.319879 
L 359.094961 343.814158 
L 330.66263 335.260856 
z
" clip-path="url(#p152efe74a7)" style="fill: #984498"/>
    <path d="M 250.112942 339.220622 
L 278.222497 347.779196 
L 282.307947 344.236904 
L 254.233593 335.709358 
z
" clip-path="url(#p152efe74a7)" style="fill: #2f6d9f"/>
    <path d="M 363.013774 340.297238 
L 391.681435 348.779063 
L 395.546983 345.350098 
L 366.917321 336.781575 
z
" clip-path="url(#p152efe74a7)" style="fill: #235074"/>
    <path d="M 286.376998 340.678743 
L 314.685236 349.303992 
L 318.703128 345.780031 
L 290.431645 337.227743 
z
" clip-path="url(#p152efe74a7)" style="fill: #686815"/>
    <path d="M 399.398147 341.796643 
L 428.264775 350.357256 
L 432.062092 346.851579 
L 403.233937 338.313821 
z
" clip-path="url(#p152efe74a7)" style="fill: #904090"/>
    <path d="M 322.705065 342.242729 
L 351.211065 350.851905 
L 355.160736 347.319879 
L 326.691897 338.780959 
z
" clip-path="url(#p152efe74a7)" style="fill: #602b60"/>
    <path d="M 245.97538 342.710595 
L 274.120202 351.29032 
L 278.222497 347.779196 
L 250.112942 339.220622 
z
" clip-path="url(#p152efe74a7)" style="fill: #1d4363"/>
    <path d="M 359.094961 343.814158 
L 387.799725 352.418671 
L 391.681435 348.779063 
L 363.013774 340.297238 
z
" clip-path="url(#p152efe74a7)" style="fill: #dfdf2d"/>
    <path d="M 435.846648 343.200727 
L 464.914956 351.713633 
L 468.725242 344.093478 
L 439.631033 338.547792 
z
" clip-path="url(#p152efe74a7)" style="fill: #cc5bcc"/>
    <path d="M 282.307947 344.236904 
L 310.651691 352.856637 
L 314.685236 349.303992 
L 286.376998 340.678743 
z
" clip-path="url(#p152efe74a7)" style="fill: #a0a020"/>
    <path d="M 439.631033 338.547792 
L 468.725242 344.093478 
L 472.910903 317.829905 
L 443.757689 310.081282 
z
" clip-path="url(#p152efe74a7)" style="fill: #d25ed2"/>
    <path d="M 395.546983 345.350098 
L 424.451924 353.92509 
L 428.264775 350.357256 
L 399.398147 341.796643 
z
" clip-path="url(#p152efe74a7)" style="fill: #f7f731"/>
    <path d="M 318.703128 345.780031 
L 347.245824 354.394712 
L 351.211065 350.851905 
L 322.705065 342.242729 
z
" clip-path="url(#p152efe74a7)" style="fill: #b9b925"/>
    <path d="M 241.822255 346.242008 
L 270.002325 354.847856 
L 274.120202 351.29032 
L 245.97538 342.710595 
z
" clip-path="url(#p152efe74a7)" style="fill: #357ab2"/>
    <path d="M 432.062092 346.851579 
L 461.166943 355.492496 
L 464.914956 351.713633 
L 435.846648 343.200727 
z
" clip-path="url(#p152efe74a7)" style="fill: #dede2c"/>
    <path d="M 355.160736 347.319879 
L 383.903304 355.941917 
L 387.799725 352.418671 
L 359.094961 343.814158 
z
" clip-path="url(#p152efe74a7)" style="fill: #1d4361"/>
    <path d="M 278.222497 347.779196 
L 306.602212 356.419102 
L 310.651691 352.856637 
L 282.307947 344.236904 
z
" clip-path="url(#p152efe74a7)" style="fill: #d9d92b"/>
    <path d="M 394.195676 241.335976 
L 422.744837 269.529912 
L 427.853884 150.699732 
L 398.352562 184.276959 
z
" clip-path="url(#p152efe74a7)" style="fill: #c156c1"/>
    <path d="M 391.681435 348.779063 
L 420.624083 357.505142 
L 424.451924 353.92509 
L 395.546983 345.350098 
z
" clip-path="url(#p152efe74a7)" style="fill: #713271"/>
    <path d="M 314.685236 349.303992 
L 343.265016 357.970312 
L 347.245824 354.394712 
L 318.703128 345.780031 
z
" clip-path="url(#p152efe74a7)" style="fill: #9e479e"/>
    <path d="M 237.652475 349.77265 
L 265.868389 358.428557 
L 270.002325 354.847856 
L 241.822255 346.242008 
z
" clip-path="url(#p152efe74a7)" style="fill: #cf1819"/>
    <path d="M 428.264775 350.357256 
L 457.409005 359.029876 
L 461.166943 355.492496 
L 432.062092 346.851579 
z
" clip-path="url(#p152efe74a7)" style="fill: #5b5b12"/>
    <path d="M 351.211065 350.851905 
L 379.991344 359.519408 
L 383.903304 355.941917 
L 355.160736 347.319879 
z
" clip-path="url(#p152efe74a7)" style="fill: #3272a7"/>
    <path d="M 274.120202 351.29032 
L 302.536457 359.97254 
L 306.602212 356.419102 
L 278.222497 347.779196 
z
" clip-path="url(#p152efe74a7)" style="fill: #545411"/>
    <path d="M 447.435728 311.690545 
L 479.007276 202.696644 
L 480.347689 310.214252 
L 451.235693 304.514168 
z
" clip-path="url(#p152efe74a7)" style="fill: #984498"/>
    <path d="M 464.914956 351.713633 
L 494.256803 360.609261 
L 497.946479 357.012157 
L 468.725242 344.093478 
z
" clip-path="url(#p152efe74a7)" style="fill: #672e67"/>
    <path d="M 387.799725 352.418671 
L 416.781089 361.104801 
L 420.624083 357.505142 
L 391.681435 348.779063 
z
" clip-path="url(#p152efe74a7)" style="fill: #c659c6"/>
    <path d="M 310.651691 352.856637 
L 339.268406 361.544336 
L 343.265016 357.970312 
L 314.685236 349.303992 
z
" clip-path="url(#p152efe74a7)" style="fill: #d0d02a"/>
    <path d="M 233.466209 353.314259 
L 261.717741 362.004359 
L 265.868389 358.428557 
L 237.652475 349.77265 
z
" clip-path="url(#p152efe74a7)" style="fill: #cc1719"/>
    <path d="M 424.451924 353.92509 
L 453.662889 361.008792 
L 457.409005 359.029876 
L 428.264775 350.357256 
z
" clip-path="url(#p152efe74a7)" style="fill: #a6a621"/>
    <path d="M 451.235693 304.514168 
L 480.347689 310.214252 
L 484.644783 280.006758 
L 457.63788 144.213744 
z
" clip-path="url(#p152efe74a7)" style="fill: #d05dd0"/>
    <path d="M 347.245824 354.394712 
L 376.06397 363.082615 
L 379.991344 359.519408 
L 351.211065 350.851905 
z
" clip-path="url(#p152efe74a7)" style="fill: #894665"/>
    <path d="M 270.002325 354.847856 
L 298.454982 363.569806 
L 302.536457 359.97254 
L 274.120202 351.29032 
z
" clip-path="url(#p152efe74a7)" style="fill: #a7a721"/>
    <path d="M 443.757689 310.081282 
L 472.910903 317.829905 
L 479.007276 202.696644 
L 447.435728 311.690545 
z
" clip-path="url(#p152efe74a7)" style="fill: #cc5bcc"/>
    <path d="M 461.166943 355.492496 
L 490.552515 364.2222 
L 494.256803 360.609261 
L 464.914956 351.713633 
z
" clip-path="url(#p152efe74a7)" style="fill: #aa4caa"/>
    <path d="M 383.903304 355.941917 
L 412.923566 364.646385 
L 416.781089 361.104801 
L 387.799725 352.418671 
z
" clip-path="url(#p152efe74a7)" style="fill: #7e7e19"/>
    <path d="M 306.602212 356.419102 
L 335.256058 365.148234 
L 339.268406 361.544336 
L 310.651691 352.856637 
z
" clip-path="url(#p152efe74a7)" style="fill: #c4c427"/>
    <path d="M 468.725242 344.093478 
L 497.946479 357.012157 
L 503.254955 291.432603 
L 472.910903 317.829905 
z
" clip-path="url(#p152efe74a7)" style="fill: #c759c7"/>
    <path d="M 229.263353 356.866904 
L 257.550554 365.590125 
L 261.717741 362.004359 
L 233.466209 353.314259 
z
" clip-path="url(#p152efe74a7)" style="fill: #224d71"/>
    <path d="M 422.744837 269.529912 
L 451.235693 304.514168 
L 457.63788 144.213744 
L 427.853884 150.699732 
z
" clip-path="url(#p152efe74a7)" style="fill: #c156c1"/>
    <path d="M 420.624083 357.505142 
L 449.84695 366.230565 
L 453.662889 361.008792 
L 424.451924 353.92509 
z
" clip-path="url(#p152efe74a7)" style="fill: #cb5bcb"/>
    <path d="M 343.265016 357.970312 
L 372.120952 366.701587 
L 376.06397 363.082615 
L 347.245824 354.394712 
z
" clip-path="url(#p152efe74a7)" style="fill: #3376ac"/>
    <path d="M 265.868389 358.428557 
L 294.357169 367.169106 
L 298.454982 363.569806 
L 270.002325 354.847856 
z
" clip-path="url(#p152efe74a7)" style="fill: #f3f331"/>
    <path d="M 457.409005 359.029876 
L 486.836887 367.708384 
L 490.552515 364.2222 
L 461.166943 355.492496 
z
" clip-path="url(#p152efe74a7)" style="fill: #843b84"/>
    <path d="M 379.991344 359.519408 
L 409.050058 368.275393 
L 412.923566 364.646385 
L 383.903304 355.941917 
z
" clip-path="url(#p152efe74a7)" style="fill: #d9d92b"/>
    <path d="M 505.338069 347.803493 
L 534.988385 352.50094 
L 538.678204 346.535104 
L 511.558816 251.479773 
z
" clip-path="url(#p152efe74a7)" style="fill: #df64df"/>
    <path d="M 302.536457 359.97254 
L 331.227521 368.725514 
L 335.256058 365.148234 
L 306.602212 356.419102 
z
" clip-path="url(#p152efe74a7)" style="fill: #747417"/>
    <path d="M 225.044046 360.439464 
L 253.36669 369.184684 
L 257.550554 365.590125 
L 229.263353 356.866904 
z
" clip-path="url(#p152efe74a7)" style="fill: #a61314"/>
    <path d="M 494.256803 360.609261 
L 523.888947 369.306378 
L 527.591689 363.966962 
L 497.946479 357.012157 
z
" clip-path="url(#p152efe74a7)" style="fill: #cd5ccd"/>
    <path d="M 416.781089 361.104801 
L 446.043271 369.862261 
L 449.84695 366.230565 
L 420.624083 357.505142 
z
" clip-path="url(#p152efe74a7)" style="fill: #3578b0"/>
    <path d="M 480.347689 310.214252 
L 511.558816 251.479773 
L 515.219962 249.220507 
L 484.644783 280.006758 
z
" clip-path="url(#p152efe74a7)" style="fill: #ca5bca"/>
    <path d="M 339.268406 361.544336 
L 368.16231 370.317126 
L 372.120952 366.701587 
L 343.265016 357.970312 
z
" clip-path="url(#p152efe74a7)" style="fill: #2f6c9d"/>
    <path d="M 261.717741 362.004359 
L 290.243041 370.780494 
L 294.357169 367.169106 
L 265.868389 358.428557 
z
" clip-path="url(#p152efe74a7)" style="fill: #f0f030"/>
    <path d="M 534.988385 352.50094 
L 565.164927 352.276131 
L 568.743944 348.540978 
L 538.678204 346.535104 
z
" clip-path="url(#p152efe74a7)" style="fill: #cc5bcc"/>
    <path d="M 453.662889 361.008792 
L 483.102375 371.381583 
L 486.836887 367.708384 
L 457.409005 359.029876 
z
" clip-path="url(#p152efe74a7)" style="fill: #622c62"/>
    <path d="M 376.06397 363.082615 
L 405.161719 371.848147 
L 409.050058 368.275393 
L 379.991344 359.519408 
z
" clip-path="url(#p152efe74a7)" style="fill: #7e397e"/>
    <path d="M 298.454982 363.569806 
L 327.18331 372.367467 
L 331.227521 368.725514 
L 302.536457 359.97254 
z
" clip-path="url(#p152efe74a7)" style="fill: #d2d22a"/>
    <path d="M 503.254955 291.432603 
L 532.574992 318.465664 
L 534.988385 352.50094 
L 505.338069 347.803493 
z
" clip-path="url(#p152efe74a7)" style="fill: #4e234e"/>
    <path d="M 220.807952 364.023227 
L 249.16653 372.80944 
L 253.36669 369.184684 
L 225.044046 360.439464 
z
" clip-path="url(#p152efe74a7)" style="fill: #de191b"/>
    <path d="M 490.552515 364.2222 
L 520.223365 373.023052 
L 523.888947 369.306378 
L 494.256803 360.609261 
z
" clip-path="url(#p152efe74a7)" style="fill: #ca5aca"/>
    <path d="M 479.007276 202.696644 
L 505.338069 347.803493 
L 511.558816 251.479773 
L 480.347689 310.214252 
z
" clip-path="url(#p152efe74a7)" style="fill: #883d88"/>
    <path d="M 412.923566 364.646385 
L 442.224661 373.496778 
L 446.043271 369.862261 
L 416.781089 361.104801 
z
" clip-path="url(#p152efe74a7)" style="fill: #7c7c19"/>
    <path d="M 472.910903 317.829905 
L 503.254955 291.432603 
L 505.338069 347.803493 
L 479.007276 202.696644 
z
" clip-path="url(#p152efe74a7)" style="fill: #823a82"/>
    <path d="M 335.256058 365.148234 
L 364.187917 373.94671 
L 368.16231 370.317126 
L 339.268406 361.544336 
z
" clip-path="url(#p152efe74a7)" style="fill: #e0191b"/>
    <path d="M 257.550554 365.590125 
L 286.112369 374.396116 
L 290.243041 370.780494 
L 261.717741 362.004359 
z
" clip-path="url(#p152efe74a7)" style="fill: #90901d"/>
    <path d="M 449.84695 366.230565 
L 479.354194 375.018585 
L 483.102375 371.381583 
L 453.662889 361.008792 
z
" clip-path="url(#p152efe74a7)" style="fill: #d961d9"/>
    <path d="M 497.946479 357.012157 
L 527.591689 363.966962 
L 532.574992 318.465664 
L 503.254955 291.432603 
z
" clip-path="url(#p152efe74a7)" style="fill: #cd5ccd"/>
    <path d="M 372.120952 366.701587 
L 401.257131 375.537169 
L 405.161719 371.848147 
L 376.06397 363.082615 
z
" clip-path="url(#p152efe74a7)" style="fill: #d3d32a"/>
    <path d="M 294.357169 367.169106 
L 323.122749 375.992356 
L 327.18331 372.367467 
L 298.454982 363.569806 
z
" clip-path="url(#p152efe74a7)" style="fill: #8d8d1c"/>
    <path d="M 216.555052 367.621209 
L 244.949521 376.443919 
L 249.16653 372.80944 
L 220.807952 364.023227 
z
" clip-path="url(#p152efe74a7)" style="fill: #d3181a"/>
    <path d="M 486.836887 367.708384 
L 516.547173 376.622906 
L 520.223365 373.023052 
L 490.552515 364.2222 
z
" clip-path="url(#p152efe74a7)" style="fill: #4f244f"/>
    <path d="M 409.050058 368.275393 
L 438.391641 377.088809 
L 442.224661 373.496778 
L 412.923566 364.646385 
z
" clip-path="url(#p152efe74a7)" style="fill: #8e8e1c"/>
    <path d="M 331.227521 368.725514 
L 360.197664 377.57954 
L 364.187917 373.94671 
L 335.256058 365.148234 
z
" clip-path="url(#p152efe74a7)" style="fill: #132c41"/>
    <path d="M 532.574992 318.465664 
L 561.330095 362.375093 
L 565.164927 352.276131 
L 534.988385 352.50094 
z
" clip-path="url(#p152efe74a7)" style="fill: #6b306b"/>
    <path d="M 253.36669 369.184684 
L 281.965386 378.03735 
L 286.112369 374.396116 
L 257.550554 365.590125 
z
" clip-path="url(#p152efe74a7)" style="fill: #1b3f5c"/>
    <path d="M 523.888947 369.306378 
L 553.805398 378.217695 
L 557.41375 374.520535 
L 527.591689 363.966962 
z
" clip-path="url(#p152efe74a7)" style="fill: #924192"/>
    <path d="M 446.043271 369.862261 
L 475.589984 378.720696 
L 479.354194 375.018585 
L 449.84695 366.230565 
z
" clip-path="url(#p152efe74a7)" style="fill: #c659c6"/>
    <path d="M 368.16231 370.317126 
L 397.337437 379.175528 
L 401.257131 375.537169 
L 372.120952 366.701587 
z
" clip-path="url(#p152efe74a7)" style="fill: #616113"/>
    <path d="M 527.591689 363.966962 
L 557.41375 374.520535 
L 561.330095 362.375093 
L 532.574992 318.465664 
z
" clip-path="url(#p152efe74a7)" style="fill: #bf56bf"/>
    <path d="M 290.243041 370.780494 
L 319.046079 379.644365 
L 323.122749 375.992356 
L 294.357169 367.169106 
z
" clip-path="url(#p152efe74a7)" style="fill: #b852b8"/>
    <path d="M 212.285066 371.227602 
L 240.715699 380.094158 
L 244.949521 376.443919 
L 216.555052 367.621209 
z
" clip-path="url(#p152efe74a7)" style="fill: #2f6c9d"/>
    <path d="M 483.102375 371.381583 
L 512.858288 380.165932 
L 516.547173 376.622906 
L 486.836887 367.708384 
z
" clip-path="url(#p152efe74a7)" style="fill: #8d3f8d"/>
    <path d="M 405.161719 371.848147 
L 434.542677 380.737343 
L 438.391641 377.088809 
L 409.050058 368.275393 
z
" clip-path="url(#p152efe74a7)" style="fill: #163249"/>
    <path d="M 327.18331 372.367467 
L 356.191484 381.241135 
L 360.197664 377.57954 
L 331.227521 368.725514 
z
" clip-path="url(#p152efe74a7)" style="fill: #d9191b"/>
    <path d="M 249.16653 372.80944 
L 277.801899 381.69735 
L 281.965386 378.03735 
L 253.36669 369.184684 
z
" clip-path="url(#p152efe74a7)" style="fill: #a5a521"/>
    <path d="M 520.223365 373.023052 
L 550.1841 381.890615 
L 553.805398 378.217695 
L 523.888947 369.306378 
z
" clip-path="url(#p152efe74a7)" style="fill: #fafa32"/>
    <path d="M 442.224661 373.496778 
L 471.811894 382.384854 
L 475.589984 378.720696 
L 446.043271 369.862261 
z
" clip-path="url(#p152efe74a7)" style="fill: #e4e42e"/>
    <path d="M 364.187917 373.94671 
L 393.402018 382.834898 
L 397.337437 379.175528 
L 368.16231 370.317126 
z
" clip-path="url(#p152efe74a7)" style="fill: #eeee30"/>
    <path d="M 286.112369 374.396116 
L 314.95288 383.288841 
L 319.046079 379.644365 
L 290.243041 370.780494 
z
" clip-path="url(#p152efe74a7)" style="fill: #7d7d19"/>
    <path d="M 207.998428 374.860169 
L 236.464833 383.755018 
L 240.715699 380.094158 
L 212.285066 371.227602 
z
" clip-path="url(#p152efe74a7)" style="fill: #c01618"/>
    <path d="M 479.354194 375.018585 
L 509.149186 383.912525 
L 512.858288 380.165932 
L 483.102375 371.381583 
z
" clip-path="url(#p152efe74a7)" style="fill: #e8e82e"/>
    <path d="M 401.257131 375.537169 
L 430.677865 384.434865 
L 434.542677 380.737343 
L 405.161719 371.848147 
z
" clip-path="url(#p152efe74a7)" style="fill: #f1f130"/>
    <path d="M 323.122749 375.992356 
L 352.169252 384.910561 
L 356.191484 381.241135 
L 327.18331 372.367467 
z
" clip-path="url(#p152efe74a7)" style="fill: #1e4565"/>
    <path d="M 244.949521 376.443919 
L 273.621611 385.364901 
L 277.801899 381.69735 
L 249.16653 372.80944 
z
" clip-path="url(#p152efe74a7)" style="fill: #606013"/>
    <path d="M 516.547173 376.622906 
L 546.550033 385.5297 
L 550.1841 381.890615 
L 520.223365 373.023052 
z
" clip-path="url(#p152efe74a7)" style="fill: #86861b"/>
    <path d="M 438.391641 377.088809 
L 468.019898 386.002136 
L 471.811894 382.384854 
L 442.224661 373.496778 
z
" clip-path="url(#p152efe74a7)" style="fill: #1a3b56"/>
    <path d="M 360.197664 377.57954 
L 389.45084 386.505248 
L 393.402018 382.834898 
L 364.187917 373.94671 
z
" clip-path="url(#p152efe74a7)" style="fill: #a5a521"/>
    <path d="M 281.965386 378.03735 
L 310.843555 386.976454 
L 314.95288 383.288841 
L 286.112369 374.396116 
z
" clip-path="url(#p152efe74a7)" style="fill: #c1c127"/>
    <path d="M 203.694502 378.501319 
L 232.19708 387.4368 
L 236.464833 383.755018 
L 207.998428 374.860169 
z
" clip-path="url(#p152efe74a7)" style="fill: #d9191b"/>
    <path d="M 475.589984 378.720696 
L 505.426175 387.642964 
L 509.149186 383.912525 
L 479.354194 375.018585 
z
" clip-path="url(#p152efe74a7)" style="fill: #f1f130"/>
    <path d="M 397.337437 379.175528 
L 426.798193 388.096656 
L 430.677865 384.434865 
L 401.257131 375.537169 
z
" clip-path="url(#p152efe74a7)" style="fill: #b0b023"/>
    <path d="M 319.046079 379.644365 
L 348.130867 388.590408 
L 352.169252 384.910561 
L 323.122749 375.992356 
z
" clip-path="url(#p152efe74a7)" style="fill: #a61314"/>
    <path d="M 240.715699 380.094158 
L 269.424604 389.050537 
L 273.621611 385.364901 
L 244.949521 376.443919 
z
" clip-path="url(#p152efe74a7)" style="fill: #98981e"/>
    <path d="M 512.858288 380.165932 
L 542.898266 389.271938 
L 546.550033 385.5297 
L 516.547173 376.622906 
z
" clip-path="url(#p152efe74a7)" style="fill: #703a53"/>
    <path d="M 511.558816 251.479773 
L 538.678204 346.535104 
L 548.57253 158.944742 
L 515.219962 249.220507 
z
" clip-path="url(#p152efe74a7)" style="fill: #af4eaf"/>
    <path d="M 434.542677 380.737343 
L 464.211233 389.704967 
L 468.019898 386.002136 
L 438.391641 377.088809 
z
" clip-path="url(#p152efe74a7)" style="fill: #a6557a"/>
    <path d="M 356.191484 381.241135 
L 385.483726 390.206965 
L 389.45084 386.505248 
L 360.197664 377.57954 
z
" clip-path="url(#p152efe74a7)" style="fill: #c558c5"/>
    <path d="M 277.801899 381.69735 
L 306.717628 390.669353 
L 310.843555 386.976454 
L 281.965386 378.03735 
z
" clip-path="url(#p152efe74a7)" style="fill: #a4a421"/>
    <path d="M 199.373266 382.154073 
L 227.911816 391.119884 
L 232.19708 387.4368 
L 203.694502 378.501319 
z
" clip-path="url(#p152efe74a7)" style="fill: #234f73"/>
    <path d="M 471.811894 382.384854 
L 501.689145 391.355665 
L 505.426175 387.642964 
L 475.589984 378.720696 
z
" clip-path="url(#p152efe74a7)" style="fill: #eded2f"/>
    <path d="M 393.402018 382.834898 
L 422.902436 391.814885 
L 426.798193 388.096656 
L 397.337437 379.175528 
z
" clip-path="url(#p152efe74a7)" style="fill: #e1e12d"/>
    <path d="M 314.95288 383.288841 
L 344.07624 392.285329 
L 348.130867 388.590408 
L 319.046079 379.644365 
z
" clip-path="url(#p152efe74a7)" style="fill: #163249"/>
    <path d="M 236.464833 383.755018 
L 265.210657 392.747826 
L 269.424604 389.050537 
L 240.715699 380.094158 
z
" clip-path="url(#p152efe74a7)" style="fill: #626214"/>
    <path d="M 509.149186 383.912525 
L 539.234162 392.962253 
L 542.898266 389.271938 
L 512.858288 380.165932 
z
" clip-path="url(#p152efe74a7)" style="fill: #626214"/>
    <path d="M 430.677865 384.434865 
L 460.38742 393.414375 
L 464.211233 389.704967 
L 434.542677 380.737343 
z
" clip-path="url(#p152efe74a7)" style="fill: #357ab2"/>
    <path d="M 352.169252 384.910561 
L 381.500703 393.910619 
L 385.483726 390.206965 
L 356.191484 381.241135 
z
" clip-path="url(#p152efe74a7)" style="fill: #eded2f"/>
    <path d="M 273.621611 385.364901 
L 302.574814 394.354891 
L 306.717628 390.669353 
L 277.801899 381.69735 
z
" clip-path="url(#p152efe74a7)" style="fill: #9b9b1f"/>
    <path d="M 195.034808 385.824431 
L 223.609618 394.829816 
L 227.911816 391.119884 
L 199.373266 382.154073 
z
" clip-path="url(#p152efe74a7)" style="fill: #367cb5"/>
    <path d="M 468.019898 386.002136 
L 497.938139 395.042807 
L 501.689145 391.355665 
L 471.811894 382.384854 
z
" clip-path="url(#p152efe74a7)" style="fill: #535311"/>
    <path d="M 389.45084 386.505248 
L 418.991456 395.505758 
L 422.902436 391.814885 
L 393.402018 382.834898 
z
" clip-path="url(#p152efe74a7)" style="fill: #9f9f20"/>
    <path d="M 310.843555 386.976454 
L 340.005281 395.996647 
L 344.07624 392.285329 
L 314.95288 383.288841 
z
" clip-path="url(#p152efe74a7)" style="fill: #367cb5"/>
    <path d="M 232.19708 387.4368 
L 260.979716 396.459705 
L 265.210657 392.747826 
L 236.464833 383.755018 
z
" clip-path="url(#p152efe74a7)" style="fill: #c2c227"/>
    <path d="M 505.426175 387.642964 
L 535.555045 396.674416 
L 539.234162 392.962253 
L 509.149186 383.912525 
z
" clip-path="url(#p152efe74a7)" style="fill: #132c41"/>
    <path d="M 426.798193 388.096656 
L 456.548128 397.142923 
L 460.38742 393.414375 
L 430.677865 384.434865 
z
" clip-path="url(#p152efe74a7)" style="fill: #a1a120"/>
    <path d="M 348.130867 388.590408 
L 377.501626 397.625505 
L 381.500703 393.910619 
L 352.169252 384.910561 
z
" clip-path="url(#p152efe74a7)" style="fill: #8c8c1c"/>
    <path d="M 269.424604 389.050537 
L 298.415599 398.080756 
L 302.574814 394.354891 
L 273.621611 385.364901 
z
" clip-path="url(#p152efe74a7)" style="fill: #f8f832"/>
    <path d="M 190.679032 389.512492 
L 219.290081 398.555214 
L 223.609618 394.829816 
L 195.034808 385.824431 
z
" clip-path="url(#p152efe74a7)" style="fill: #e0191b"/>
    <path d="M 464.211233 389.704967 
L 494.172122 398.738623 
L 497.938139 395.042807 
L 468.019898 386.002136 
z
" clip-path="url(#p152efe74a7)" style="fill: #7f397f"/>
    <path d="M 385.483726 390.206965 
L 415.064251 399.254468 
L 418.991456 395.505758 
L 389.45084 386.505248 
z
" clip-path="url(#p152efe74a7)" style="fill: #ecec2f"/>
    <path d="M 306.717628 390.669353 
L 335.917889 399.723703 
L 340.005281 395.996647 
L 310.843555 386.976454 
z
" clip-path="url(#p152efe74a7)" style="fill: #db191b"/>
    <path d="M 227.911816 391.119884 
L 256.73178 400.190891 
L 260.979716 396.459705 
L 232.19708 387.4368 
z
" clip-path="url(#p152efe74a7)" style="fill: #81811a"/>
    <path d="M 501.689145 391.355665 
L 531.862283 400.364124 
L 535.555045 396.674416 
L 505.426175 387.642964 
z
" clip-path="url(#p152efe74a7)" style="fill: #275982"/>
    <path d="M 422.902436 391.814885 
L 452.693498 400.877413 
L 456.548128 397.142923 
L 426.798193 388.096656 
z
" clip-path="url(#p152efe74a7)" style="fill: #367bb4"/>
    <path d="M 344.07624 392.285329 
L 373.486378 401.359116 
L 377.501626 397.625505 
L 348.130867 388.590408 
z
" clip-path="url(#p152efe74a7)" style="fill: #acac22"/>
    <path d="M 265.210657 392.747826 
L 294.239673 401.828038 
L 298.415599 398.080756 
L 269.424604 389.050537 
z
" clip-path="url(#p152efe74a7)" style="fill: #2e6999"/>
    <path d="M 186.305631 393.212418 
L 214.953034 402.293913 
L 219.290081 398.555214 
L 190.679032 389.512492 
z
" clip-path="url(#p152efe74a7)" style="fill: #d6181a"/>
    <path d="M 460.38742 393.414375 
L 490.389047 402.52279 
L 494.172122 398.738623 
L 464.211233 389.704967 
z
" clip-path="url(#p152efe74a7)" style="fill: #ad4dad"/>
    <path d="M 538.678204 346.535104 
L 568.743944 348.540978 
L 580.516421 140.095045 
L 548.57253 158.944742 
z
" clip-path="url(#p152efe74a7)" style="fill: #cd5ccd"/>
    <path d="M 381.500703 393.910619 
L 411.121376 402.998217 
L 415.064251 399.254468 
L 385.483726 390.206965 
z
" clip-path="url(#p152efe74a7)" style="fill: #f1f130"/>
    <path d="M 302.574814 394.354891 
L 331.81389 403.455267 
L 335.917889 399.723703 
L 306.717628 390.669353 
z
" clip-path="url(#p152efe74a7)" style="fill: #12293c"/>
    <path d="M 223.609618 394.829816 
L 252.466231 403.918203 
L 256.73178 400.190891 
L 227.911816 391.119884 
z
" clip-path="url(#p152efe74a7)" style="fill: #20486a"/>
    <path d="M 497.938139 395.042807 
L 528.151797 404.154288 
L 531.862283 400.364124 
L 501.689145 391.355665 
z
" clip-path="url(#p152efe74a7)" style="fill: #b35c84"/>
    <path d="M 418.991456 395.505758 
L 448.82342 404.617654 
L 452.693498 400.877413 
L 422.902436 391.814885 
z
" clip-path="url(#p152efe74a7)" style="fill: #12293c"/>
    <path d="M 340.005281 395.996647 
L 369.454874 405.105988 
L 373.486378 401.359116 
L 344.07624 392.285329 
z
" clip-path="url(#p152efe74a7)" style="fill: #82821a"/>
    <path d="M 260.979716 396.459705 
L 290.046661 405.577732 
L 294.239673 401.828038 
L 265.210657 392.747826 
z
" clip-path="url(#p152efe74a7)" style="fill: #622c62"/>
    <path d="M 181.914599 396.927261 
L 210.598303 406.043991 
L 214.953034 402.293913 
L 186.305631 393.212418 
z
" clip-path="url(#p152efe74a7)" style="fill: #a21214"/>
    <path d="M 456.548128 397.142923 
L 486.592008 406.267516 
L 490.389047 402.52279 
L 460.38742 393.414375 
z
" clip-path="url(#p152efe74a7)" style="fill: #585812"/>
    <path d="M 377.501626 397.625505 
L 407.16255 406.754339 
L 411.121376 402.998217 
L 381.500703 393.910619 
z
" clip-path="url(#p152efe74a7)" style="fill: #8f8f1d"/>
    <path d="M 298.415599 398.080756 
L 327.693396 407.22266 
L 331.81389 403.455267 
L 302.574814 394.354891 
z
" clip-path="url(#p152efe74a7)" style="fill: #235176"/>
    <path d="M 219.290081 398.555214 
L 248.184104 407.692505 
L 252.466231 403.918203 
L 223.609618 394.829816 
z
" clip-path="url(#p152efe74a7)" style="fill: #d8d82b"/>
    <path d="M 494.172122 398.738623 
L 524.429836 407.847112 
L 528.151797 404.154288 
L 497.938139 395.042807 
z
" clip-path="url(#p152efe74a7)" style="fill: #733b55"/>
    <path d="M 415.064251 399.254468 
L 444.93732 408.393436 
L 448.82342 404.617654 
L 418.991456 395.505758 
z
" clip-path="url(#p152efe74a7)" style="fill: #3375aa"/>
    <path d="M 335.917889 399.723703 
L 365.40701 408.870853 
L 369.454874 405.105988 
L 340.005281 395.996647 
z
" clip-path="url(#p152efe74a7)" style="fill: #2c6594"/>
    <path d="M 256.73178 400.190891 
L 285.836579 409.339453 
L 290.046661 405.577732 
L 260.979716 396.459705 
z
" clip-path="url(#p152efe74a7)" style="fill: #9e9e20"/>
    <path d="M 177.505661 400.652645 
L 206.225914 409.810049 
L 210.598303 406.043991 
L 181.914599 396.927261 
z
" clip-path="url(#p152efe74a7)" style="fill: #142e43"/>
    <path d="M 452.693498 400.877413 
L 482.779073 410.047804 
L 486.592008 406.267516 
L 456.548128 397.142923 
z
" clip-path="url(#p152efe74a7)" style="fill: #964396"/>
    <path d="M 373.486378 401.359116 
L 403.18768 410.521237 
L 407.16255 406.754339 
L 377.501626 397.625505 
z
" clip-path="url(#p152efe74a7)" style="fill: #7a7a18"/>
    <path d="M 294.239673 401.828038 
L 323.556087 410.994193 
L 327.693396 407.22266 
L 298.415599 398.080756 
z
" clip-path="url(#p152efe74a7)" style="fill: #cb1719"/>
    <path d="M 214.953034 402.293913 
L 243.884187 411.464913 
L 248.184104 407.692505 
L 219.290081 398.555214 
z
" clip-path="url(#p152efe74a7)" style="fill: #a5a521"/>
    <path d="M 490.389047 402.52279 
L 520.689036 411.67395 
L 524.429836 407.847112 
L 494.172122 398.738623 
z
" clip-path="url(#p152efe74a7)" style="fill: #3579b0"/>
    <path d="M 411.121376 402.998217 
L 441.035561 412.176645 
L 444.93732 408.393436 
L 415.064251 399.254468 
z
" clip-path="url(#p152efe74a7)" style="fill: #e7e72e"/>
    <path d="M 331.81389 403.455267 
L 361.342675 412.636135 
L 365.40701 408.870853 
L 335.917889 399.723703 
z
" clip-path="url(#p152efe74a7)" style="fill: #1a3b57"/>
    <path d="M 252.466231 403.918203 
L 281.609209 413.106892 
L 285.836579 409.339453 
L 256.73178 400.190891 
z
" clip-path="url(#p152efe74a7)" style="fill: #5e2a5e"/>
    <path d="M 173.07921 404.402058 
L 201.835844 413.594701 
L 206.225914 409.810049 
L 177.505661 400.652645 
z
" clip-path="url(#p152efe74a7)" style="fill: #d1181a"/>
    <path d="M 448.82342 404.617654 
L 478.951027 413.826215 
L 482.779073 410.047804 
L 452.693498 400.877413 
z
" clip-path="url(#p152efe74a7)" style="fill: #522552"/>
    <path d="M 369.454874 405.105988 
L 399.196598 414.308511 
L 403.18768 410.521237 
L 373.486378 401.359116 
z
" clip-path="url(#p152efe74a7)" style="fill: #a2a220"/>
    <path d="M 290.046661 405.577732 
L 319.401944 414.781904 
L 323.556087 410.994193 
L 294.239673 401.828038 
z
" clip-path="url(#p152efe74a7)" style="fill: #e11a1c"/>
    <path d="M 210.598303 406.043991 
L 239.566809 415.254613 
L 243.884187 411.464913 
L 214.953034 402.293913 
z
" clip-path="url(#p152efe74a7)" style="fill: #96961e"/>
    <path d="M 486.592008 406.267516 
L 516.933808 415.49178 
L 520.689036 411.67395 
L 490.389047 402.52279 
z
" clip-path="url(#p152efe74a7)" style="fill: #2a618d"/>
    <path d="M 407.16255 406.754339 
L 437.118044 415.966436 
L 441.035561 412.176645 
L 411.121376 402.998217 
z
" clip-path="url(#p152efe74a7)" style="fill: #2a618d"/>
    <path d="M 327.693396 407.22266 
L 357.261811 416.443795 
L 361.342675 412.636135 
L 331.81389 403.455267 
z
" clip-path="url(#p152efe74a7)" style="fill: #316fa2"/>
    <path d="M 248.184104 407.692505 
L 277.365099 416.918497 
L 281.609209 413.106892 
L 252.466231 403.918203 
z
" clip-path="url(#p152efe74a7)" style="fill: #e0e02d"/>
    <path d="M 168.634638 408.162195 
L 197.427647 417.38772 
L 201.835844 413.594701 
L 173.07921 404.402058 
z
" clip-path="url(#p152efe74a7)" style="fill: #971113"/>
    <path d="M 444.93732 408.393436 
L 475.1072 417.627883 
L 478.951027 413.826215 
L 448.82342 404.617654 
z
" clip-path="url(#p152efe74a7)" style="fill: #bfbf26"/>
    <path d="M 365.40701 408.870853 
L 395.189267 418.107299 
L 399.196598 414.308511 
L 369.454874 405.105988 
z
" clip-path="url(#p152efe74a7)" style="fill: #93931d"/>
    <path d="M 285.836579 409.339453 
L 315.230843 418.583546 
L 319.401944 414.781904 
L 290.046661 405.577732 
z
" clip-path="url(#p152efe74a7)" style="fill: #142e43"/>
    <path d="M 206.225914 409.810049 
L 235.231792 419.058748 
L 239.566809 415.254613 
L 210.598303 406.043991 
z
" clip-path="url(#p152efe74a7)" style="fill: #696915"/>
    <path d="M 482.779073 410.047804 
L 513.163934 419.303232 
L 516.933808 415.49178 
L 486.592008 406.267516 
z
" clip-path="url(#p152efe74a7)" style="fill: #a6a621"/>
    <path d="M 403.18768 410.521237 
L 433.184592 419.767262 
L 437.118044 415.966436 
L 407.16255 406.754339 
z
" clip-path="url(#p152efe74a7)" style="fill: #26567e"/>
    <path d="M 323.556087 410.994193 
L 353.164274 420.253919 
L 357.261811 416.443795 
L 327.693396 407.22266 
z
" clip-path="url(#p152efe74a7)" style="fill: #235075"/>
    <path d="M 243.884187 411.464913 
L 273.103388 420.729625 
L 277.365099 416.918497 
L 248.184104 407.692505 
z
" clip-path="url(#p152efe74a7)" style="fill: #717117"/>
    <path d="M 164.172001 411.937615 
L 193.001636 421.202042 
L 197.427647 417.38772 
L 168.634638 408.162195 
z
" clip-path="url(#p152efe74a7)" style="fill: #da191b"/>
    <path d="M 441.035561 412.176645 
L 471.247577 421.449789 
L 475.1072 417.627883 
L 444.93732 408.393436 
z
" clip-path="url(#p152efe74a7)" style="fill: #cbcb29"/>
    <path d="M 361.342675 412.636135 
L 391.165558 421.921611 
L 395.189267 418.107299 
L 365.40701 408.870853 
z
" clip-path="url(#p152efe74a7)" style="fill: #626214"/>
    <path d="M 281.609209 413.106892 
L 311.042663 422.398033 
L 315.230843 418.583546 
L 285.836579 409.339453 
z
" clip-path="url(#p152efe74a7)" style="fill: #142e43"/>
    <path d="M 201.835844 413.594701 
L 230.879069 422.879107 
L 235.231792 419.058748 
L 206.225914 409.810049 
z
" clip-path="url(#p152efe74a7)" style="fill: #3478af"/>
    <path d="M 478.951027 413.826215 
L 509.378952 423.119726 
L 513.163934 419.303232 
L 482.779073 410.047804 
z
" clip-path="url(#p152efe74a7)" style="fill: #122a3d"/>
    <path d="M 399.196598 414.308511 
L 429.234922 423.593479 
L 433.184592 419.767262 
L 403.18768 410.521237 
z
" clip-path="url(#p152efe74a7)" style="fill: #357ab2"/>
    <path d="M 319.401944 414.781904 
L 349.049973 424.078694 
L 353.164274 420.253919 
L 323.556087 410.994193 
z
" clip-path="url(#p152efe74a7)" style="fill: #1c415f"/>
    <path d="M 239.566809 415.254613 
L 268.824239 424.556349 
L 273.103388 420.729625 
L 243.884187 411.464913 
z
" clip-path="url(#p152efe74a7)" style="fill: #1a3c58"/>
    <path d="M 159.691191 415.72841 
L 188.557584 425.033994 
L 193.001636 421.202042 
L 164.172001 411.937615 
z
" clip-path="url(#p152efe74a7)" style="fill: #cf1819"/>
    <path d="M 437.118044 415.966436 
L 467.372355 425.27789 
L 471.247577 421.449789 
L 441.035561 412.176645 
z
" clip-path="url(#p152efe74a7)" style="fill: #595912"/>
    <path d="M 357.261811 416.443795 
L 387.125359 425.754918 
L 391.165558 421.921611 
L 361.342675 412.636135 
z
" clip-path="url(#p152efe74a7)" style="fill: #367db6"/>
    <path d="M 277.365099 416.918497 
L 306.837416 426.235826 
L 311.042663 422.398033 
L 281.609209 413.106892 
z
" clip-path="url(#p152efe74a7)" style="fill: #d0181a"/>
    <path d="M 197.427647 417.38772 
L 226.508498 426.714443 
L 230.879069 422.879107 
L 201.835844 413.594701 
z
" clip-path="url(#p152efe74a7)" style="fill: #6a6a15"/>
    <path d="M 475.1072 417.627883 
L 505.578263 426.958894 
L 509.378952 423.119726 
L 478.951027 413.826215 
z
" clip-path="url(#p152efe74a7)" style="fill: #1d4362"/>
    <path d="M 395.189267 418.107299 
L 425.26906 427.436328 
L 429.234922 423.593479 
L 399.196598 414.308511 
z
" clip-path="url(#p152efe74a7)" style="fill: #3374a9"/>
    <path d="M 315.230843 418.583546 
L 344.918799 427.917277 
L 349.049973 424.078694 
L 319.401944 414.781904 
z
" clip-path="url(#p152efe74a7)" style="fill: #1d4361"/>
    <path d="M 235.231792 419.058748 
L 264.527479 428.395551 
L 268.824239 424.556349 
L 239.566809 415.254613 
z
" clip-path="url(#p152efe74a7)" style="fill: #9b9b1f"/>
    <path d="M 155.192094 419.534676 
L 184.095155 428.877358 
L 188.557584 425.033994 
L 159.691191 415.72841 
z
" clip-path="url(#p152efe74a7)" style="fill: #a11214"/>
    <path d="M 433.184592 419.767262 
L 463.481326 429.11697 
L 467.372355 425.27789 
L 437.118044 415.966436 
z
" clip-path="url(#p152efe74a7)" style="fill: #565611"/>
    <path d="M 353.164274 420.253919 
L 383.068594 429.601135 
L 387.125359 425.754918 
L 357.261811 416.443795 
z
" clip-path="url(#p152efe74a7)" style="fill: #ba1517"/>
    <path d="M 273.103388 420.729625 
L 302.614867 430.085415 
L 306.837416 426.235826 
L 277.365099 416.918497 
z
" clip-path="url(#p152efe74a7)" style="fill: #dc191b"/>
    <path d="M 193.001636 421.202042 
L 222.11999 430.565681 
L 226.508498 426.714443 
L 197.427647 417.38772 
z
" clip-path="url(#p152efe74a7)" style="fill: #17364e"/>
    <path d="M 471.247577 421.449789 
L 501.761998 430.812941 
L 505.578263 426.958894 
L 475.1072 417.627883 
z
" clip-path="url(#p152efe74a7)" style="fill: #cd1719"/>
    <path d="M 391.165558 421.921611 
L 421.2871 431.278138 
L 425.26906 427.436328 
L 395.189267 418.107299 
z
" clip-path="url(#p152efe74a7)" style="fill: #235075"/>
    <path d="M 311.042663 422.398033 
L 340.770652 431.77163 
L 344.918799 427.917277 
L 315.230843 418.583546 
z
" clip-path="url(#p152efe74a7)" style="fill: #142d42"/>
    <path d="M 230.879069 422.879107 
L 260.213196 432.256964 
L 264.527479 428.395551 
L 235.231792 419.058748 
z
" clip-path="url(#p152efe74a7)" style="fill: #306d9f"/>
    <path d="M 429.234922 423.593479 
L 459.574178 432.978147 
L 463.481326 429.11697 
L 433.184592 419.767262 
z
" clip-path="url(#p152efe74a7)" style="fill: #cfcf29"/>
    <path d="M 349.049973 424.078694 
L 378.995139 433.467113 
L 383.068594 429.601135 
L 353.164274 420.253919 
z
" clip-path="url(#p152efe74a7)" style="fill: #db191b"/>
    <path d="M 268.824239 424.556349 
L 298.374944 433.950071 
L 302.614867 430.085415 
L 273.103388 420.729625 
z
" clip-path="url(#p152efe74a7)" style="fill: #a61314"/>
    <path d="M 188.557584 425.033994 
L 217.713415 434.432286 
L 222.11999 430.565681 
L 193.001636 421.202042 
z
" clip-path="url(#p152efe74a7)" style="fill: #c1c127"/>
    <path d="M 467.372355 425.27789 
L 497.930104 434.680196 
L 501.761998 430.812941 
L 471.247577 421.449789 
z
" clip-path="url(#p152efe74a7)" style="fill: #142d42"/>
    <path d="M 387.125359 425.754918 
L 417.288548 435.154445 
L 421.2871 431.278138 
L 391.165558 421.921611 
z
" clip-path="url(#p152efe74a7)" style="fill: #367cb5"/>
    <path d="M 306.837416 426.235826 
L 336.605451 435.645602 
L 340.770652 431.77163 
L 311.042663 422.398033 
z
" clip-path="url(#p152efe74a7)" style="fill: #367db6"/>
    <path d="M 226.508498 426.714443 
L 255.881084 436.13105 
L 260.213196 432.256964 
L 230.879069 422.879107 
z
" clip-path="url(#p152efe74a7)" style="fill: #1b3e5a"/>
    <path d="M 425.26906 427.436328 
L 455.65091 436.856808 
L 459.574178 432.978147 
L 429.234922 423.593479 
z
" clip-path="url(#p152efe74a7)" style="fill: #e064e0"/>
    <path d="M 344.918799 427.917277 
L 374.904914 437.345062 
L 378.995139 433.467113 
L 349.049973 424.078694 
z
" clip-path="url(#p152efe74a7)" style="fill: #1d4362"/>
    <path d="M 264.527479 428.395551 
L 294.117504 437.827667 
L 298.374944 433.950071 
L 268.824239 424.556349 
z
" clip-path="url(#p152efe74a7)" style="fill: #1b3e5a"/>
    <path d="M 184.095155 428.877358 
L 213.28871 438.315941 
L 217.713415 434.432286 
L 188.557584 425.033994 
z
" clip-path="url(#p152efe74a7)" style="fill: #235177"/>
    <path d="M 463.481326 429.11697 
L 494.082434 438.562514 
L 497.930104 434.680196 
L 467.372355 425.27789 
z
" clip-path="url(#p152efe74a7)" style="fill: #142d42"/>
    <path d="M 383.068594 429.601135 
L 413.273515 439.046893 
L 417.288548 435.154445 
L 387.125359 425.754918 
z
" clip-path="url(#p152efe74a7)" style="fill: #dcdc2c"/>
    <path d="M 302.614867 430.085415 
L 332.42306 439.533672 
L 336.605451 435.645602 
L 306.837416 426.235826 
z
" clip-path="url(#p152efe74a7)" style="fill: #3171a5"/>
    <path d="M 222.11999 430.565681 
L 251.531026 440.017895 
L 255.881084 436.13105 
L 226.508498 426.714443 
z
" clip-path="url(#p152efe74a7)" style="fill: #9f9f20"/>
    <path d="M 421.2871 431.278138 
L 451.711531 440.74673 
L 455.65091 436.856808 
L 425.26906 427.436328 
z
" clip-path="url(#p152efe74a7)" style="fill: #575711"/>
    <path d="M 340.770652 431.77163 
L 370.797803 441.236761 
L 374.904914 437.345062 
L 344.918799 427.917277 
z
" clip-path="url(#p152efe74a7)" style="fill: #1f4869"/>
    <path d="M 260.213196 432.256964 
L 289.842588 441.728443 
L 294.117504 437.827667 
L 264.527479 428.395551 
z
" clip-path="url(#p152efe74a7)" style="fill: #d1181a"/>
    <path d="M 459.574178 432.978147 
L 490.218824 442.462639 
L 494.082434 438.562514 
L 463.481326 429.11697 
z
" clip-path="url(#p152efe74a7)" style="fill: #6c6c16"/>
    <path d="M 378.995139 433.467113 
L 409.241933 442.95178 
L 413.273515 439.046893 
L 383.068594 429.601135 
z
" clip-path="url(#p152efe74a7)" style="fill: #2e6a9b"/>
    <path d="M 298.374944 433.950071 
L 328.22339 443.438752 
L 332.42306 439.533672 
L 302.614867 430.085415 
z
" clip-path="url(#p152efe74a7)" style="fill: #357ab2"/>
    <path d="M 217.713415 434.432286 
L 247.163132 443.92727 
L 251.531026 440.017895 
L 222.11999 430.565681 
z
" clip-path="url(#p152efe74a7)" style="fill: #2c6594"/>
    <path d="M 417.288548 435.154445 
L 447.755651 444.665411 
L 451.711531 440.74673 
L 421.2871 431.278138 
z
" clip-path="url(#p152efe74a7)" style="fill: #a5a521"/>
    <path d="M 336.605451 435.645602 
L 366.673695 445.153055 
L 370.797803 441.236761 
L 340.770652 431.77163 
z
" clip-path="url(#p152efe74a7)" style="fill: #2d6897"/>
    <path d="M 255.881084 436.13105 
L 285.549929 445.641665 
L 289.842588 441.728443 
L 260.213196 432.256964 
z
" clip-path="url(#p152efe74a7)" style="fill: #cf1819"/>
    <path d="M 455.65091 436.856808 
L 486.339199 446.379792 
L 490.218824 442.462639 
L 459.574178 432.978147 
z
" clip-path="url(#p152efe74a7)" style="fill: #1a3c57"/>
    <path d="M 374.904914 437.345062 
L 405.193694 446.86869 
L 409.241933 442.95178 
L 378.995139 433.467113 
z
" clip-path="url(#p152efe74a7)" style="fill: #163249"/>
    <path d="M 294.117504 437.827667 
L 324.00632 447.359062 
L 328.22339 443.438752 
L 298.374944 433.950071 
z
" clip-path="url(#p152efe74a7)" style="fill: #18364f"/>
    <path d="M 213.28871 438.315941 
L 242.777069 447.849603 
L 247.163132 443.92727 
L 217.713415 434.432286 
z
" clip-path="url(#p152efe74a7)" style="fill: #1b3f5b"/>
    <path d="M 413.273515 439.046893 
L 443.783586 448.587636 
L 447.755651 444.665411 
L 417.288548 435.154445 
z
" clip-path="url(#p152efe74a7)" style="fill: #6a6a15"/>
    <path d="M 332.42306 439.533672 
L 362.532497 449.081042 
L 366.673695 445.153055 
L 336.605451 435.645602 
z
" clip-path="url(#p152efe74a7)" style="fill: #1c405e"/>
    <path d="M 251.531026 440.017895 
L 281.239447 449.569718 
L 285.549929 445.641665 
L 255.881084 436.13105 
z
" clip-path="url(#p152efe74a7)" style="fill: #132b3e"/>
    <path d="M 451.711531 440.74673 
L 482.444155 450.283968 
L 486.339199 446.379792 
L 455.65091 436.856808 
z
" clip-path="url(#p152efe74a7)" style="fill: #214c6e"/>
    <path d="M 370.797803 441.236761 
L 401.1287 450.795404 
L 405.193694 446.86869 
L 374.904914 437.345062 
z
" clip-path="url(#p152efe74a7)" style="fill: #1f4666"/>
    <path d="M 289.842588 441.728443 
L 319.771756 451.296585 
L 324.00632 447.359062 
L 294.117504 437.827667 
z
" clip-path="url(#p152efe74a7)" style="fill: #cbcb29"/>
    <path d="M 409.241933 442.95178 
L 439.794974 452.529329 
L 443.783586 448.587636 
L 413.273515 439.046893 
z
" clip-path="url(#p152efe74a7)" style="fill: #e4e42e"/>
    <path d="M 328.22339 443.438752 
L 358.374079 453.015131 
L 362.532497 449.081042 
L 332.42306 439.533672 
z
" clip-path="url(#p152efe74a7)" style="fill: #235075"/>
    <path d="M 247.163132 443.92727 
L 276.911099 453.516747 
L 281.239447 449.569718 
L 251.531026 440.017895 
z
" clip-path="url(#p152efe74a7)" style="fill: #de191b"/>
    <path d="M 447.755651 444.665411 
L 478.531593 454.262057 
L 482.444155 450.283968 
L 451.711531 440.74673 
z
" clip-path="url(#p152efe74a7)" style="fill: #cb1719"/>
    <path d="M 366.673695 445.153055 
L 397.046691 454.755233 
L 401.1287 450.795404 
L 370.797803 441.236761 
z
" clip-path="url(#p152efe74a7)" style="fill: #3171a5"/>
    <path d="M 285.549929 445.641665 
L 315.519574 455.249539 
L 319.771756 451.296585 
L 289.842588 441.728443 
z
" clip-path="url(#p152efe74a7)" style="fill: #1c415f"/>
    <path d="M 405.193694 446.86869 
L 435.78972 456.490604 
L 439.794974 452.529329 
L 409.241933 442.95178 
z
" clip-path="url(#p152efe74a7)" style="fill: #bbbb25"/>
    <path d="M 324.00632 447.359062 
L 354.198367 456.978111 
L 358.374079 453.015131 
L 328.22339 443.438752 
z
" clip-path="url(#p152efe74a7)" style="fill: #357ab2"/>
    <path d="M 242.777069 447.849603 
L 272.564717 457.47944 
L 276.911099 453.516747 
L 247.163132 443.92727 
z
" clip-path="url(#p152efe74a7)" style="fill: #d6181a"/>
    <path d="M 443.783586 448.587636 
L 474.60339 458.228257 
L 478.531593 454.262057 
L 447.755651 444.665411 
z
" clip-path="url(#p152efe74a7)" style="fill: #1b3f5c"/>
    <path d="M 362.532497 449.081042 
L 392.947734 458.722937 
L 397.046691 454.755233 
L 366.673695 445.153055 
z
" clip-path="url(#p152efe74a7)" style="fill: #e21a1c"/>
    <path d="M 281.239447 449.569718 
L 311.249671 459.218967 
L 315.519574 455.249539 
L 285.549929 445.641665 
z
" clip-path="url(#p152efe74a7)" style="fill: #183750"/>
    <path d="M 401.1287 450.795404 
L 431.76785 460.462028 
L 435.78972 456.490604 
L 405.193694 446.86869 
z
" clip-path="url(#p152efe74a7)" style="fill: #585812"/>
    <path d="M 319.771756 451.296585 
L 350.005252 460.961031 
L 354.198367 456.978111 
L 324.00632 447.359062 
z
" clip-path="url(#p152efe74a7)" style="fill: #cf1819"/>
    <path d="M 439.794974 452.529329 
L 470.65881 462.210121 
L 474.60339 458.228257 
L 443.783586 448.587636 
z
" clip-path="url(#p152efe74a7)" style="fill: #18364f"/>
    <path d="M 358.374079 453.015131 
L 388.831668 462.706156 
L 392.947734 458.722937 
L 362.532497 449.081042 
z
" clip-path="url(#p152efe74a7)" style="fill: #582d41"/>
    <path d="M 276.911099 453.516747 
L 306.961935 463.204972 
L 311.249671 459.218967 
L 281.239447 449.569718 
z
" clip-path="url(#p152efe74a7)" style="fill: #1b3e5a"/>
    <path d="M 397.046691 454.755233 
L 427.729089 464.456428 
L 431.76785 460.462028 
L 401.1287 450.795404 
z
" clip-path="url(#p152efe74a7)" style="fill: #d1d12a"/>
    <path d="M 315.519574 455.249539 
L 345.794596 464.954894 
L 350.005252 460.961031 
L 319.771756 451.296585 
z
" clip-path="url(#p152efe74a7)" style="fill: #d0181a"/>
    <path d="M 435.78972 456.490604 
L 466.697731 466.208641 
L 470.65881 462.210121 
L 439.794974 452.529329 
z
" clip-path="url(#p152efe74a7)" style="fill: #af1415"/>
    <path d="M 354.198367 456.978111 
L 384.698403 466.699221 
L 388.831668 462.706156 
L 358.374079 453.015131 
z
" clip-path="url(#p152efe74a7)" style="fill: #1b3d5a"/>
    <path d="M 272.564717 457.47944 
L 302.656255 467.207659 
L 306.961935 463.204972 
L 276.911099 453.516747 
z
" clip-path="url(#p152efe74a7)" style="fill: #275982"/>
    <path d="M 392.947734 458.722937 
L 423.673457 468.464359 
L 427.729089 464.456428 
L 397.046691 454.755233 
z
" clip-path="url(#p152efe74a7)" style="fill: #7e7e19"/>
    <path d="M 311.249671 459.218967 
L 341.566281 468.960922 
L 345.794596 464.954894 
L 315.519574 455.249539 
z
" clip-path="url(#p152efe74a7)" style="fill: #951112"/>
    <path d="M 431.76785 460.462028 
L 462.720049 470.223921 
L 466.697731 466.208641 
L 435.78972 456.490604 
z
" clip-path="url(#p152efe74a7)" style="fill: #18364f"/>
    <path d="M 350.005252 460.961031 
L 380.547757 470.723751 
L 384.698403 466.699221 
L 354.198367 456.978111 
z
" clip-path="url(#p152efe74a7)" style="fill: #3374a9"/>
    <path d="M 388.831668 462.706156 
L 419.600806 472.48911 
L 423.673457 468.464359 
L 392.947734 458.722937 
z
" clip-path="url(#p152efe74a7)" style="fill: #727217"/>
    <path d="M 306.961935 463.204972 
L 337.320257 472.991768 
L 341.566281 468.960922 
L 311.249671 459.218967 
z
" clip-path="url(#p152efe74a7)" style="fill: #cb1719"/>
    <path d="M 427.729089 464.456428 
L 458.725659 474.256067 
L 462.720049 470.223921 
L 431.76785 460.462028 
z
" clip-path="url(#p152efe74a7)" style="fill: #af1415"/>
    <path d="M 345.794596 464.954894 
L 376.379696 474.758721 
L 380.547757 470.723751 
L 350.005252 460.961031 
z
" clip-path="url(#p152efe74a7)" style="fill: #e31a1c"/>
    <path d="M 384.698403 466.699221 
L 415.511027 476.530786 
L 419.600806 472.48911 
L 388.831668 462.706156 
z
" clip-path="url(#p152efe74a7)" style="fill: #17354d"/>
    <path d="M 302.656255 467.207659 
L 333.056352 477.035561 
L 337.320257 472.991768 
L 306.961935 463.204972 
z
" clip-path="url(#p152efe74a7)" style="fill: #af1415"/>
    <path d="M 423.673457 468.464359 
L 454.714455 478.305185 
L 458.725659 474.256067 
L 427.729089 464.456428 
z
" clip-path="url(#p152efe74a7)" style="fill: #af1415"/>
    <path d="M 341.566281 468.960922 
L 372.194087 478.810467 
L 376.379696 474.758721 
L 345.794596 464.954894 
z
" clip-path="url(#p152efe74a7)" style="fill: #193a55"/>
    <path d="M 380.547757 470.723751 
L 411.404014 480.589494 
L 415.511027 476.530786 
L 384.698403 466.699221 
z
" clip-path="url(#p152efe74a7)" style="fill: #707016"/>
    <path d="M 419.600806 472.48911 
L 450.686408 482.366908 
L 454.714455 478.305185 
L 423.673457 468.464359 
z
" clip-path="url(#p152efe74a7)" style="fill: #951112"/>
    <path d="M 337.320257 472.991768 
L 367.99082 482.876938 
L 372.194087 478.810467 
L 341.566281 468.960922 
z
" clip-path="url(#p152efe74a7)" style="fill: #9e1213"/>
    <path d="M 376.379696 474.758721 
L 407.279656 484.665343 
L 411.404014 480.589494 
L 380.547757 470.723751 
z
" clip-path="url(#p152efe74a7)" style="fill: #757517"/>
    <path d="M 415.511027 476.530786 
L 446.641182 486.454768 
L 450.686408 482.366908 
L 419.600806 472.48911 
z
" clip-path="url(#p152efe74a7)" style="fill: #cb1719"/>
    <path d="M 333.056352 477.035561 
L 363.76978 486.964504 
L 367.99082 482.876938 
L 337.320257 472.991768 
z
" clip-path="url(#p152efe74a7)" style="fill: #d3181a"/>
    <path d="M 372.194087 478.810467 
L 403.137843 488.758441 
L 407.279656 484.665343 
L 376.379696 474.758721 
z
" clip-path="url(#p152efe74a7)" style="fill: #1c415f"/>
    <path d="M 411.404014 480.589494 
L 442.578925 490.553656 
L 446.641182 486.454768 
L 415.511027 476.530786 
z
" clip-path="url(#p152efe74a7)" style="fill: #971113"/>
    <path d="M 367.99082 482.876938 
L 398.978465 492.868898 
L 403.137843 488.758441 
L 372.194087 478.810467 
z
" clip-path="url(#p152efe74a7)" style="fill: #18364f"/>
    <path d="M 407.279656 484.665343 
L 438.499368 494.67354 
L 442.578925 490.553656 
L 411.404014 480.589494 
z
" clip-path="url(#p152efe74a7)" style="fill: #cd1719"/>
    <path d="M 363.76978 486.964504 
L 394.801409 496.996825 
L 398.978465 492.868898 
L 367.99082 482.876938 
z
" clip-path="url(#p152efe74a7)" style="fill: #93931d"/>
    <path d="M 403.137843 488.758441 
L 434.402484 498.809148 
L 438.499368 494.67354 
L 407.279656 484.665343 
z
" clip-path="url(#p152efe74a7)" style="fill: #af1415"/>
    <path d="M 398.978465 492.868898 
L 430.288136 502.962386 
L 434.402484 498.809148 
L 403.137843 488.758441 
z
" clip-path="url(#p152efe74a7)" style="fill: #af1415"/>
    <path d="M 394.801409 496.996825 
L 426.15621 507.133368 
L 430.288136 502.962386 
L 398.978465 492.868898 
z
" clip-path="url(#p152efe74a7)" style="fill: #af1415"/>
   </g>
  </g>
  <g id="axes_2">
   <g id="patch_6">
    <path d="M 675.6139 565.2 
L 703.3339 565.2 
L 703.3339 10.8 
L 675.6139 10.8 
z
" style="fill: #ffffff"/>
   </g>
   <g id="QuadMesh_1">
    <path d="M 675.6139 565.2 
L 703.3339 565.2 
L 703.3339 495.9 
L 675.6139 495.9 
L 675.6139 565.2 
" clip-path="url(#p6751c40e45)" style="fill: #e41a1c"/>
    <path d="M 675.6139 495.9 
L 703.3339 495.9 
L 703.3339 426.6 
L 675.6139 426.6 
L 675.6139 495.9 
" clip-path="url(#p6751c40e45)" style="fill: #377eb8"/>
    <path d="M 675.6139 426.6 
L 703.3339 426.6 
L 703.3339 357.3 
L 675.6139 357.3 
L 675.6139 426.6 
" clip-path="url(#p6751c40e45)" style="fill: #4daf4a"/>
    <path d="M 675.6139 357.3 
L 703.3339 357.3 
L 703.3339 288 
L 675.6139 288 
L 675.6139 357.3 
" clip-path="url(#p6751c40e45)" style="fill: #da70a1"/>
    <path d="M 675.6139 288 
L 703.3339 288 
L 703.3339 218.7 
L 675.6139 218.7 
L 675.6139 288 
" clip-path="url(#p6751c40e45)" style="fill: #ff7f00"/>
    <path d="M 675.6139 218.7 
L 703.3339 218.7 
L 703.3339 149.4 
L 675.6139 149.4 
L 675.6139 218.7 
" clip-path="url(#p6751c40e45)" style="fill: #ffff33"/>
    <path d="M 675.6139 149.4 
L 703.3339 149.4 
L 703.3339 80.1 
L 675.6139 80.1 
L 675.6139 149.4 
" clip-path="url(#p6751c40e45)" style="fill: #a65628"/>
    <path d="M 675.6139 80.1 
L 703.3339 80.1 
L 703.3339 10.8 
L 675.6139 10.8 
L 675.6139 80.1 
" clip-path="url(#p6751c40e45)" style="fill: #e667e6"/>
   </g>
   <g id="matplotlib.axis_1"/>
   <g id="matplotlib.axis_2">
    <g id="ytick_1">
     <g id="line2d_4">
      <defs>
       <path id="mf3fa6dc8fe" d="M 0 0 
L 3.5 0 
" style="stroke: #000000; stroke-width: 0.8"/>
      </defs>
      <g>
       <use xlink:href="#mf3fa6dc8fe" x="703.3339" y="530.55" style="stroke: #000000; stroke-width: 0.8"/>
      </g>
     </g>
     <g id="text_4">
      <!-- Not seen in this sample -->
      <g transform="translate(710.3339 534.349219) scale(0.1 -0.1)">
       <use xlink:href="#DejaVuSans-4e"/>
       <use xlink:href="#DejaVuSans-6f" x="74.804688"/>
       <use xlink:href="#DejaVuSans-74" x="135.986328"/>
       <use xlink:href="#DejaVuSans-20" x="175.195312"/>
       <use xlink:href="#DejaVuSans-73" x="206.982422"/>
       <use xlink:href="#DejaVuSans-65" x="259.082031"/>
       <use xlink:href="#DejaVuSans-65" x="320.605469"/>
       <use xlink:href="#DejaVuSans-6e" x="382.128906"/>
       <use xlink:href="#DejaVuSans-20" x="445.507812"/>
       <use xlink:href="#DejaVuSans-69" x="477.294922"/>
       <use xlink:href="#DejaVuSans-6e" x="505.078125"/>
       <use xlink:href="#DejaVuSans-20" x="568.457031"/>
       <use xlink:href="#DejaVuSans-74" x="600.244141"/>
       <use xlink:href="#DejaVuSans-68" x="639.453125"/>
       <use xlink:href="#DejaVuSans-69" x="702.832031"/>
       <use xlink:href="#DejaVuSans-73" x="730.615234"/>
       <use xlink:href="#DejaVuSans-20" x="782.714844"/>
       <use xlink:href="#DejaVuSans-73" x="814.501953"/>
       <use xlink:href="#DejaVuSans-61" x="866.601562"/>
       <use xlink:href="#DejaVuSans-6d" x="927.880859"/>
       <use xlink:href="#DejaVuSans-70" x="1025.292969"/>
       <use xlink:href="#DejaVuSans-6c" x="1088.769531"/>
       <use xlink:href="#DejaVuSans-65" x="1116.552734"/>
      </g>
     </g>
    </g>
    <g id="ytick_2">
     <g id="line2d_5">
      <g>
       <use xlink:href="#mf3fa6dc8fe" x="703.3339" y="461.25" style="stroke: #000000; stroke-width: 0.8"/>
      </g>
     </g>
     <g id="text_5">
      <!-- MGI Only -->
      <g transform="translate(710.3339 465.049219) scale(0.1 -0.1)">
       <defs>
        <path id="DejaVuSans-4f" d="M 2522 4238 
Q 1834 4238 1429 3725 
Q 1025 3213 1025 2328 
Q 1025 1447 1429 934 
Q 1834 422 2522 422 
Q 3209 422 3611 934 
Q 4013 1447 4013 2328 
Q 4013 3213 3611 3725 
Q 3209 4238 2522 4238 
z
M 2522 4750 
Q 3503 4750 4090 4092 
Q 4678 3434 4678 2328 
Q 4678 1225 4090 567 
Q 3503 -91 2522 -91 
Q 1538 -91 948 565 
Q 359 1222 359 2328 
Q 359 3434 948 4092 
Q 1538 4750 2522 4750 
z
" transform="scale(0.015625)"/>
       </defs>
       <use xlink:href="#DejaVuSans-4d"/>
       <use xlink:href="#DejaVuSans-47" x="86.279297"/>
       <use xlink:href="#DejaVuSans-49" x="163.769531"/>
       <use xlink:href="#DejaVuSans-20" x="193.261719"/>
       <use xlink:href="#DejaVuSans-4f" x="225.048828"/>
       <use xlink:href="#DejaVuSans-6e" x="303.759766"/>
       <use xlink:href="#DejaVuSans-6c" x="367.138672"/>
       <use xlink:href="#DejaVuSans-79" x="394.921875"/>
      </g>
     </g>
    </g>
    <g id="ytick_3">
     <g id="line2d_6">
      <g>
       <use xlink:href="#mf3fa6dc8fe" x="703.3339" y="391.95" style="stroke: #000000; stroke-width: 0.8"/>
      </g>
     </g>
     <g id="text_6">
      <!-- MinION Only -->
      <g transform="translate(710.3339 395.749219) scale(0.1 -0.1)">
       <use xlink:href="#DejaVuSans-4d"/>
       <use xlink:href="#DejaVuSans-69" x="86.279297"/>
       <use xlink:href="#DejaVuSans-6e" x="114.0625"/>
       <use xlink:href="#DejaVuSans-49" x="177.441406"/>
       <use xlink:href="#DejaVuSans-4f" x="206.933594"/>
       <use xlink:href="#DejaVuSans-4e" x="285.644531"/>
       <use xlink:href="#DejaVuSans-20" x="360.449219"/>
       <use xlink:href="#DejaVuSans-4f" x="392.236328"/>
       <use xlink:href="#DejaVuSans-6e" x="470.947266"/>
       <use xlink:href="#DejaVuSans-6c" x="534.326172"/>
       <use xlink:href="#DejaVuSans-79" x="562.109375"/>
      </g>
     </g>
    </g>
    <g id="ytick_4">
     <g id="line2d_7">
      <g>
       <use xlink:href="#mf3fa6dc8fe" x="703.3339" y="322.65" style="stroke: #000000; stroke-width: 0.8"/>
      </g>
     </g>
     <g id="text_7">
      <!-- MGI + MinION -->
      <g transform="translate(710.3339 326.449219) scale(0.1 -0.1)">
       <defs>
        <path id="DejaVuSans-2b" d="M 2944 4013 
L 2944 2272 
L 4684 2272 
L 4684 1741 
L 2944 1741 
L 2944 0 
L 2419 0 
L 2419 1741 
L 678 1741 
L 678 2272 
L 2419 2272 
L 2419 4013 
L 2944 4013 
z
" transform="scale(0.015625)"/>
       </defs>
       <use xlink:href="#DejaVuSans-4d"/>
       <use xlink:href="#DejaVuSans-47" x="86.279297"/>
       <use xlink:href="#DejaVuSans-49" x="163.769531"/>
       <use xlink:href="#DejaVuSans-20" x="193.261719"/>
       <use xlink:href="#DejaVuSans-2b" x="225.048828"/>
       <use xlink:href="#DejaVuSans-20" x="308.837891"/>
       <use xlink:href="#DejaVuSans-4d" x="340.625"/>
       <use xlink:href="#DejaVuSans-69" x="426.904297"/>
       <use xlink:href="#DejaVuSans-6e" x="454.6875"/>
       <use xlink:href="#DejaVuSans-49" x="518.066406"/>
       <use xlink:href="#DejaVuSans-4f" x="547.558594"/>
       <use xlink:href="#DejaVuSans-4e" x="626.269531"/>
      </g>
     </g>
    </g>
    <g id="ytick_5">
     <g id="line2d_8">
      <g>
       <use xlink:href="#mf3fa6dc8fe" x="703.3339" y="253.35" style="stroke: #000000; stroke-width: 0.8"/>
      </g>
     </g>
     <g id="text_8">
      <!-- Promethion Only -->
      <g transform="translate(710.3339 257.149219) scale(0.1 -0.1)">
       <defs>
        <path id="DejaVuSans-50" d="M 1259 4147 
L 1259 2394 
L 2053 2394 
Q 2494 2394 2734 2622 
Q 2975 2850 2975 3272 
Q 2975 3691 2734 3919 
Q 2494 4147 2053 4147 
L 1259 4147 
z
M 628 4666 
L 2053 4666 
Q 2838 4666 3239 4311 
Q 3641 3956 3641 3272 
Q 3641 2581 3239 2228 
Q 2838 1875 2053 1875 
L 1259 1875 
L 1259 0 
L 628 0 
L 628 4666 
z
" transform="scale(0.015625)"/>
       </defs>
       <use xlink:href="#DejaVuSans-50"/>
       <use xlink:href="#DejaVuSans-72" x="58.552734"/>
       <use xlink:href="#DejaVuSans-6f" x="97.416016"/>
       <use xlink:href="#DejaVuSans-6d" x="158.597656"/>
       <use xlink:href="#DejaVuSans-65" x="256.009766"/>
       <use xlink:href="#DejaVuSans-74" x="317.533203"/>
       <use xlink:href="#DejaVuSans-68" x="356.742188"/>
       <use xlink:href="#DejaVuSans-69" x="420.121094"/>
       <use xlink:href="#DejaVuSans-6f" x="447.904297"/>
       <use xlink:href="#DejaVuSans-6e" x="509.085938"/>
       <use xlink:href="#DejaVuSans-20" x="572.464844"/>
       <use xlink:href="#DejaVuSans-4f" x="604.251953"/>
       <use xlink:href="#DejaVuSans-6e" x="682.962891"/>
       <use xlink:href="#DejaVuSans-6c" x="746.341797"/>
       <use xlink:href="#DejaVuSans-79" x="774.125"/>
      </g>
     </g>
    </g>
    <g id="ytick_6">
     <g id="line2d_9">
      <g>
       <use xlink:href="#mf3fa6dc8fe" x="703.3339" y="184.05" style="stroke: #000000; stroke-width: 0.8"/>
      </g>
     </g>
     <g id="text_9">
      <!-- MGI + Promethion -->
      <g transform="translate(710.3339 187.849219) scale(0.1 -0.1)">
       <use xlink:href="#DejaVuSans-4d"/>
       <use xlink:href="#DejaVuSans-47" x="86.279297"/>
       <use xlink:href="#DejaVuSans-49" x="163.769531"/>
       <use xlink:href="#DejaVuSans-20" x="193.261719"/>
       <use xlink:href="#DejaVuSans-2b" x="225.048828"/>
       <use xlink:href="#DejaVuSans-20" x="308.837891"/>
       <use xlink:href="#DejaVuSans-50" x="340.625"/>
       <use xlink:href="#DejaVuSans-72" x="399.177734"/>
       <use xlink:href="#DejaVuSans-6f" x="438.041016"/>
       <use xlink:href="#DejaVuSans-6d" x="499.222656"/>
       <use xlink:href="#DejaVuSans-65" x="596.634766"/>
       <use xlink:href="#DejaVuSans-74" x="658.158203"/>
       <use xlink:href="#DejaVuSans-68" x="697.367188"/>
       <use xlink:href="#DejaVuSans-69" x="760.746094"/>
       <use xlink:href="#DejaVuSans-6f" x="788.529297"/>
       <use xlink:href="#DejaVuSans-6e" x="849.710938"/>
      </g>
     </g>
    </g>
    <g id="ytick_7">
     <g id="line2d_10">
      <g>
       <use xlink:href="#mf3fa6dc8fe" x="703.3339" y="114.75" style="stroke: #000000; stroke-width: 0.8"/>
      </g>
     </g>
     <g id="text_10">
      <!-- MinION + Promethion -->
      <g transform="translate(710.3339 118.549219) scale(0.1 -0.1)">
       <use xlink:href="#DejaVuSans-4d"/>
       <use xlink:href="#DejaVuSans-69" x="86.279297"/>
       <use xlink:href="#DejaVuSans-6e" x="114.0625"/>
       <use xlink:href="#DejaVuSans-49" x="177.441406"/>
       <use xlink:href="#DejaVuSans-4f" x="206.933594"/>
       <use xlink:href="#DejaVuSans-4e" x="285.644531"/>
       <use xlink:href="#DejaVuSans-20" x="360.449219"/>
       <use xlink:href="#DejaVuSans-2b" x="392.236328"/>
       <use xlink:href="#DejaVuSans-20" x="476.025391"/>
       <use xlink:href="#DejaVuSans-50" x="507.8125"/>
       <use xlink:href="#DejaVuSans-72" x="566.365234"/>
       <use xlink:href="#DejaVuSans-6f" x="605.228516"/>
       <use xlink:href="#DejaVuSans-6d" x="666.410156"/>
       <use xlink:href="#DejaVuSans-65" x="763.822266"/>
       <use xlink:href="#DejaVuSans-74" x="825.345703"/>
       <use xlink:href="#DejaVuSans-68" x="864.554688"/>
       <use xlink:href="#DejaVuSans-69" x="927.933594"/>
       <use xlink:href="#DejaVuSans-6f" x="955.716797"/>
       <use xlink:href="#DejaVuSans-6e" x="1016.898438"/>
      </g>
     </g>
    </g>
    <g id="ytick_8">
     <g id="line2d_11">
      <g>
       <use xlink:href="#mf3fa6dc8fe" x="703.3339" y="45.45" style="stroke: #000000; stroke-width: 0.8"/>
      </g>
     </g>
     <g id="text_11">
      <!-- All -->
      <g transform="translate(710.3339 49.249219) scale(0.1 -0.1)">
       <defs>
        <path id="DejaVuSans-41" d="M 2188 4044 
L 1331 1722 
L 3047 1722 
L 2188 4044 
z
M 1831 4666 
L 2547 4666 
L 4325 0 
L 3669 0 
L 3244 1197 
L 1141 1197 
L 716 0 
L 50 0 
L 1831 4666 
z
" transform="scale(0.015625)"/>
       </defs>
       <use xlink:href="#DejaVuSans-41"/>
       <use xlink:href="#DejaVuSans-6c" x="68.408203"/>
       <use xlink:href="#DejaVuSans-6c" x="96.191406"/>
      </g>
     </g>
    </g>
    <g id="text_12">
     <!-- How the taxa were detected -->
     <g transform="translate(839.737025 358.950781) rotate(-90) scale(0.1 -0.1)">
      <defs>
       <path id="DejaVuSans-48" d="M 628 4666 
L 1259 4666 
L 1259 2753 
L 3553 2753 
L 3553 4666 
L 4184 4666 
L 4184 0 
L 3553 0 
L 3553 2222 
L 1259 2222 
L 1259 0 
L 628 0 
L 628 4666 
z
" transform="scale(0.015625)"/>
       <path id="DejaVuSans-63" d="M 3122 3366 
L 3122 2828 
Q 2878 2963 2633 3030 
Q 2388 3097 2138 3097 
Q 1578 3097 1268 2742 
Q 959 2388 959 1747 
Q 959 1106 1268 751 
Q 1578 397 2138 397 
Q 2388 397 2633 464 
Q 2878 531 3122 666 
L 3122 134 
Q 2881 22 2623 -34 
Q 2366 -91 2075 -91 
Q 1284 -91 818 406 
Q 353 903 353 1747 
Q 353 2603 823 3093 
Q 1294 3584 2113 3584 
Q 2378 3584 2631 3529 
Q 2884 3475 3122 3366 
z
" transform="scale(0.015625)"/>
      </defs>
      <use xlink:href="#DejaVuSans-48"/>
      <use xlink:href="#DejaVuSans-6f" x="75.195312"/>
      <use xlink:href="#DejaVuSans-77" x="136.376953"/>
      <use xlink:href="#DejaVuSans-20" x="218.164062"/>
      <use xlink:href="#DejaVuSans-74" x="249.951172"/>
      <use xlink:href="#DejaVuSans-68" x="289.160156"/>
      <use xlink:href="#DejaVuSans-65" x="352.539062"/>
      <use xlink:href="#DejaVuSans-20" x="414.0625"/>
      <use xlink:href="#DejaVuSans-74" x="445.849609"/>
      <use xlink:href="#DejaVuSans-61" x="485.058594"/>
      <use xlink:href="#DejaVuSans-78" x="546.337891"/>
      <use xlink:href="#DejaVuSans-61" x="605.517578"/>
      <use xlink:href="#DejaVuSans-20" x="666.796875"/>
      <use xlink:href="#DejaVuSans-77" x="698.583984"/>
      <use xlink:href="#DejaVuSans-65" x="780.371094"/>
      <use xlink:href="#DejaVuSans-72" x="841.894531"/>
      <use xlink:href="#DejaVuSans-65" x="880.757812"/>
      <use xlink:href="#DejaVuSans-20" x="942.28125"/>
      <use xlink:href="#DejaVuSans-64" x="974.068359"/>
      <use xlink:href="#DejaVuSans-65" x="1037.544922"/>
      <use xlink:href="#DejaVuSans-74" x="1099.068359"/>
      <use xlink:href="#DejaVuSans-65" x="1138.277344"/>
      <use xlink:href="#DejaVuSans-63" x="1199.800781"/>
      <use xlink:href="#DejaVuSans-74" x="1254.78125"/>
      <use xlink:href="#DejaVuSans-65" x="1293.990234"/>
      <use xlink:href="#DejaVuSans-64" x="1355.513672"/>
     </g>
    </g>
   </g>
   <g id="LineCollection_1"/>
   <g id="patch_7">
    <path d="M 675.6139 565.2 
L 689.4739 565.2 
L 703.3339 565.2 
L 703.3339 10.8 
L 689.4739 10.8 
L 675.6139 10.8 
L 675.6139 565.2 
z
" style="fill: none; stroke: #000000; stroke-width: 0.8; stroke-linejoin: miter; stroke-linecap: square"/>
   </g>
  </g>
 </g>
 <defs>
  <clipPath id="p152efe74a7">
   <rect x="82.1072" y="10.8" width="554.4" height="554.4"/>
  </clipPath>
  <clipPath id="p6751c40e45">
   <rect x="675.6139" y="10.8" width="27.72" height="554.4"/>
  </clipPath>
 </defs>
</svg>
